<svg width="556" height="92" viewBox="0 0 556 92" fill="none" xmlns="http://www.w3.org/2000/svg">
<g clip-path="url(#clip0_1_664)" filter="url(#filter0_d_1_664)">
<path d="M281 77.5C300.606 77.5 316.5 61.6061 316.5 42C316.5 22.3939 300.606 6.5 281 6.5C261.394 6.5 245.5 22.3939 245.5 42C245.5 61.6061 261.394 77.5 281 77.5Z" fill="white" stroke="#DCDDEB"/>
<path d="M292.086 59.3845C292.073 59.3845 292.061 59.3845 292.048 59.3845C286.11 59.19 279.153 53.4336 274.359 48.6371C269.56 43.8407 263.803 36.8805 263.618 30.9698C263.55 28.8956 268.64 25.2072 268.693 25.1701C270.014 24.2504 271.48 24.5775 272.082 25.4109C272.489 25.9757 276.347 31.8216 276.767 32.4853C277.202 33.1736 277.137 34.1983 276.594 35.2261C276.295 35.7971 275.301 37.5441 274.835 38.359C275.338 39.075 276.668 40.8313 279.415 43.5783C282.165 46.3253 283.919 47.6587 284.638 48.1618C285.453 47.6957 287.2 46.7019 287.771 46.4025C288.783 45.8654 289.801 45.7975 290.496 46.2235C291.206 46.6587 297.036 50.5354 297.573 50.9088C298.024 51.2268 298.314 51.77 298.373 52.4027C298.428 53.0416 298.231 53.7176 297.82 54.3071C297.786 54.3565 294.141 59.3845 292.086 59.3845Z" fill="#0075FF"/>
</g>
<path d="M334.709 54.207V53.9062C334.709 51.9831 334.91 50.2376 335.311 48.6699C335.721 47.1022 336.258 45.7259 336.924 44.541C337.598 43.347 338.332 42.3581 339.125 41.5742C339.918 40.7904 340.706 40.2253 341.49 39.8789L342.242 41.957C341.723 42.3398 341.212 42.8685 340.711 43.543C340.21 44.2083 339.754 45.0286 339.344 46.0039C338.943 46.9701 338.619 48.1094 338.373 49.4219C338.127 50.7253 338.004 52.2109 338.004 53.8789V54.2344C338.004 55.9023 338.127 57.3926 338.373 58.7051C338.619 60.0085 338.943 61.1478 339.344 62.123C339.754 63.1074 340.21 63.9368 340.711 64.6113C341.212 65.2858 341.723 65.819 342.242 66.2109L341.49 68.2344C340.706 67.888 339.918 67.3229 339.125 66.5391C338.332 65.7643 337.598 64.7799 336.924 63.5859C336.258 62.401 335.721 61.0247 335.311 59.457C334.91 57.8802 334.709 56.1302 334.709 54.207ZM358.102 54.5625V57.6523H343.76L343.568 55.2598L351.867 42.0938H354.998L351.607 47.7676L347.479 54.5625H358.102ZM355.846 42.0938V62H351.908V42.0938H355.846ZM369.832 42.0527V62H365.895V46.5918L361.164 48.0957V44.9922L369.408 42.0527H369.832ZM390.258 54.5625V57.6523H375.916L375.725 55.2598L384.023 42.0938H387.154L383.764 47.7676L379.635 54.5625H390.258ZM388.002 42.0938V62H384.064V42.0938H388.002ZM399.322 53.9062V54.207C399.322 56.0664 399.113 57.7799 398.693 59.3477C398.274 60.9062 397.718 62.2871 397.025 63.4902C396.342 64.7025 395.59 65.7096 394.77 66.5117C393.958 67.3138 393.147 67.888 392.336 68.2344L391.57 66.2109C392.09 65.8281 392.596 65.2995 393.088 64.625C393.589 63.9505 394.045 63.1211 394.455 62.1367C394.865 61.1615 395.189 60.0176 395.426 58.7051C395.672 57.3926 395.795 55.9023 395.795 54.2344V53.8789C395.795 52.2109 395.672 50.7207 395.426 49.4082C395.18 48.0957 394.847 46.9518 394.428 45.9766C394.018 44.9922 393.562 44.1673 393.061 43.502C392.568 42.8275 392.072 42.2988 391.57 41.916L392.336 39.8789C393.147 40.2253 393.958 40.804 394.77 41.6152C395.59 42.4173 396.342 43.4199 397.025 44.623C397.718 45.8262 398.274 47.2116 398.693 48.7793C399.113 50.3379 399.322 52.0469 399.322 53.9062ZM412.912 52.9355L409.768 52.1836L410.902 42.0938H422.086V45.2793H414.143L413.65 49.6953C413.915 49.5404 414.316 49.3763 414.854 49.2031C415.391 49.0208 415.993 48.9297 416.658 48.9297C417.624 48.9297 418.481 49.0801 419.229 49.3809C419.976 49.6816 420.609 50.1191 421.129 50.6934C421.658 51.2676 422.059 51.9694 422.332 52.7988C422.605 53.6283 422.742 54.5671 422.742 55.6152C422.742 56.4993 422.605 57.3424 422.332 58.1445C422.059 58.9375 421.644 59.6484 421.088 60.2773C420.532 60.8971 419.835 61.3848 418.996 61.7402C418.158 62.0957 417.164 62.2734 416.016 62.2734C415.159 62.2734 414.329 62.1458 413.527 61.8906C412.734 61.6354 412.019 61.2572 411.381 60.7559C410.752 60.2546 410.246 59.6484 409.863 58.9375C409.49 58.2174 409.294 57.3971 409.275 56.4766H413.186C413.24 57.0417 413.386 57.5293 413.623 57.9395C413.869 58.3405 414.193 58.6504 414.594 58.8691C414.995 59.0879 415.464 59.1973 416.002 59.1973C416.503 59.1973 416.932 59.1016 417.287 58.9102C417.643 58.7188 417.93 58.4544 418.148 58.1172C418.367 57.7708 418.527 57.3698 418.627 56.9141C418.736 56.4492 418.791 55.9479 418.791 55.4102C418.791 54.8724 418.727 54.3848 418.6 53.9473C418.472 53.5098 418.276 53.1315 418.012 52.8125C417.747 52.4935 417.41 52.2474 417 52.0742C416.599 51.901 416.13 51.8145 415.592 51.8145C414.863 51.8145 414.298 51.9284 413.896 52.1562C413.505 52.3841 413.176 52.6439 412.912 52.9355ZM435.443 41.8887H436.018V45.0332H435.785C434.746 45.0332 433.821 45.1882 433.01 45.498C432.199 45.8079 431.51 46.25 430.945 46.8242C430.389 47.3893 429.961 48.0729 429.66 48.875C429.368 49.6771 429.223 50.5749 429.223 51.5684V54.877C429.223 55.5879 429.291 56.2168 429.428 56.7637C429.574 57.3014 429.779 57.7526 430.043 58.1172C430.316 58.4727 430.635 58.7415 431 58.9238C431.365 59.097 431.775 59.1836 432.23 59.1836C432.659 59.1836 433.046 59.0924 433.393 58.9102C433.748 58.7279 434.049 58.4727 434.295 58.1445C434.55 57.8073 434.742 57.4154 434.869 56.9688C435.006 56.513 435.074 56.0163 435.074 55.4785C435.074 54.9408 435.006 54.444 434.869 53.9883C434.742 53.5326 434.55 53.1406 434.295 52.8125C434.04 52.4753 433.73 52.2155 433.365 52.0332C433.001 51.8509 432.59 51.7598 432.135 51.7598C431.515 51.7598 430.968 51.9056 430.494 52.1973C430.029 52.4798 429.665 52.8444 429.4 53.291C429.136 53.7376 428.995 54.207 428.977 54.6992L427.787 53.9336C427.814 53.2318 427.96 52.5664 428.225 51.9375C428.498 51.3086 428.872 50.7526 429.346 50.2695C429.829 49.7773 430.408 49.3945 431.082 49.1211C431.757 48.8385 432.518 48.6973 433.365 48.6973C434.295 48.6973 435.111 48.875 435.812 49.2305C436.523 49.5859 437.116 50.0736 437.59 50.6934C438.064 51.3132 438.419 52.0286 438.656 52.8398C438.893 53.651 439.012 54.5169 439.012 55.4375C439.012 56.4036 438.852 57.3014 438.533 58.1309C438.223 58.9603 437.772 59.6849 437.18 60.3047C436.596 60.9245 435.895 61.4076 435.074 61.7539C434.254 62.1003 433.333 62.2734 432.312 62.2734C431.255 62.2734 430.294 62.082 429.428 61.6992C428.571 61.3073 427.833 60.7604 427.213 60.0586C426.593 59.3568 426.115 58.5228 425.777 57.5566C425.449 56.5905 425.285 55.5332 425.285 54.3848V52.8535C425.285 51.2493 425.518 49.7819 425.982 48.4512C426.456 47.1113 427.135 45.9538 428.02 44.9785C428.904 43.9941 429.97 43.2331 431.219 42.6953C432.467 42.1576 433.876 41.8887 435.443 41.8887ZM454.885 42.0938V44.2129L447.188 62H443.031L450.729 45.1699H440.816V42.0938H454.885ZM472.344 51.9102V55H464.619V51.9102H472.344ZM496.051 58.9238V62H482.434V59.375L488.873 52.4707C489.52 51.7507 490.031 51.1172 490.404 50.5703C490.778 50.0143 491.047 49.5176 491.211 49.0801C491.384 48.6335 491.471 48.2096 491.471 47.8086C491.471 47.207 491.37 46.6921 491.17 46.2637C490.969 45.8262 490.673 45.4889 490.281 45.252C489.898 45.015 489.424 44.8965 488.859 44.8965C488.258 44.8965 487.738 45.0423 487.301 45.334C486.872 45.6257 486.544 46.0312 486.316 46.5508C486.098 47.0703 485.988 47.6582 485.988 48.3145H482.037C482.037 47.1296 482.32 46.0449 482.885 45.0605C483.45 44.0671 484.247 43.2786 485.277 42.6953C486.307 42.1029 487.529 41.8066 488.941 41.8066C490.336 41.8066 491.512 42.0345 492.469 42.4902C493.435 42.9368 494.164 43.584 494.656 44.4316C495.158 45.2702 495.408 46.2728 495.408 47.4395C495.408 48.0957 495.303 48.7383 495.094 49.3672C494.884 49.987 494.583 50.6068 494.191 51.2266C493.809 51.8372 493.344 52.457 492.797 53.0859C492.25 53.7148 491.644 54.3665 490.979 55.041L487.52 58.9238H496.051ZM508.109 42.0527V62H504.172V46.5918L499.441 48.0957V44.9922L507.686 42.0527H508.109ZM527.988 50.2969V53.7422C527.988 55.237 527.829 56.5267 527.51 57.6113C527.191 58.6868 526.73 59.571 526.129 60.2637C525.536 60.9473 524.83 61.4531 524.01 61.7812C523.189 62.1094 522.278 62.2734 521.275 62.2734C520.473 62.2734 519.726 62.1732 519.033 61.9727C518.34 61.763 517.716 61.4395 517.16 61.002C516.613 60.5645 516.139 60.013 515.738 59.3477C515.346 58.6732 515.046 57.8711 514.836 56.9414C514.626 56.0117 514.521 54.9453 514.521 53.7422V50.2969C514.521 48.8021 514.681 47.5215 515 46.4551C515.328 45.3796 515.788 44.5 516.381 43.8164C516.982 43.1328 517.693 42.6315 518.514 42.3125C519.334 41.9844 520.245 41.8203 521.248 41.8203C522.05 41.8203 522.793 41.9251 523.477 42.1348C524.169 42.3353 524.794 42.6497 525.35 43.0781C525.906 43.5065 526.38 44.0579 526.771 44.7324C527.163 45.3978 527.464 46.1953 527.674 47.125C527.883 48.0456 527.988 49.1029 527.988 50.2969ZM524.037 54.2617V49.7637C524.037 49.0436 523.996 48.4147 523.914 47.877C523.841 47.3392 523.727 46.8835 523.572 46.5098C523.417 46.127 523.226 45.8171 522.998 45.5801C522.77 45.3431 522.51 45.1699 522.219 45.0605C521.927 44.9512 521.604 44.8965 521.248 44.8965C520.801 44.8965 520.405 44.9831 520.059 45.1562C519.721 45.3294 519.434 45.6074 519.197 45.9902C518.96 46.3639 518.778 46.8652 518.65 47.4941C518.532 48.1139 518.473 48.8704 518.473 49.7637V54.2617C518.473 54.9818 518.509 55.6152 518.582 56.1621C518.664 56.709 518.783 57.1784 518.938 57.5703C519.102 57.9531 519.293 58.2676 519.512 58.5137C519.74 58.7507 519.999 58.9238 520.291 59.0332C520.592 59.1426 520.92 59.1973 521.275 59.1973C521.713 59.1973 522.1 59.1107 522.438 58.9375C522.784 58.7552 523.076 58.4727 523.312 58.0898C523.559 57.6979 523.741 57.1875 523.859 56.5586C523.978 55.9297 524.037 55.1641 524.037 54.2617ZM533.457 59.0059H533.717C534.811 59.0059 535.749 58.8737 536.533 58.6094C537.326 58.3359 537.978 57.944 538.488 57.4336C538.999 56.9232 539.377 56.2988 539.623 55.5605C539.869 54.8132 539.992 53.9655 539.992 53.0176V49.2441C539.992 48.5241 539.919 47.8906 539.773 47.3438C539.637 46.7969 539.436 46.3457 539.172 45.9902C538.917 45.6257 538.616 45.3522 538.27 45.1699C537.932 44.9876 537.559 44.8965 537.148 44.8965C536.711 44.8965 536.324 45.0059 535.986 45.2246C535.649 45.4342 535.362 45.7214 535.125 46.0859C534.897 46.4505 534.719 46.8698 534.592 47.3438C534.473 47.8086 534.414 48.2962 534.414 48.8066C534.414 49.3171 534.473 49.8047 534.592 50.2695C534.71 50.7253 534.888 51.1309 535.125 51.4863C535.362 51.8327 535.658 52.1107 536.014 52.3203C536.369 52.5208 536.788 52.6211 537.271 52.6211C537.736 52.6211 538.151 52.5345 538.516 52.3613C538.889 52.179 539.204 51.9421 539.459 51.6504C539.723 51.3587 539.924 51.0352 540.061 50.6797C540.206 50.3242 540.279 49.9642 540.279 49.5996L541.578 50.3105C541.578 50.9486 541.441 51.5775 541.168 52.1973C540.895 52.8171 540.512 53.3822 540.02 53.8926C539.536 54.3939 538.976 54.7949 538.338 55.0957C537.7 55.3965 537.016 55.5469 536.287 55.5469C535.357 55.5469 534.533 55.3783 533.812 55.041C533.092 54.6947 532.482 54.2207 531.98 53.6191C531.488 53.0085 531.115 52.2975 530.859 51.4863C530.604 50.6751 530.477 49.7956 530.477 48.8477C530.477 47.8815 530.632 46.9746 530.941 46.127C531.26 45.2793 531.712 44.5319 532.295 43.8848C532.887 43.2376 533.594 42.7318 534.414 42.3672C535.243 41.9935 536.164 41.8066 537.176 41.8066C538.188 41.8066 539.108 42.0026 539.938 42.3945C540.767 42.7865 541.478 43.3424 542.07 44.0625C542.663 44.7734 543.118 45.6257 543.438 46.6191C543.766 47.6126 543.93 48.7155 543.93 49.9277V51.2949C543.93 52.5892 543.788 53.7923 543.506 54.9043C543.232 56.0163 542.818 57.0234 542.262 57.9258C541.715 58.819 541.031 59.5846 540.211 60.2227C539.4 60.8607 538.456 61.3483 537.381 61.6855C536.305 62.0228 535.102 62.1914 533.771 62.1914H533.457V59.0059Z" fill="white"/>
<path d="M341.188 22.3828H342.688C342.609 23.1016 342.404 23.7448 342.07 24.3125C341.737 24.8802 341.266 25.3307 340.656 25.6641C340.047 25.9922 339.286 26.1562 338.375 26.1562C337.708 26.1562 337.102 26.0312 336.555 25.7812C336.013 25.5312 335.547 25.1771 335.156 24.7188C334.766 24.2552 334.464 23.7005 334.25 23.0547C334.042 22.4036 333.938 21.6797 333.938 20.8828V19.75C333.938 18.9531 334.042 18.2318 334.25 17.5859C334.464 16.9349 334.768 16.3776 335.164 15.9141C335.565 15.4505 336.047 15.0938 336.609 14.8438C337.172 14.5938 337.805 14.4688 338.508 14.4688C339.367 14.4688 340.094 14.6302 340.688 14.9531C341.281 15.276 341.742 15.724 342.07 16.2969C342.404 16.8646 342.609 17.5234 342.688 18.2734H341.188C341.115 17.7422 340.979 17.2865 340.781 16.9062C340.583 16.5208 340.302 16.224 339.938 16.0156C339.573 15.8073 339.096 15.7031 338.508 15.7031C338.003 15.7031 337.557 15.7995 337.172 15.9922C336.792 16.1849 336.471 16.4583 336.211 16.8125C335.956 17.1667 335.763 17.5911 335.633 18.0859C335.503 18.5807 335.438 19.1302 335.438 19.7344V20.8828C335.438 21.4401 335.495 21.9635 335.609 22.4531C335.729 22.9427 335.909 23.3724 336.148 23.7422C336.388 24.112 336.693 24.4036 337.062 24.6172C337.432 24.8255 337.87 24.9297 338.375 24.9297C339.016 24.9297 339.526 24.8281 339.906 24.625C340.286 24.4219 340.573 24.1302 340.766 23.75C340.964 23.3698 341.104 22.9141 341.188 22.3828ZM350.553 15.6328L346.788 26H345.248L349.584 14.625H350.577L350.553 15.6328ZM353.709 26L349.936 15.6328L349.913 14.625H350.905L355.256 26H353.709ZM353.514 21.7891V23.0234H347.123V21.7891H353.514ZM365.278 24.7734V26H359.591V24.7734H365.278ZM359.888 14.625V26H358.38V14.625H359.888ZM375.503 24.7734V26H369.816V24.7734H375.503ZM370.112 14.625V26H368.605V14.625H370.112ZM390.906 14.625H392.406V22.3203C392.406 23.1745 392.216 23.8854 391.836 24.4531C391.456 25.0208 390.951 25.4479 390.32 25.7344C389.695 26.0156 389.016 26.1562 388.281 26.1562C387.51 26.1562 386.812 26.0156 386.188 25.7344C385.568 25.4479 385.076 25.0208 384.711 24.4531C384.352 23.8854 384.172 23.1745 384.172 22.3203V14.625H385.664V22.3203C385.664 22.9141 385.773 23.4036 385.992 23.7891C386.211 24.1745 386.516 24.4609 386.906 24.6484C387.302 24.8359 387.76 24.9297 388.281 24.9297C388.807 24.9297 389.266 24.8359 389.656 24.6484C390.052 24.4609 390.359 24.1745 390.578 23.7891C390.797 23.4036 390.906 22.9141 390.906 22.3203V14.625ZM402.436 23.125C402.436 22.8594 402.394 22.625 402.311 22.4219C402.233 22.2135 402.092 22.026 401.889 21.8594C401.691 21.6927 401.415 21.5339 401.061 21.3828C400.712 21.2318 400.269 21.0781 399.733 20.9219C399.17 20.7552 398.662 20.5703 398.209 20.3672C397.756 20.1589 397.368 19.9219 397.045 19.6562C396.722 19.3906 396.475 19.0859 396.303 18.7422C396.131 18.3984 396.045 18.0052 396.045 17.5625C396.045 17.1198 396.136 16.7109 396.319 16.3359C396.501 15.9609 396.761 15.6354 397.1 15.3594C397.444 15.0781 397.853 14.8594 398.327 14.7031C398.801 14.5469 399.329 14.4688 399.912 14.4688C400.767 14.4688 401.491 14.6328 402.084 14.9609C402.683 15.2839 403.139 15.7083 403.452 16.2344C403.764 16.7552 403.92 17.3125 403.92 17.9062H402.42C402.42 17.4792 402.329 17.1016 402.147 16.7734C401.965 16.4401 401.689 16.1797 401.319 15.9922C400.949 15.7995 400.48 15.7031 399.912 15.7031C399.376 15.7031 398.933 15.7839 398.584 15.9453C398.235 16.1068 397.975 16.3255 397.803 16.6016C397.636 16.8776 397.553 17.1927 397.553 17.5469C397.553 17.7865 397.603 18.0052 397.702 18.2031C397.806 18.3958 397.965 18.5755 398.178 18.7422C398.397 18.9089 398.673 19.0625 399.006 19.2031C399.345 19.3438 399.748 19.4792 400.217 19.6094C400.863 19.7917 401.42 19.9948 401.889 20.2188C402.358 20.4427 402.743 20.6953 403.045 20.9766C403.353 21.2526 403.579 21.5677 403.725 21.9219C403.876 22.2708 403.952 22.6667 403.952 23.1094C403.952 23.5729 403.858 23.9922 403.67 24.3672C403.483 24.7422 403.215 25.0625 402.866 25.3281C402.517 25.5938 402.097 25.7995 401.608 25.9453C401.123 26.0859 400.582 26.1562 399.983 26.1562C399.457 26.1562 398.939 26.0833 398.428 25.9375C397.923 25.7917 397.462 25.5729 397.045 25.2812C396.634 24.9896 396.303 24.6302 396.053 24.2031C395.808 23.7708 395.686 23.2708 395.686 22.7031H397.186C397.186 23.0938 397.261 23.4297 397.412 23.7109C397.564 23.987 397.769 24.2161 398.03 24.3984C398.295 24.5807 398.595 24.7161 398.928 24.8047C399.267 24.888 399.618 24.9297 399.983 24.9297C400.509 24.9297 400.954 24.8568 401.319 24.7109C401.683 24.5651 401.959 24.3568 402.147 24.0859C402.34 23.8151 402.436 23.4948 402.436 23.125ZM421.792 14.625V26H420.277L414.55 17.2266V26H413.042V14.625H414.55L420.3 23.4219V14.625H421.792ZM434.822 19.9531V20.6719C434.822 21.526 434.715 22.2917 434.502 22.9688C434.288 23.6458 433.981 24.2214 433.58 24.6953C433.179 25.1693 432.697 25.5312 432.134 25.7812C431.577 26.0312 430.952 26.1562 430.259 26.1562C429.588 26.1562 428.97 26.0312 428.408 25.7812C427.851 25.5312 427.366 25.1693 426.955 24.6953C426.548 24.2214 426.233 23.6458 426.009 22.9688C425.785 22.2917 425.673 21.526 425.673 20.6719V19.9531C425.673 19.099 425.783 18.3359 426.002 17.6641C426.226 16.987 426.541 16.4115 426.947 15.9375C427.353 15.4583 427.835 15.0938 428.392 14.8438C428.955 14.5938 429.572 14.4688 430.244 14.4688C430.936 14.4688 431.561 14.5938 432.119 14.8438C432.681 15.0938 433.163 15.4583 433.564 15.9375C433.97 16.4115 434.28 16.987 434.494 17.6641C434.713 18.3359 434.822 19.099 434.822 19.9531ZM433.33 20.6719V19.9375C433.33 19.2604 433.259 18.6615 433.119 18.1406C432.983 17.6198 432.783 17.1823 432.517 16.8281C432.252 16.474 431.926 16.2057 431.541 16.0234C431.16 15.8411 430.728 15.75 430.244 15.75C429.775 15.75 429.351 15.8411 428.97 16.0234C428.595 16.2057 428.272 16.474 428.002 16.8281C427.736 17.1823 427.53 17.6198 427.384 18.1406C427.239 18.6615 427.166 19.2604 427.166 19.9375V20.6719C427.166 21.3542 427.239 21.9583 427.384 22.4844C427.53 23.0052 427.739 23.4453 428.009 23.8047C428.285 24.1589 428.611 24.4271 428.986 24.6094C429.366 24.7917 429.791 24.8828 430.259 24.8828C430.749 24.8828 431.184 24.7917 431.564 24.6094C431.944 24.4271 432.265 24.1589 432.525 23.8047C432.791 23.4453 432.991 23.0052 433.127 22.4844C433.262 21.9583 433.33 21.3542 433.33 20.6719ZM441.672 22.5625L443.93 14.625H445.023L444.391 17.7109L441.961 26H440.875L441.672 22.5625ZM439.336 14.625L441.133 22.4062L441.672 26H440.594L437.836 14.625H439.336ZM447.945 22.3984L449.703 14.625H451.211L448.461 26H447.383L447.945 22.3984ZM445.188 14.625L447.383 22.5625L448.18 26H447.094L444.75 17.7109L444.109 14.625H445.188Z" fill="white"/>
<path d="M0 20C0 12.268 6.26801 6 14 6H203C210.732 6 217 12.268 217 20V64C217 71.732 210.732 78 203 78H14C6.26801 78 0 71.732 0 64V20Z" fill="#0075FF"/>
<path d="M54.9307 41.3115V46.3828C54.7314 46.623 54.4238 46.8838 54.0078 47.165C53.5918 47.4404 53.0557 47.6777 52.3994 47.877C51.7432 48.0762 50.9492 48.1758 50.0176 48.1758C49.1914 48.1758 48.4385 48.041 47.7588 47.7715C47.0791 47.4961 46.4932 47.0947 46.001 46.5674C45.5146 46.04 45.1396 45.3955 44.876 44.6338C44.6123 43.8662 44.4805 42.9902 44.4805 42.0059V41.2061C44.4805 40.2217 44.6064 39.3457 44.8584 38.5781C45.1162 37.8105 45.4824 37.1631 45.957 36.6357C46.4316 36.1084 46.9971 35.707 47.6533 35.4316C48.3096 35.1562 49.0391 35.0186 49.8418 35.0186C50.9551 35.0186 51.8691 35.2002 52.584 35.5635C53.2988 35.9209 53.8438 36.4189 54.2188 37.0576C54.5996 37.6904 54.834 38.417 54.9219 39.2373H52.3643C52.2998 38.8037 52.1768 38.4258 51.9951 38.1035C51.8135 37.7812 51.5527 37.5293 51.2129 37.3477C50.8789 37.166 50.4453 37.0752 49.9121 37.0752C49.4727 37.0752 49.0801 37.166 48.7344 37.3477C48.3945 37.5234 48.1074 37.7842 47.873 38.1299C47.6387 38.4756 47.46 38.9033 47.3369 39.4131C47.2139 39.9229 47.1523 40.5146 47.1523 41.1885V42.0059C47.1523 42.6738 47.2168 43.2656 47.3457 43.7812C47.4746 44.291 47.665 44.7217 47.917 45.0732C48.1748 45.4189 48.4912 45.6797 48.8662 45.8555C49.2412 46.0312 49.6777 46.1191 50.1758 46.1191C50.5918 46.1191 50.9375 46.084 51.2129 46.0137C51.4941 45.9434 51.7197 45.8584 51.8896 45.7588C52.0654 45.6533 52.2002 45.5537 52.2939 45.46V43.1924H49.8857V41.3115H54.9307ZM61.2764 48.1758C60.5381 48.1758 59.876 48.0586 59.29 47.8242C58.7041 47.584 58.2061 47.2529 57.7959 46.8311C57.3916 46.4092 57.0811 45.9199 56.8643 45.3633C56.6475 44.8008 56.5391 44.2031 56.5391 43.5703V43.2188C56.5391 42.498 56.6416 41.8389 56.8467 41.2412C57.0518 40.6436 57.3447 40.125 57.7256 39.6855C58.1123 39.2461 58.5811 38.9092 59.1318 38.6748C59.6826 38.4346 60.3037 38.3145 60.9951 38.3145C61.6689 38.3145 62.2666 38.4258 62.7881 38.6484C63.3096 38.8711 63.7461 39.1875 64.0977 39.5977C64.4551 40.0078 64.7246 40.5 64.9062 41.0742C65.0879 41.6426 65.1787 42.2754 65.1787 42.9727V44.0273H57.6201V42.3398H62.6914V42.1465C62.6914 41.7949 62.627 41.4814 62.498 41.2061C62.375 40.9248 62.1875 40.7021 61.9355 40.5381C61.6836 40.374 61.3613 40.292 60.9688 40.292C60.6348 40.292 60.3477 40.3652 60.1074 40.5117C59.8672 40.6582 59.6709 40.8633 59.5186 41.127C59.3721 41.3906 59.2607 41.7012 59.1846 42.0586C59.1143 42.4102 59.0791 42.7969 59.0791 43.2188V43.5703C59.0791 43.9512 59.1318 44.3027 59.2373 44.625C59.3486 44.9473 59.5039 45.2256 59.7031 45.46C59.9082 45.6943 60.1543 45.876 60.4414 46.0049C60.7344 46.1338 61.0654 46.1982 61.4346 46.1982C61.8916 46.1982 62.3164 46.1104 62.709 45.9346C63.1074 45.7529 63.4502 45.4805 63.7373 45.1172L64.9678 46.4531C64.7686 46.7402 64.4961 47.0156 64.1504 47.2793C63.8105 47.543 63.4004 47.7598 62.9199 47.9297C62.4395 48.0938 61.8916 48.1758 61.2764 48.1758ZM71.2783 38.4902V40.2832H65.7412V38.4902H71.2783ZM67.1123 36.1436H69.6436V45.1348C69.6436 45.4102 69.6787 45.6211 69.749 45.7676C69.8252 45.9141 69.9365 46.0166 70.083 46.0752C70.2295 46.1279 70.4141 46.1543 70.6367 46.1543C70.7949 46.1543 70.9355 46.1484 71.0586 46.1367C71.1875 46.1191 71.2959 46.1016 71.3838 46.084L71.3926 47.9473C71.1758 48.0176 70.9414 48.0732 70.6895 48.1143C70.4375 48.1553 70.1592 48.1758 69.8545 48.1758C69.2979 48.1758 68.8115 48.085 68.3955 47.9033C67.9854 47.7158 67.6689 47.417 67.4463 47.0068C67.2236 46.5967 67.1123 46.0576 67.1123 45.3896V36.1436ZM82.335 45.8555V41.6191C82.335 41.3145 82.2852 41.0537 82.1855 40.8369C82.0859 40.6143 81.9307 40.4414 81.7197 40.3184C81.5146 40.1953 81.248 40.1338 80.9199 40.1338C80.6387 40.1338 80.3955 40.1836 80.1904 40.2832C79.9854 40.377 79.8271 40.5146 79.7158 40.6963C79.6045 40.8721 79.5488 41.0801 79.5488 41.3203H77.0176C77.0176 40.916 77.1113 40.5322 77.2988 40.1689C77.4863 39.8057 77.7588 39.4863 78.1162 39.2109C78.4736 38.9297 78.8984 38.71 79.3906 38.5518C79.8887 38.3936 80.4453 38.3145 81.0605 38.3145C81.7988 38.3145 82.4551 38.4375 83.0293 38.6836C83.6035 38.9297 84.0547 39.2988 84.3828 39.791C84.7168 40.2832 84.8838 40.8984 84.8838 41.6367V45.7061C84.8838 46.2275 84.916 46.6553 84.9805 46.9893C85.0449 47.3174 85.1387 47.6045 85.2617 47.8506V48H82.7041C82.5811 47.7422 82.4873 47.4199 82.4229 47.0332C82.3643 46.6406 82.335 46.248 82.335 45.8555ZM82.6689 42.208L82.6865 43.6406H81.2715C80.9375 43.6406 80.6475 43.6787 80.4014 43.7549C80.1553 43.8311 79.9531 43.9395 79.7949 44.0801C79.6367 44.2148 79.5195 44.373 79.4434 44.5547C79.373 44.7363 79.3379 44.9355 79.3379 45.1523C79.3379 45.3691 79.3877 45.5654 79.4873 45.7412C79.5869 45.9111 79.7305 46.0459 79.918 46.1455C80.1055 46.2393 80.3252 46.2861 80.5771 46.2861C80.958 46.2861 81.2891 46.21 81.5703 46.0576C81.8516 45.9053 82.0684 45.7178 82.2207 45.4951C82.3789 45.2725 82.4609 45.0615 82.4668 44.8623L83.1348 45.9346C83.041 46.1748 82.9121 46.4238 82.748 46.6816C82.5898 46.9395 82.3877 47.1826 82.1416 47.4111C81.8955 47.6338 81.5996 47.8184 81.2539 47.9648C80.9082 48.1055 80.498 48.1758 80.0234 48.1758C79.4199 48.1758 78.8721 48.0557 78.3799 47.8154C77.8936 47.5693 77.5068 47.2324 77.2197 46.8047C76.9385 46.3711 76.7979 45.8789 76.7979 45.3281C76.7979 44.8301 76.8916 44.3877 77.0791 44.001C77.2666 43.6143 77.542 43.2891 77.9053 43.0254C78.2744 42.7559 78.7344 42.5537 79.2852 42.4189C79.8359 42.2783 80.4746 42.208 81.2012 42.208H82.6689ZM94.543 48H91.9941V37.6465C91.9941 36.9258 92.1348 36.3193 92.416 35.8271C92.7031 35.3291 93.1045 34.9541 93.6201 34.7021C94.1416 34.4443 94.7598 34.3154 95.4746 34.3154C95.709 34.3154 95.9346 34.333 96.1514 34.3682C96.3682 34.3975 96.5791 34.4355 96.7842 34.4824L96.7578 36.3896C96.6465 36.3604 96.5293 36.3398 96.4062 36.3281C96.2832 36.3164 96.1396 36.3105 95.9756 36.3105C95.6709 36.3105 95.4102 36.3633 95.1934 36.4688C94.9824 36.5684 94.8213 36.7178 94.71 36.917C94.5986 37.1162 94.543 37.3594 94.543 37.6465V48ZM96.4414 38.4902V40.2832H90.5791V38.4902H96.4414ZM100.3 40.5645V48H97.7686V38.4902H100.15L100.3 40.5645ZM103.165 38.4287L103.121 40.7754C102.998 40.7578 102.849 40.7432 102.673 40.7314C102.503 40.7139 102.348 40.7051 102.207 40.7051C101.85 40.7051 101.539 40.752 101.275 40.8457C101.018 40.9336 100.801 41.0654 100.625 41.2412C100.455 41.417 100.326 41.6309 100.238 41.8828C100.156 42.1348 100.109 42.4219 100.098 42.7441L99.5879 42.5859C99.5879 41.9707 99.6494 41.4053 99.7725 40.8896C99.8955 40.3682 100.074 39.9141 100.309 39.5273C100.549 39.1406 100.842 38.8418 101.188 38.6309C101.533 38.4199 101.929 38.3145 102.374 38.3145C102.515 38.3145 102.658 38.3262 102.805 38.3496C102.951 38.3672 103.071 38.3936 103.165 38.4287ZM108.562 48.1758C107.823 48.1758 107.161 48.0586 106.575 47.8242C105.989 47.584 105.491 47.2529 105.081 46.8311C104.677 46.4092 104.366 45.9199 104.149 45.3633C103.933 44.8008 103.824 44.2031 103.824 43.5703V43.2188C103.824 42.498 103.927 41.8389 104.132 41.2412C104.337 40.6436 104.63 40.125 105.011 39.6855C105.397 39.2461 105.866 38.9092 106.417 38.6748C106.968 38.4346 107.589 38.3145 108.28 38.3145C108.954 38.3145 109.552 38.4258 110.073 38.6484C110.595 38.8711 111.031 39.1875 111.383 39.5977C111.74 40.0078 112.01 40.5 112.191 41.0742C112.373 41.6426 112.464 42.2754 112.464 42.9727V44.0273H104.905V42.3398H109.977V42.1465C109.977 41.7949 109.912 41.4814 109.783 41.2061C109.66 40.9248 109.473 40.7021 109.221 40.5381C108.969 40.374 108.646 40.292 108.254 40.292C107.92 40.292 107.633 40.3652 107.393 40.5117C107.152 40.6582 106.956 40.8633 106.804 41.127C106.657 41.3906 106.546 41.7012 106.47 42.0586C106.399 42.4102 106.364 42.7969 106.364 43.2188V43.5703C106.364 43.9512 106.417 44.3027 106.522 44.625C106.634 44.9473 106.789 45.2256 106.988 45.46C107.193 45.6943 107.439 45.876 107.727 46.0049C108.02 46.1338 108.351 46.1982 108.72 46.1982C109.177 46.1982 109.602 46.1104 109.994 45.9346C110.393 45.7529 110.735 45.4805 111.022 45.1172L112.253 46.4531C112.054 46.7402 111.781 47.0156 111.436 47.2793C111.096 47.543 110.686 47.7598 110.205 47.9297C109.725 48.0938 109.177 48.1758 108.562 48.1758ZM118.282 48.1758C117.544 48.1758 116.882 48.0586 116.296 47.8242C115.71 47.584 115.212 47.2529 114.802 46.8311C114.397 46.4092 114.087 45.9199 113.87 45.3633C113.653 44.8008 113.545 44.2031 113.545 43.5703V43.2188C113.545 42.498 113.647 41.8389 113.853 41.2412C114.058 40.6436 114.351 40.125 114.731 39.6855C115.118 39.2461 115.587 38.9092 116.138 38.6748C116.688 38.4346 117.31 38.3145 118.001 38.3145C118.675 38.3145 119.272 38.4258 119.794 38.6484C120.315 38.8711 120.752 39.1875 121.104 39.5977C121.461 40.0078 121.73 40.5 121.912 41.0742C122.094 41.6426 122.185 42.2754 122.185 42.9727V44.0273H114.626V42.3398H119.697V42.1465C119.697 41.7949 119.633 41.4814 119.504 41.2061C119.381 40.9248 119.193 40.7021 118.941 40.5381C118.689 40.374 118.367 40.292 117.975 40.292C117.641 40.292 117.354 40.3652 117.113 40.5117C116.873 40.6582 116.677 40.8633 116.524 41.127C116.378 41.3906 116.267 41.7012 116.19 42.0586C116.12 42.4102 116.085 42.7969 116.085 43.2188V43.5703C116.085 43.9512 116.138 44.3027 116.243 44.625C116.354 44.9473 116.51 45.2256 116.709 45.46C116.914 45.6943 117.16 45.876 117.447 46.0049C117.74 46.1338 118.071 46.1982 118.44 46.1982C118.897 46.1982 119.322 46.1104 119.715 45.9346C120.113 45.7529 120.456 45.4805 120.743 45.1172L121.974 46.4531C121.774 46.7402 121.502 47.0156 121.156 47.2793C120.816 47.543 120.406 47.7598 119.926 47.9297C119.445 48.0938 118.897 48.1758 118.282 48.1758ZM133.725 51.6562V40.4326L134.05 38.4902H136.273V51.6562H133.725ZM127.713 43.3418V43.1572C127.713 42.4307 127.792 41.7715 127.95 41.1797C128.114 40.582 128.354 40.0723 128.671 39.6504C128.987 39.2227 129.374 38.8945 129.831 38.666C130.294 38.4316 130.827 38.3145 131.431 38.3145C132.011 38.3145 132.512 38.4316 132.934 38.666C133.355 38.9004 133.71 39.2314 133.997 39.6592C134.29 40.0869 134.524 40.5908 134.7 41.1709C134.876 41.751 135.011 42.3867 135.104 43.0781V43.4824C135.017 44.1445 134.882 44.7598 134.7 45.3281C134.524 45.8965 134.29 46.3945 133.997 46.8223C133.71 47.25 133.353 47.584 132.925 47.8242C132.503 48.0586 131.999 48.1758 131.413 48.1758C130.821 48.1758 130.294 48.0557 129.831 47.8154C129.374 47.5693 128.987 47.2295 128.671 46.7959C128.354 46.3623 128.114 45.8525 127.95 45.2666C127.792 44.6748 127.713 44.0332 127.713 43.3418ZM130.244 43.1572V43.3418C130.244 43.7344 130.276 44.1035 130.341 44.4492C130.405 44.7891 130.508 45.0908 130.648 45.3545C130.795 45.6182 130.982 45.8262 131.211 45.9785C131.439 46.125 131.721 46.1982 132.055 46.1982C132.518 46.1982 132.89 46.0986 133.171 45.8994C133.458 45.6943 133.669 45.416 133.804 45.0645C133.944 44.7129 134.026 44.3115 134.05 43.8604V42.709C134.032 42.3398 133.982 42.0088 133.9 41.7158C133.824 41.417 133.707 41.1621 133.549 40.9512C133.396 40.7402 133.197 40.5791 132.951 40.4678C132.711 40.3506 132.418 40.292 132.072 40.292C131.744 40.292 131.463 40.3652 131.229 40.5117C130.994 40.6582 130.804 40.8633 130.657 41.127C130.517 41.3848 130.411 41.6865 130.341 42.0322C130.276 42.3779 130.244 42.7529 130.244 43.1572ZM143.894 45.7236V38.4902H146.425V48H144.043L143.894 45.7236ZM144.175 43.7725L144.922 43.7549C144.922 44.3877 144.849 44.9766 144.702 45.5215C144.556 46.0605 144.336 46.5293 144.043 46.9277C143.75 47.3203 143.381 47.6279 142.936 47.8506C142.49 48.0674 141.966 48.1758 141.362 48.1758C140.899 48.1758 140.472 48.1113 140.079 47.9824C139.692 47.8477 139.358 47.6396 139.077 47.3584C138.802 47.0713 138.585 46.7051 138.427 46.2598C138.274 45.8086 138.198 45.2666 138.198 44.6338V38.4902H140.729V44.6514C140.729 44.9326 140.762 45.1699 140.826 45.3633C140.896 45.5566 140.993 45.7148 141.116 45.8379C141.239 45.9609 141.383 46.0488 141.547 46.1016C141.717 46.1543 141.904 46.1807 142.109 46.1807C142.631 46.1807 143.041 46.0752 143.34 45.8643C143.645 45.6533 143.858 45.3662 143.981 45.0029C144.11 44.6338 144.175 44.2236 144.175 43.7725ZM147.954 43.3418V43.1572C147.954 42.46 148.054 41.8184 148.253 41.2324C148.452 40.6406 148.742 40.1279 149.123 39.6943C149.504 39.2607 149.973 38.9238 150.529 38.6836C151.086 38.4375 151.725 38.3145 152.445 38.3145C153.166 38.3145 153.808 38.4375 154.37 38.6836C154.933 38.9238 155.404 39.2607 155.785 39.6943C156.172 40.1279 156.465 40.6406 156.664 41.2324C156.863 41.8184 156.963 42.46 156.963 43.1572V43.3418C156.963 44.0332 156.863 44.6748 156.664 45.2666C156.465 45.8525 156.172 46.3652 155.785 46.8047C155.404 47.2383 154.936 47.5752 154.379 47.8154C153.822 48.0557 153.184 48.1758 152.463 48.1758C151.742 48.1758 151.101 48.0557 150.538 47.8154C149.981 47.5752 149.51 47.2383 149.123 46.8047C148.742 46.3652 148.452 45.8525 148.253 45.2666C148.054 44.6748 147.954 44.0332 147.954 43.3418ZM150.485 43.1572V43.3418C150.485 43.7402 150.521 44.1123 150.591 44.458C150.661 44.8037 150.772 45.1084 150.925 45.3721C151.083 45.6299 151.288 45.832 151.54 45.9785C151.792 46.125 152.1 46.1982 152.463 46.1982C152.814 46.1982 153.116 46.125 153.368 45.9785C153.62 45.832 153.822 45.6299 153.975 45.3721C154.127 45.1084 154.238 44.8037 154.309 44.458C154.385 44.1123 154.423 43.7402 154.423 43.3418V43.1572C154.423 42.7705 154.385 42.4072 154.309 42.0674C154.238 41.7217 154.124 41.417 153.966 41.1533C153.813 40.8838 153.611 40.6729 153.359 40.5205C153.107 40.3682 152.803 40.292 152.445 40.292C152.088 40.292 151.783 40.3682 151.531 40.5205C151.285 40.6729 151.083 40.8838 150.925 41.1533C150.772 41.417 150.661 41.7217 150.591 42.0674C150.521 42.4072 150.485 42.7705 150.485 43.1572ZM163.177 38.4902V40.2832H157.64V38.4902H163.177ZM159.011 36.1436H161.542V45.1348C161.542 45.4102 161.577 45.6211 161.647 45.7676C161.724 45.9141 161.835 46.0166 161.981 46.0752C162.128 46.1279 162.312 46.1543 162.535 46.1543C162.693 46.1543 162.834 46.1484 162.957 46.1367C163.086 46.1191 163.194 46.1016 163.282 46.084L163.291 47.9473C163.074 48.0176 162.84 48.0732 162.588 48.1143C162.336 48.1553 162.058 48.1758 161.753 48.1758C161.196 48.1758 160.71 48.085 160.294 47.9033C159.884 47.7158 159.567 47.417 159.345 47.0068C159.122 46.5967 159.011 46.0576 159.011 45.3896V36.1436ZM168.995 48.1758C168.257 48.1758 167.595 48.0586 167.009 47.8242C166.423 47.584 165.925 47.2529 165.515 46.8311C165.11 46.4092 164.8 45.9199 164.583 45.3633C164.366 44.8008 164.258 44.2031 164.258 43.5703V43.2188C164.258 42.498 164.36 41.8389 164.565 41.2412C164.771 40.6436 165.063 40.125 165.444 39.6855C165.831 39.2461 166.3 38.9092 166.851 38.6748C167.401 38.4346 168.022 38.3145 168.714 38.3145C169.388 38.3145 169.985 38.4258 170.507 38.6484C171.028 38.8711 171.465 39.1875 171.816 39.5977C172.174 40.0078 172.443 40.5 172.625 41.0742C172.807 41.6426 172.897 42.2754 172.897 42.9727V44.0273H165.339V42.3398H170.41V42.1465C170.41 41.7949 170.346 41.4814 170.217 41.2061C170.094 40.9248 169.906 40.7021 169.654 40.5381C169.402 40.374 169.08 40.292 168.688 40.292C168.354 40.292 168.066 40.3652 167.826 40.5117C167.586 40.6582 167.39 40.8633 167.237 41.127C167.091 41.3906 166.979 41.7012 166.903 42.0586C166.833 42.4102 166.798 42.7969 166.798 43.2188V43.5703C166.798 43.9512 166.851 44.3027 166.956 44.625C167.067 44.9473 167.223 45.2256 167.422 45.46C167.627 45.6943 167.873 45.876 168.16 46.0049C168.453 46.1338 168.784 46.1982 169.153 46.1982C169.61 46.1982 170.035 46.1104 170.428 45.9346C170.826 45.7529 171.169 45.4805 171.456 45.1172L172.687 46.4531C172.487 46.7402 172.215 47.0156 171.869 47.2793C171.529 47.543 171.119 47.7598 170.639 47.9297C170.158 48.0938 169.61 48.1758 168.995 48.1758Z" fill="white"/>
<defs>
<filter id="filter0_d_1_664" x="235" y="0" width="92" height="92" filterUnits="userSpaceOnUse" color-interpolation-filters="sRGB">
<feFlood flood-opacity="0" result="BackgroundImageFix"/>
<feColorMatrix in="SourceAlpha" type="matrix" values="0 0 0 0 0 0 0 0 0 0 0 0 0 0 0 0 0 0 127 0" result="hardAlpha"/>
<feOffset dy="4"/>
<feGaussianBlur stdDeviation="5"/>
<feColorMatrix type="matrix" values="0 0 0 0 0.0784314 0 0 0 0 0.0784314 0 0 0 0 0.168627 0 0 0 0.04 0"/>
<feBlend mode="normal" in2="BackgroundImageFix" result="effect1_dropShadow_1_664"/>
<feBlend mode="normal" in="SourceGraphic" in2="effect1_dropShadow_1_664" result="shape"/>
</filter>
<clipPath id="clip0_1_664">
<rect width="72" height="72" fill="white" transform="translate(245 6)"/>
</clipPath>
</defs>
</svg>
