<svg width="1220" height="93" viewBox="0 0 1220 93" fill="none" xmlns="http://www.w3.org/2000/svg">
<path d="M381 21C381 13.268 387.268 7 395 7H584C591.732 7 598 13.268 598 21V65C598 72.732 591.732 79 584 79H395C387.268 79 381 72.732 381 65V21Z" fill="#0075FF"/>
<path d="M435.931 42.3115V47.3828C435.731 47.623 435.424 47.8838 435.008 48.165C434.592 48.4404 434.056 48.6777 433.399 48.877C432.743 49.0762 431.949 49.1758 431.018 49.1758C430.191 49.1758 429.438 49.041 428.759 48.7715C428.079 48.4961 427.493 48.0947 427.001 47.5674C426.515 47.04 426.14 46.3955 425.876 45.6338C425.612 44.8662 425.48 43.9902 425.48 43.0059V42.2061C425.48 41.2217 425.606 40.3457 425.858 39.5781C426.116 38.8105 426.482 38.1631 426.957 37.6357C427.432 37.1084 427.997 36.707 428.653 36.4316C429.31 36.1562 430.039 36.0186 430.842 36.0186C431.955 36.0186 432.869 36.2002 433.584 36.5635C434.299 36.9209 434.844 37.4189 435.219 38.0576C435.6 38.6904 435.834 39.417 435.922 40.2373H433.364C433.3 39.8037 433.177 39.4258 432.995 39.1035C432.813 38.7812 432.553 38.5293 432.213 38.3477C431.879 38.166 431.445 38.0752 430.912 38.0752C430.473 38.0752 430.08 38.166 429.734 38.3477C429.395 38.5234 429.107 38.7842 428.873 39.1299C428.639 39.4756 428.46 39.9033 428.337 40.4131C428.214 40.9229 428.152 41.5146 428.152 42.1885V43.0059C428.152 43.6738 428.217 44.2656 428.346 44.7812C428.475 45.291 428.665 45.7217 428.917 46.0732C429.175 46.4189 429.491 46.6797 429.866 46.8555C430.241 47.0312 430.678 47.1191 431.176 47.1191C431.592 47.1191 431.938 47.084 432.213 47.0137C432.494 46.9434 432.72 46.8584 432.89 46.7588C433.065 46.6533 433.2 46.5537 433.294 46.46V44.1924H430.886V42.3115H435.931ZM442.276 49.1758C441.538 49.1758 440.876 49.0586 440.29 48.8242C439.704 48.584 439.206 48.2529 438.796 47.8311C438.392 47.4092 438.081 46.9199 437.864 46.3633C437.647 45.8008 437.539 45.2031 437.539 44.5703V44.2188C437.539 43.498 437.642 42.8389 437.847 42.2412C438.052 41.6436 438.345 41.125 438.726 40.6855C439.112 40.2461 439.581 39.9092 440.132 39.6748C440.683 39.4346 441.304 39.3145 441.995 39.3145C442.669 39.3145 443.267 39.4258 443.788 39.6484C444.31 39.8711 444.746 40.1875 445.098 40.5977C445.455 41.0078 445.725 41.5 445.906 42.0742C446.088 42.6426 446.179 43.2754 446.179 43.9727V45.0273H438.62V43.3398H443.691V43.1465C443.691 42.7949 443.627 42.4814 443.498 42.2061C443.375 41.9248 443.188 41.7021 442.936 41.5381C442.684 41.374 442.361 41.292 441.969 41.292C441.635 41.292 441.348 41.3652 441.107 41.5117C440.867 41.6582 440.671 41.8633 440.519 42.127C440.372 42.3906 440.261 42.7012 440.185 43.0586C440.114 43.4102 440.079 43.7969 440.079 44.2188V44.5703C440.079 44.9512 440.132 45.3027 440.237 45.625C440.349 45.9473 440.504 46.2256 440.703 46.46C440.908 46.6943 441.154 46.876 441.441 47.0049C441.734 47.1338 442.065 47.1982 442.435 47.1982C442.892 47.1982 443.316 47.1104 443.709 46.9346C444.107 46.7529 444.45 46.4805 444.737 46.1172L445.968 47.4531C445.769 47.7402 445.496 48.0156 445.15 48.2793C444.811 48.543 444.4 48.7598 443.92 48.9297C443.439 49.0938 442.892 49.1758 442.276 49.1758ZM452.278 39.4902V41.2832H446.741V39.4902H452.278ZM448.112 37.1436H450.644V46.1348C450.644 46.4102 450.679 46.6211 450.749 46.7676C450.825 46.9141 450.937 47.0166 451.083 47.0752C451.229 47.1279 451.414 47.1543 451.637 47.1543C451.795 47.1543 451.936 47.1484 452.059 47.1367C452.188 47.1191 452.296 47.1016 452.384 47.084L452.393 48.9473C452.176 49.0176 451.941 49.0732 451.689 49.1143C451.438 49.1553 451.159 49.1758 450.854 49.1758C450.298 49.1758 449.812 49.085 449.396 48.9033C448.985 48.7158 448.669 48.417 448.446 48.0068C448.224 47.5967 448.112 47.0576 448.112 46.3896V37.1436ZM463.335 46.8555V42.6191C463.335 42.3145 463.285 42.0537 463.186 41.8369C463.086 41.6143 462.931 41.4414 462.72 41.3184C462.515 41.1953 462.248 41.1338 461.92 41.1338C461.639 41.1338 461.396 41.1836 461.19 41.2832C460.985 41.377 460.827 41.5146 460.716 41.6963C460.604 41.8721 460.549 42.0801 460.549 42.3203H458.018C458.018 41.916 458.111 41.5322 458.299 41.1689C458.486 40.8057 458.759 40.4863 459.116 40.2109C459.474 39.9297 459.898 39.71 460.391 39.5518C460.889 39.3936 461.445 39.3145 462.061 39.3145C462.799 39.3145 463.455 39.4375 464.029 39.6836C464.604 39.9297 465.055 40.2988 465.383 40.791C465.717 41.2832 465.884 41.8984 465.884 42.6367V46.7061C465.884 47.2275 465.916 47.6553 465.98 47.9893C466.045 48.3174 466.139 48.6045 466.262 48.8506V49H463.704C463.581 48.7422 463.487 48.4199 463.423 48.0332C463.364 47.6406 463.335 47.248 463.335 46.8555ZM463.669 43.208L463.687 44.6406H462.271C461.938 44.6406 461.647 44.6787 461.401 44.7549C461.155 44.8311 460.953 44.9395 460.795 45.0801C460.637 45.2148 460.52 45.373 460.443 45.5547C460.373 45.7363 460.338 45.9355 460.338 46.1523C460.338 46.3691 460.388 46.5654 460.487 46.7412C460.587 46.9111 460.73 47.0459 460.918 47.1455C461.105 47.2393 461.325 47.2861 461.577 47.2861C461.958 47.2861 462.289 47.21 462.57 47.0576C462.852 46.9053 463.068 46.7178 463.221 46.4951C463.379 46.2725 463.461 46.0615 463.467 45.8623L464.135 46.9346C464.041 47.1748 463.912 47.4238 463.748 47.6816C463.59 47.9395 463.388 48.1826 463.142 48.4111C462.896 48.6338 462.6 48.8184 462.254 48.9648C461.908 49.1055 461.498 49.1758 461.023 49.1758C460.42 49.1758 459.872 49.0557 459.38 48.8154C458.894 48.5693 458.507 48.2324 458.22 47.8047C457.938 47.3711 457.798 46.8789 457.798 46.3281C457.798 45.8301 457.892 45.3877 458.079 45.001C458.267 44.6143 458.542 44.2891 458.905 44.0254C459.274 43.7559 459.734 43.5537 460.285 43.4189C460.836 43.2783 461.475 43.208 462.201 43.208H463.669ZM475.543 49H472.994V38.6465C472.994 37.9258 473.135 37.3193 473.416 36.8271C473.703 36.3291 474.104 35.9541 474.62 35.7021C475.142 35.4443 475.76 35.3154 476.475 35.3154C476.709 35.3154 476.935 35.333 477.151 35.3682C477.368 35.3975 477.579 35.4355 477.784 35.4824L477.758 37.3896C477.646 37.3604 477.529 37.3398 477.406 37.3281C477.283 37.3164 477.14 37.3105 476.976 37.3105C476.671 37.3105 476.41 37.3633 476.193 37.4688C475.982 37.5684 475.821 37.7178 475.71 37.917C475.599 38.1162 475.543 38.3594 475.543 38.6465V49ZM477.441 39.4902V41.2832H471.579V39.4902H477.441ZM481.3 41.5645V49H478.769V39.4902H481.15L481.3 41.5645ZM484.165 39.4287L484.121 41.7754C483.998 41.7578 483.849 41.7432 483.673 41.7314C483.503 41.7139 483.348 41.7051 483.207 41.7051C482.85 41.7051 482.539 41.752 482.275 41.8457C482.018 41.9336 481.801 42.0654 481.625 42.2412C481.455 42.417 481.326 42.6309 481.238 42.8828C481.156 43.1348 481.109 43.4219 481.098 43.7441L480.588 43.5859C480.588 42.9707 480.649 42.4053 480.772 41.8896C480.896 41.3682 481.074 40.9141 481.309 40.5273C481.549 40.1406 481.842 39.8418 482.188 39.6309C482.533 39.4199 482.929 39.3145 483.374 39.3145C483.515 39.3145 483.658 39.3262 483.805 39.3496C483.951 39.3672 484.071 39.3936 484.165 39.4287ZM489.562 49.1758C488.823 49.1758 488.161 49.0586 487.575 48.8242C486.989 48.584 486.491 48.2529 486.081 47.8311C485.677 47.4092 485.366 46.9199 485.149 46.3633C484.933 45.8008 484.824 45.2031 484.824 44.5703V44.2188C484.824 43.498 484.927 42.8389 485.132 42.2412C485.337 41.6436 485.63 41.125 486.011 40.6855C486.397 40.2461 486.866 39.9092 487.417 39.6748C487.968 39.4346 488.589 39.3145 489.28 39.3145C489.954 39.3145 490.552 39.4258 491.073 39.6484C491.595 39.8711 492.031 40.1875 492.383 40.5977C492.74 41.0078 493.01 41.5 493.191 42.0742C493.373 42.6426 493.464 43.2754 493.464 43.9727V45.0273H485.905V43.3398H490.977V43.1465C490.977 42.7949 490.912 42.4814 490.783 42.2061C490.66 41.9248 490.473 41.7021 490.221 41.5381C489.969 41.374 489.646 41.292 489.254 41.292C488.92 41.292 488.633 41.3652 488.393 41.5117C488.152 41.6582 487.956 41.8633 487.804 42.127C487.657 42.3906 487.546 42.7012 487.47 43.0586C487.399 43.4102 487.364 43.7969 487.364 44.2188V44.5703C487.364 44.9512 487.417 45.3027 487.522 45.625C487.634 45.9473 487.789 46.2256 487.988 46.46C488.193 46.6943 488.439 46.876 488.727 47.0049C489.02 47.1338 489.351 47.1982 489.72 47.1982C490.177 47.1982 490.602 47.1104 490.994 46.9346C491.393 46.7529 491.735 46.4805 492.022 46.1172L493.253 47.4531C493.054 47.7402 492.781 48.0156 492.436 48.2793C492.096 48.543 491.686 48.7598 491.205 48.9297C490.725 49.0938 490.177 49.1758 489.562 49.1758ZM499.282 49.1758C498.544 49.1758 497.882 49.0586 497.296 48.8242C496.71 48.584 496.212 48.2529 495.802 47.8311C495.397 47.4092 495.087 46.9199 494.87 46.3633C494.653 45.8008 494.545 45.2031 494.545 44.5703V44.2188C494.545 43.498 494.647 42.8389 494.853 42.2412C495.058 41.6436 495.351 41.125 495.731 40.6855C496.118 40.2461 496.587 39.9092 497.138 39.6748C497.688 39.4346 498.31 39.3145 499.001 39.3145C499.675 39.3145 500.272 39.4258 500.794 39.6484C501.315 39.8711 501.752 40.1875 502.104 40.5977C502.461 41.0078 502.73 41.5 502.912 42.0742C503.094 42.6426 503.185 43.2754 503.185 43.9727V45.0273H495.626V43.3398H500.697V43.1465C500.697 42.7949 500.633 42.4814 500.504 42.2061C500.381 41.9248 500.193 41.7021 499.941 41.5381C499.689 41.374 499.367 41.292 498.975 41.292C498.641 41.292 498.354 41.3652 498.113 41.5117C497.873 41.6582 497.677 41.8633 497.524 42.127C497.378 42.3906 497.267 42.7012 497.19 43.0586C497.12 43.4102 497.085 43.7969 497.085 44.2188V44.5703C497.085 44.9512 497.138 45.3027 497.243 45.625C497.354 45.9473 497.51 46.2256 497.709 46.46C497.914 46.6943 498.16 46.876 498.447 47.0049C498.74 47.1338 499.071 47.1982 499.44 47.1982C499.897 47.1982 500.322 47.1104 500.715 46.9346C501.113 46.7529 501.456 46.4805 501.743 46.1172L502.974 47.4531C502.774 47.7402 502.502 48.0156 502.156 48.2793C501.816 48.543 501.406 48.7598 500.926 48.9297C500.445 49.0938 499.897 49.1758 499.282 49.1758ZM514.725 52.6562V41.4326L515.05 39.4902H517.273V52.6562H514.725ZM508.713 44.3418V44.1572C508.713 43.4307 508.792 42.7715 508.95 42.1797C509.114 41.582 509.354 41.0723 509.671 40.6504C509.987 40.2227 510.374 39.8945 510.831 39.666C511.294 39.4316 511.827 39.3145 512.431 39.3145C513.011 39.3145 513.512 39.4316 513.934 39.666C514.355 39.9004 514.71 40.2314 514.997 40.6592C515.29 41.0869 515.524 41.5908 515.7 42.1709C515.876 42.751 516.011 43.3867 516.104 44.0781V44.4824C516.017 45.1445 515.882 45.7598 515.7 46.3281C515.524 46.8965 515.29 47.3945 514.997 47.8223C514.71 48.25 514.353 48.584 513.925 48.8242C513.503 49.0586 512.999 49.1758 512.413 49.1758C511.821 49.1758 511.294 49.0557 510.831 48.8154C510.374 48.5693 509.987 48.2295 509.671 47.7959C509.354 47.3623 509.114 46.8525 508.95 46.2666C508.792 45.6748 508.713 45.0332 508.713 44.3418ZM511.244 44.1572V44.3418C511.244 44.7344 511.276 45.1035 511.341 45.4492C511.405 45.7891 511.508 46.0908 511.648 46.3545C511.795 46.6182 511.982 46.8262 512.211 46.9785C512.439 47.125 512.721 47.1982 513.055 47.1982C513.518 47.1982 513.89 47.0986 514.171 46.8994C514.458 46.6943 514.669 46.416 514.804 46.0645C514.944 45.7129 515.026 45.3115 515.05 44.8604V43.709C515.032 43.3398 514.982 43.0088 514.9 42.7158C514.824 42.417 514.707 42.1621 514.549 41.9512C514.396 41.7402 514.197 41.5791 513.951 41.4678C513.711 41.3506 513.418 41.292 513.072 41.292C512.744 41.292 512.463 41.3652 512.229 41.5117C511.994 41.6582 511.804 41.8633 511.657 42.127C511.517 42.3848 511.411 42.6865 511.341 43.0322C511.276 43.3779 511.244 43.7529 511.244 44.1572ZM524.894 46.7236V39.4902H527.425V49H525.043L524.894 46.7236ZM525.175 44.7725L525.922 44.7549C525.922 45.3877 525.849 45.9766 525.702 46.5215C525.556 47.0605 525.336 47.5293 525.043 47.9277C524.75 48.3203 524.381 48.6279 523.936 48.8506C523.49 49.0674 522.966 49.1758 522.362 49.1758C521.899 49.1758 521.472 49.1113 521.079 48.9824C520.692 48.8477 520.358 48.6396 520.077 48.3584C519.802 48.0713 519.585 47.7051 519.427 47.2598C519.274 46.8086 519.198 46.2666 519.198 45.6338V39.4902H521.729V45.6514C521.729 45.9326 521.762 46.1699 521.826 46.3633C521.896 46.5566 521.993 46.7148 522.116 46.8379C522.239 46.9609 522.383 47.0488 522.547 47.1016C522.717 47.1543 522.904 47.1807 523.109 47.1807C523.631 47.1807 524.041 47.0752 524.34 46.8643C524.645 46.6533 524.858 46.3662 524.981 46.0029C525.11 45.6338 525.175 45.2236 525.175 44.7725ZM528.954 44.3418V44.1572C528.954 43.46 529.054 42.8184 529.253 42.2324C529.452 41.6406 529.742 41.1279 530.123 40.6943C530.504 40.2607 530.973 39.9238 531.529 39.6836C532.086 39.4375 532.725 39.3145 533.445 39.3145C534.166 39.3145 534.808 39.4375 535.37 39.6836C535.933 39.9238 536.404 40.2607 536.785 40.6943C537.172 41.1279 537.465 41.6406 537.664 42.2324C537.863 42.8184 537.963 43.46 537.963 44.1572V44.3418C537.963 45.0332 537.863 45.6748 537.664 46.2666C537.465 46.8525 537.172 47.3652 536.785 47.8047C536.404 48.2383 535.936 48.5752 535.379 48.8154C534.822 49.0557 534.184 49.1758 533.463 49.1758C532.742 49.1758 532.101 49.0557 531.538 48.8154C530.981 48.5752 530.51 48.2383 530.123 47.8047C529.742 47.3652 529.452 46.8525 529.253 46.2666C529.054 45.6748 528.954 45.0332 528.954 44.3418ZM531.485 44.1572V44.3418C531.485 44.7402 531.521 45.1123 531.591 45.458C531.661 45.8037 531.772 46.1084 531.925 46.3721C532.083 46.6299 532.288 46.832 532.54 46.9785C532.792 47.125 533.1 47.1982 533.463 47.1982C533.814 47.1982 534.116 47.125 534.368 46.9785C534.62 46.832 534.822 46.6299 534.975 46.3721C535.127 46.1084 535.238 45.8037 535.309 45.458C535.385 45.1123 535.423 44.7402 535.423 44.3418V44.1572C535.423 43.7705 535.385 43.4072 535.309 43.0674C535.238 42.7217 535.124 42.417 534.966 42.1533C534.813 41.8838 534.611 41.6729 534.359 41.5205C534.107 41.3682 533.803 41.292 533.445 41.292C533.088 41.292 532.783 41.3682 532.531 41.5205C532.285 41.6729 532.083 41.8838 531.925 42.1533C531.772 42.417 531.661 42.7217 531.591 43.0674C531.521 43.4072 531.485 43.7705 531.485 44.1572ZM544.177 39.4902V41.2832H538.64V39.4902H544.177ZM540.011 37.1436H542.542V46.1348C542.542 46.4102 542.577 46.6211 542.647 46.7676C542.724 46.9141 542.835 47.0166 542.981 47.0752C543.128 47.1279 543.312 47.1543 543.535 47.1543C543.693 47.1543 543.834 47.1484 543.957 47.1367C544.086 47.1191 544.194 47.1016 544.282 47.084L544.291 48.9473C544.074 49.0176 543.84 49.0732 543.588 49.1143C543.336 49.1553 543.058 49.1758 542.753 49.1758C542.196 49.1758 541.71 49.085 541.294 48.9033C540.884 48.7158 540.567 48.417 540.345 48.0068C540.122 47.5967 540.011 47.0576 540.011 46.3896V37.1436ZM549.995 49.1758C549.257 49.1758 548.595 49.0586 548.009 48.8242C547.423 48.584 546.925 48.2529 546.515 47.8311C546.11 47.4092 545.8 46.9199 545.583 46.3633C545.366 45.8008 545.258 45.2031 545.258 44.5703V44.2188C545.258 43.498 545.36 42.8389 545.565 42.2412C545.771 41.6436 546.063 41.125 546.444 40.6855C546.831 40.2461 547.3 39.9092 547.851 39.6748C548.401 39.4346 549.022 39.3145 549.714 39.3145C550.388 39.3145 550.985 39.4258 551.507 39.6484C552.028 39.8711 552.465 40.1875 552.816 40.5977C553.174 41.0078 553.443 41.5 553.625 42.0742C553.807 42.6426 553.897 43.2754 553.897 43.9727V45.0273H546.339V43.3398H551.41V43.1465C551.41 42.7949 551.346 42.4814 551.217 42.2061C551.094 41.9248 550.906 41.7021 550.654 41.5381C550.402 41.374 550.08 41.292 549.688 41.292C549.354 41.292 549.066 41.3652 548.826 41.5117C548.586 41.6582 548.39 41.8633 548.237 42.127C548.091 42.3906 547.979 42.7012 547.903 43.0586C547.833 43.4102 547.798 43.7969 547.798 44.2188V44.5703C547.798 44.9512 547.851 45.3027 547.956 45.625C548.067 45.9473 548.223 46.2256 548.422 46.46C548.627 46.6943 548.873 46.876 549.16 47.0049C549.453 47.1338 549.784 47.1982 550.153 47.1982C550.61 47.1982 551.035 47.1104 551.428 46.9346C551.826 46.7529 552.169 46.4805 552.456 46.1172L553.687 47.4531C553.487 47.7402 553.215 48.0156 552.869 48.2793C552.529 48.543 552.119 48.7598 551.639 48.9297C551.158 49.0938 550.61 49.1758 549.995 49.1758Z" fill="white"/>
<g filter="url(#filter0_d_1_283)">
<path d="M626 20C626 12.268 632.268 6 640 6H826C833.732 6 840 12.268 840 20V65C840 72.732 833.732 79 826 79H640C632.268 79 626 72.732 626 65V20Z" fill="white"/>
<path d="M626.5 20C626.5 12.5442 632.544 6.5 640 6.5H826C833.456 6.5 839.5 12.5442 839.5 20V65C839.5 72.4558 833.456 78.5 826 78.5H640C632.544 78.5 626.5 72.4558 626.5 65V20Z" stroke="#EFF0F6"/>
</g>
<path d="M677.462 46.6201V48H670.686V46.6201H677.462ZM671.028 35.2031V48H669.332V35.2031H671.028ZM676.565 40.7051V42.085H670.686V40.7051H676.565ZM677.374 35.2031V36.5918H670.686V35.2031H677.374ZM680.415 38.4902L682.498 41.9531L684.607 38.4902H686.515L683.403 43.1836L686.611 48H684.73L682.533 44.4316L680.336 48H678.446L681.646 43.1836L678.543 38.4902H680.415ZM689.872 40.3184V51.6562H688.237V38.4902H689.731L689.872 40.3184ZM696.279 43.166V43.3506C696.279 44.042 696.197 44.6836 696.033 45.2754C695.869 45.8613 695.629 46.3711 695.312 46.8047C695.002 47.2383 694.618 47.5752 694.161 47.8154C693.704 48.0557 693.18 48.1758 692.588 48.1758C691.984 48.1758 691.451 48.0762 690.988 47.877C690.525 47.6777 690.133 47.3877 689.811 47.0068C689.488 46.626 689.23 46.1689 689.037 45.6357C688.85 45.1025 688.721 44.502 688.65 43.834V42.8496C688.721 42.1465 688.853 41.5166 689.046 40.96C689.239 40.4033 689.494 39.9287 689.811 39.5361C690.133 39.1377 690.522 38.8359 690.979 38.6309C691.437 38.4199 691.964 38.3145 692.562 38.3145C693.159 38.3145 693.689 38.4316 694.152 38.666C694.615 38.8945 695.005 39.2227 695.321 39.6504C695.638 40.0781 695.875 40.5908 696.033 41.1885C696.197 41.7803 696.279 42.4395 696.279 43.166ZM694.645 43.3506V43.166C694.645 42.6914 694.595 42.2461 694.495 41.8301C694.396 41.4082 694.24 41.0391 694.029 40.7227C693.824 40.4004 693.561 40.1484 693.238 39.9668C692.916 39.7793 692.532 39.6855 692.087 39.6855C691.677 39.6855 691.319 39.7559 691.015 39.8965C690.716 40.0371 690.461 40.2275 690.25 40.4678C690.039 40.7021 689.866 40.9717 689.731 41.2764C689.603 41.5752 689.506 41.8857 689.441 42.208V44.4844C689.559 44.8945 689.723 45.2812 689.934 45.6445C690.145 46.002 690.426 46.292 690.777 46.5146C691.129 46.7314 691.571 46.8398 692.104 46.8398C692.544 46.8398 692.922 46.749 693.238 46.5674C693.561 46.3799 693.824 46.125 694.029 45.8027C694.24 45.4805 694.396 45.1113 694.495 44.6953C694.595 44.2734 694.645 43.8252 694.645 43.3506ZM700.12 34.5V48H698.485V34.5H700.12ZM702.3 43.3506V43.1484C702.3 42.4629 702.399 41.8271 702.599 41.2412C702.798 40.6494 703.085 40.1367 703.46 39.7031C703.835 39.2637 704.289 38.9238 704.822 38.6836C705.355 38.4375 705.953 38.3145 706.615 38.3145C707.283 38.3145 707.884 38.4375 708.417 38.6836C708.956 38.9238 709.413 39.2637 709.788 39.7031C710.169 40.1367 710.459 40.6494 710.658 41.2412C710.857 41.8271 710.957 42.4629 710.957 43.1484V43.3506C710.957 44.0361 710.857 44.6719 710.658 45.2578C710.459 45.8438 710.169 46.3564 709.788 46.7959C709.413 47.2295 708.959 47.5693 708.426 47.8154C707.898 48.0557 707.301 48.1758 706.633 48.1758C705.965 48.1758 705.364 48.0557 704.831 47.8154C704.298 47.5693 703.841 47.2295 703.46 46.7959C703.085 46.3564 702.798 45.8438 702.599 45.2578C702.399 44.6719 702.3 44.0361 702.3 43.3506ZM703.926 43.1484V43.3506C703.926 43.8252 703.981 44.2734 704.093 44.6953C704.204 45.1113 704.371 45.4805 704.594 45.8027C704.822 46.125 705.106 46.3799 705.446 46.5674C705.786 46.749 706.182 46.8398 706.633 46.8398C707.078 46.8398 707.468 46.749 707.802 46.5674C708.142 46.3799 708.423 46.125 708.646 45.8027C708.868 45.4805 709.035 45.1113 709.146 44.6953C709.264 44.2734 709.322 43.8252 709.322 43.3506V43.1484C709.322 42.6797 709.264 42.2373 709.146 41.8213C709.035 41.3994 708.865 41.0273 708.637 40.7051C708.414 40.377 708.133 40.1191 707.793 39.9316C707.459 39.7441 707.066 39.6504 706.615 39.6504C706.17 39.6504 705.777 39.7441 705.438 39.9316C705.104 40.1191 704.822 40.377 704.594 40.7051C704.371 41.0273 704.204 41.3994 704.093 41.8213C703.981 42.2373 703.926 42.6797 703.926 43.1484ZM714.622 39.9844V48H712.996V38.4902H714.578L714.622 39.9844ZM717.593 38.4375L717.584 39.9492C717.449 39.9199 717.32 39.9023 717.197 39.8965C717.08 39.8848 716.945 39.8789 716.793 39.8789C716.418 39.8789 716.087 39.9375 715.8 40.0547C715.513 40.1719 715.27 40.3359 715.07 40.5469C714.871 40.7578 714.713 41.0098 714.596 41.3027C714.484 41.5898 714.411 41.9062 714.376 42.252L713.919 42.5156C713.919 41.9414 713.975 41.4023 714.086 40.8984C714.203 40.3945 714.382 39.9492 714.622 39.5625C714.862 39.1699 715.167 38.8652 715.536 38.6484C715.911 38.4258 716.356 38.3145 716.872 38.3145C716.989 38.3145 717.124 38.3291 717.276 38.3584C717.429 38.3818 717.534 38.4082 717.593 38.4375ZM722.866 48.1758C722.204 48.1758 721.604 48.0645 721.064 47.8418C720.531 47.6133 720.071 47.2939 719.685 46.8838C719.304 46.4736 719.011 45.9873 718.806 45.4248C718.601 44.8623 718.498 44.2471 718.498 43.5791V43.21C718.498 42.4365 718.612 41.748 718.841 41.1445C719.069 40.5352 719.38 40.0195 719.772 39.5977C720.165 39.1758 720.61 38.8564 721.108 38.6396C721.606 38.4229 722.122 38.3145 722.655 38.3145C723.335 38.3145 723.921 38.4316 724.413 38.666C724.911 38.9004 725.318 39.2285 725.635 39.6504C725.951 40.0664 726.186 40.5586 726.338 41.127C726.49 41.6895 726.566 42.3047 726.566 42.9727V43.7021H719.465V42.375H724.94V42.252C724.917 41.8301 724.829 41.4199 724.677 41.0215C724.53 40.623 724.296 40.2949 723.974 40.0371C723.651 39.7793 723.212 39.6504 722.655 39.6504C722.286 39.6504 721.946 39.7295 721.636 39.8877C721.325 40.04 721.059 40.2686 720.836 40.5732C720.613 40.8779 720.44 41.25 720.317 41.6895C720.194 42.1289 720.133 42.6357 720.133 43.21V43.5791C720.133 44.0303 720.194 44.4551 720.317 44.8535C720.446 45.2461 720.631 45.5918 720.871 45.8906C721.117 46.1895 721.413 46.4238 721.759 46.5938C722.11 46.7637 722.509 46.8486 722.954 46.8486C723.528 46.8486 724.015 46.7314 724.413 46.4971C724.812 46.2627 725.16 45.9492 725.459 45.5566L726.443 46.3389C726.238 46.6494 725.978 46.9453 725.661 47.2266C725.345 47.5078 724.955 47.7363 724.492 47.9121C724.035 48.0879 723.493 48.1758 722.866 48.1758ZM738.467 45.4775C738.467 45.2432 738.414 45.0264 738.309 44.8271C738.209 44.6221 738.001 44.4375 737.685 44.2734C737.374 44.1035 736.905 43.957 736.278 43.834C735.751 43.7227 735.273 43.5908 734.846 43.4385C734.424 43.2861 734.063 43.1016 733.765 42.8848C733.472 42.668 733.246 42.4131 733.088 42.1201C732.93 41.8271 732.851 41.4844 732.851 41.0918C732.851 40.7168 732.933 40.3623 733.097 40.0283C733.267 39.6943 733.504 39.3984 733.809 39.1406C734.119 38.8828 734.491 38.6807 734.925 38.5342C735.358 38.3877 735.842 38.3145 736.375 38.3145C737.137 38.3145 737.787 38.4492 738.326 38.7188C738.865 38.9883 739.278 39.3486 739.565 39.7998C739.853 40.2451 739.996 40.7402 739.996 41.2852H738.37C738.37 41.0215 738.291 40.7666 738.133 40.5205C737.98 40.2686 737.755 40.0605 737.456 39.8965C737.163 39.7324 736.803 39.6504 736.375 39.6504C735.924 39.6504 735.558 39.7207 735.276 39.8613C735.001 39.9961 734.799 40.1689 734.67 40.3799C734.547 40.5908 734.485 40.8135 734.485 41.0479C734.485 41.2236 734.515 41.3818 734.573 41.5225C734.638 41.6572 734.749 41.7832 734.907 41.9004C735.065 42.0117 735.288 42.1172 735.575 42.2168C735.862 42.3164 736.229 42.416 736.674 42.5156C737.453 42.6914 738.095 42.9023 738.599 43.1484C739.103 43.3945 739.478 43.6963 739.724 44.0537C739.97 44.4111 740.093 44.8447 740.093 45.3545C740.093 45.7705 740.005 46.1514 739.829 46.4971C739.659 46.8428 739.41 47.1416 739.082 47.3936C738.76 47.6396 738.373 47.833 737.922 47.9736C737.477 48.1084 736.976 48.1758 736.419 48.1758C735.581 48.1758 734.872 48.0264 734.292 47.7275C733.712 47.4287 733.272 47.042 732.974 46.5674C732.675 46.0928 732.525 45.5918 732.525 45.0645H734.16C734.184 45.5098 734.312 45.8643 734.547 46.1279C734.781 46.3857 735.068 46.5703 735.408 46.6816C735.748 46.7871 736.085 46.8398 736.419 46.8398C736.864 46.8398 737.236 46.7812 737.535 46.6641C737.84 46.5469 738.071 46.3857 738.229 46.1807C738.388 45.9756 738.467 45.7412 738.467 45.4775ZM746.175 48.1758C745.513 48.1758 744.912 48.0645 744.373 47.8418C743.84 47.6133 743.38 47.2939 742.993 46.8838C742.612 46.4736 742.319 45.9873 742.114 45.4248C741.909 44.8623 741.807 44.2471 741.807 43.5791V43.21C741.807 42.4365 741.921 41.748 742.149 41.1445C742.378 40.5352 742.688 40.0195 743.081 39.5977C743.474 39.1758 743.919 38.8564 744.417 38.6396C744.915 38.4229 745.431 38.3145 745.964 38.3145C746.644 38.3145 747.229 38.4316 747.722 38.666C748.22 38.9004 748.627 39.2285 748.943 39.6504C749.26 40.0664 749.494 40.5586 749.646 41.127C749.799 41.6895 749.875 42.3047 749.875 42.9727V43.7021H742.773V42.375H748.249V42.252C748.226 41.8301 748.138 41.4199 747.985 41.0215C747.839 40.623 747.604 40.2949 747.282 40.0371C746.96 39.7793 746.521 39.6504 745.964 39.6504C745.595 39.6504 745.255 39.7295 744.944 39.8877C744.634 40.04 744.367 40.2686 744.145 40.5732C743.922 40.8779 743.749 41.25 743.626 41.6895C743.503 42.1289 743.441 42.6357 743.441 43.21V43.5791C743.441 44.0303 743.503 44.4551 743.626 44.8535C743.755 45.2461 743.939 45.5918 744.18 45.8906C744.426 46.1895 744.722 46.4238 745.067 46.5938C745.419 46.7637 745.817 46.8486 746.263 46.8486C746.837 46.8486 747.323 46.7314 747.722 46.4971C748.12 46.2627 748.469 45.9492 748.768 45.5566L749.752 46.3389C749.547 46.6494 749.286 46.9453 748.97 47.2266C748.653 47.5078 748.264 47.7363 747.801 47.9121C747.344 48.0879 746.802 48.1758 746.175 48.1758ZM753.399 39.9844V48H751.773V38.4902H753.355L753.399 39.9844ZM756.37 38.4375L756.361 39.9492C756.227 39.9199 756.098 39.9023 755.975 39.8965C755.857 39.8848 755.723 39.8789 755.57 39.8789C755.195 39.8789 754.864 39.9375 754.577 40.0547C754.29 40.1719 754.047 40.3359 753.848 40.5469C753.648 40.7578 753.49 41.0098 753.373 41.3027C753.262 41.5898 753.188 41.9062 753.153 42.252L752.696 42.5156C752.696 41.9414 752.752 41.4023 752.863 40.8984C752.98 40.3945 753.159 39.9492 753.399 39.5625C753.64 39.1699 753.944 38.8652 754.313 38.6484C754.688 38.4258 755.134 38.3145 755.649 38.3145C755.767 38.3145 755.901 38.3291 756.054 38.3584C756.206 38.3818 756.312 38.4082 756.37 38.4375ZM760.923 46.5322L763.524 38.4902H765.186L761.767 48H760.677L760.923 46.5322ZM758.752 38.4902L761.433 46.5762L761.617 48H760.527L757.082 38.4902H758.752ZM768.517 38.4902V48H766.882V38.4902H768.517ZM766.759 35.9678C766.759 35.7041 766.838 35.4814 766.996 35.2998C767.16 35.1182 767.4 35.0273 767.717 35.0273C768.027 35.0273 768.265 35.1182 768.429 35.2998C768.599 35.4814 768.684 35.7041 768.684 35.9678C768.684 36.2197 768.599 36.4365 768.429 36.6182C768.265 36.7939 768.027 36.8818 767.717 36.8818C767.4 36.8818 767.16 36.7939 766.996 36.6182C766.838 36.4365 766.759 36.2197 766.759 35.9678ZM774.933 46.8398C775.319 46.8398 775.677 46.7607 776.005 46.6025C776.333 46.4443 776.603 46.2275 776.813 45.9521C777.024 45.6709 777.145 45.3516 777.174 44.9941H778.721C778.691 45.5566 778.501 46.0811 778.149 46.5674C777.804 47.0479 777.35 47.4375 776.787 47.7363C776.225 48.0293 775.606 48.1758 774.933 48.1758C774.218 48.1758 773.594 48.0498 773.061 47.7979C772.533 47.5459 772.094 47.2002 771.742 46.7607C771.396 46.3213 771.136 45.8174 770.96 45.249C770.79 44.6748 770.705 44.0684 770.705 43.4297V43.0605C770.705 42.4219 770.79 41.8184 770.96 41.25C771.136 40.6758 771.396 40.1689 771.742 39.7295C772.094 39.29 772.533 38.9443 773.061 38.6924C773.594 38.4404 774.218 38.3145 774.933 38.3145C775.677 38.3145 776.327 38.4668 776.884 38.7715C777.44 39.0703 777.877 39.4805 778.193 40.002C778.516 40.5176 778.691 41.1035 778.721 41.7598H777.174C777.145 41.3672 777.033 41.0127 776.84 40.6963C776.652 40.3799 776.395 40.1279 776.066 39.9404C775.744 39.7471 775.366 39.6504 774.933 39.6504C774.435 39.6504 774.016 39.75 773.676 39.9492C773.342 40.1426 773.075 40.4062 772.876 40.7402C772.683 41.0684 772.542 41.4346 772.454 41.8389C772.372 42.2373 772.331 42.6445 772.331 43.0605V43.4297C772.331 43.8457 772.372 44.2559 772.454 44.6602C772.536 45.0645 772.674 45.4307 772.867 45.7588C773.066 46.0869 773.333 46.3506 773.667 46.5498C774.007 46.7432 774.429 46.8398 774.933 46.8398ZM784.495 48.1758C783.833 48.1758 783.232 48.0645 782.693 47.8418C782.16 47.6133 781.7 47.2939 781.313 46.8838C780.933 46.4736 780.64 45.9873 780.435 45.4248C780.229 44.8623 780.127 44.2471 780.127 43.5791V43.21C780.127 42.4365 780.241 41.748 780.47 41.1445C780.698 40.5352 781.009 40.0195 781.401 39.5977C781.794 39.1758 782.239 38.8564 782.737 38.6396C783.235 38.4229 783.751 38.3145 784.284 38.3145C784.964 38.3145 785.55 38.4316 786.042 38.666C786.54 38.9004 786.947 39.2285 787.264 39.6504C787.58 40.0664 787.814 40.5586 787.967 41.127C788.119 41.6895 788.195 42.3047 788.195 42.9727V43.7021H781.094V42.375H786.569V42.252C786.546 41.8301 786.458 41.4199 786.306 41.0215C786.159 40.623 785.925 40.2949 785.603 40.0371C785.28 39.7793 784.841 39.6504 784.284 39.6504C783.915 39.6504 783.575 39.7295 783.265 39.8877C782.954 40.04 782.688 40.2686 782.465 40.5732C782.242 40.8779 782.069 41.25 781.946 41.6895C781.823 42.1289 781.762 42.6357 781.762 43.21V43.5791C781.762 44.0303 781.823 44.4551 781.946 44.8535C782.075 45.2461 782.26 45.5918 782.5 45.8906C782.746 46.1895 783.042 46.4238 783.388 46.5938C783.739 46.7637 784.138 46.8486 784.583 46.8486C785.157 46.8486 785.644 46.7314 786.042 46.4971C786.44 46.2627 786.789 45.9492 787.088 45.5566L788.072 46.3389C787.867 46.6494 787.606 46.9453 787.29 47.2266C786.974 47.5078 786.584 47.7363 786.121 47.9121C785.664 48.0879 785.122 48.1758 784.495 48.1758ZM795.631 45.4775C795.631 45.2432 795.578 45.0264 795.473 44.8271C795.373 44.6221 795.165 44.4375 794.849 44.2734C794.538 44.1035 794.069 43.957 793.442 43.834C792.915 43.7227 792.438 43.5908 792.01 43.4385C791.588 43.2861 791.228 43.1016 790.929 42.8848C790.636 42.668 790.41 42.4131 790.252 42.1201C790.094 41.8271 790.015 41.4844 790.015 41.0918C790.015 40.7168 790.097 40.3623 790.261 40.0283C790.431 39.6943 790.668 39.3984 790.973 39.1406C791.283 38.8828 791.655 38.6807 792.089 38.5342C792.522 38.3877 793.006 38.3145 793.539 38.3145C794.301 38.3145 794.951 38.4492 795.49 38.7188C796.029 38.9883 796.442 39.3486 796.729 39.7998C797.017 40.2451 797.16 40.7402 797.16 41.2852H795.534C795.534 41.0215 795.455 40.7666 795.297 40.5205C795.145 40.2686 794.919 40.0605 794.62 39.8965C794.327 39.7324 793.967 39.6504 793.539 39.6504C793.088 39.6504 792.722 39.7207 792.44 39.8613C792.165 39.9961 791.963 40.1689 791.834 40.3799C791.711 40.5908 791.649 40.8135 791.649 41.0479C791.649 41.2236 791.679 41.3818 791.737 41.5225C791.802 41.6572 791.913 41.7832 792.071 41.9004C792.229 42.0117 792.452 42.1172 792.739 42.2168C793.026 42.3164 793.393 42.416 793.838 42.5156C794.617 42.6914 795.259 42.9023 795.763 43.1484C796.267 43.3945 796.642 43.6963 796.888 44.0537C797.134 44.4111 797.257 44.8447 797.257 45.3545C797.257 45.7705 797.169 46.1514 796.993 46.4971C796.823 46.8428 796.574 47.1416 796.246 47.3936C795.924 47.6396 795.537 47.833 795.086 47.9736C794.641 48.1084 794.14 48.1758 793.583 48.1758C792.745 48.1758 792.036 48.0264 791.456 47.7275C790.876 47.4287 790.437 47.042 790.138 46.5674C789.839 46.0928 789.689 45.5918 789.689 45.0645H791.324C791.348 45.5098 791.477 45.8643 791.711 46.1279C791.945 46.3857 792.232 46.5703 792.572 46.6816C792.912 46.7871 793.249 46.8398 793.583 46.8398C794.028 46.8398 794.4 46.7812 794.699 46.6641C795.004 46.5469 795.235 46.3857 795.394 46.1807C795.552 45.9756 795.631 45.7412 795.631 45.4775Z" fill="#211F54"/>
<defs>
<filter id="filter0_d_1_283" x="616" y="0" width="234" height="93" filterUnits="userSpaceOnUse" color-interpolation-filters="sRGB">
<feFlood flood-opacity="0" result="BackgroundImageFix"/>
<feColorMatrix in="SourceAlpha" type="matrix" values="0 0 0 0 0 0 0 0 0 0 0 0 0 0 0 0 0 0 127 0" result="hardAlpha"/>
<feOffset dy="4"/>
<feGaussianBlur stdDeviation="5"/>
<feColorMatrix type="matrix" values="0 0 0 0 0.0784314 0 0 0 0 0.0784314 0 0 0 0 0.168627 0 0 0 0.04 0"/>
<feBlend mode="normal" in2="BackgroundImageFix" result="effect1_dropShadow_1_283"/>
<feBlend mode="normal" in="SourceGraphic" in2="effect1_dropShadow_1_283" result="shape"/>
</filter>
</defs>
</svg>
