<svg width="63" height="30" viewBox="0 0 63 30" fill="none" xmlns="http://www.w3.org/2000/svg">
<path d="M9.21094 16.9307H10.8984C10.8105 17.7393 10.5791 18.4629 10.2041 19.1016C9.8291 19.7402 9.29883 20.2471 8.61328 20.6221C7.92773 20.9912 7.07227 21.1758 6.04688 21.1758C5.29688 21.1758 4.61426 21.0352 3.99902 20.7539C3.38965 20.4727 2.86523 20.0742 2.42578 19.5586C1.98633 19.0371 1.64648 18.4131 1.40625 17.6865C1.17188 16.9541 1.05469 16.1396 1.05469 15.2432V13.9688C1.05469 13.0723 1.17188 12.2607 1.40625 11.5342C1.64648 10.8018 1.98926 10.1748 2.43457 9.65332C2.88574 9.13184 3.42773 8.73047 4.06055 8.44922C4.69336 8.16797 5.40527 8.02734 6.19629 8.02734C7.16309 8.02734 7.98047 8.20898 8.64844 8.57227C9.31641 8.93555 9.83496 9.43945 10.2041 10.084C10.5791 10.7227 10.8105 11.4639 10.8984 12.3076H9.21094C9.12891 11.71 8.97656 11.1973 8.75391 10.7695C8.53125 10.3359 8.21484 10.002 7.80469 9.76758C7.39453 9.5332 6.8584 9.41602 6.19629 9.41602C5.62793 9.41602 5.12695 9.52441 4.69336 9.74121C4.26562 9.95801 3.90527 10.2656 3.6123 10.6641C3.3252 11.0625 3.1084 11.54 2.96191 12.0967C2.81543 12.6533 2.74219 13.2715 2.74219 13.9512V15.2432C2.74219 15.8701 2.80664 16.459 2.93555 17.0098C3.07031 17.5605 3.27246 18.0439 3.54199 18.46C3.81152 18.876 4.1543 19.2041 4.57031 19.4443C4.98633 19.6787 5.47852 19.7959 6.04688 19.7959C6.76758 19.7959 7.3418 19.6816 7.76953 19.4531C8.19727 19.2246 8.51953 18.8965 8.73633 18.4688C8.95898 18.041 9.11719 17.5283 9.21094 16.9307ZM18.5713 19.374V14.4785C18.5713 14.1035 18.4951 13.7783 18.3428 13.5029C18.1963 13.2217 17.9736 13.0049 17.6748 12.8525C17.376 12.7002 17.0068 12.624 16.5674 12.624C16.1572 12.624 15.7969 12.6943 15.4863 12.835C15.1816 12.9756 14.9414 13.1602 14.7656 13.3887C14.5957 13.6172 14.5107 13.8633 14.5107 14.127H12.8848C12.8848 13.7871 12.9727 13.4502 13.1484 13.1162C13.3242 12.7822 13.5762 12.4805 13.9043 12.2109C14.2383 11.9355 14.6367 11.7188 15.0996 11.5605C15.5684 11.3965 16.0898 11.3145 16.6641 11.3145C17.3555 11.3145 17.9648 11.4316 18.4922 11.666C19.0254 11.9004 19.4414 12.2549 19.7402 12.7295C20.0449 13.1982 20.1973 13.7871 20.1973 14.4961V18.9258C20.1973 19.2422 20.2236 19.5791 20.2764 19.9365C20.335 20.2939 20.4199 20.6016 20.5312 20.8594V21H18.835C18.7529 20.8125 18.6885 20.5635 18.6416 20.2529C18.5947 19.9365 18.5713 19.6436 18.5713 19.374ZM18.8525 15.2344L18.8701 16.377H17.2266C16.7637 16.377 16.3506 16.415 15.9873 16.4912C15.624 16.5615 15.3193 16.6699 15.0732 16.8164C14.8271 16.9629 14.6396 17.1475 14.5107 17.3701C14.3818 17.5869 14.3174 17.8418 14.3174 18.1348C14.3174 18.4336 14.3848 18.7061 14.5195 18.9521C14.6543 19.1982 14.8564 19.3945 15.126 19.541C15.4014 19.6816 15.7383 19.752 16.1367 19.752C16.6348 19.752 17.0742 19.6465 17.4551 19.4355C17.8359 19.2246 18.1377 18.9668 18.3604 18.6621C18.5889 18.3574 18.7119 18.0615 18.7295 17.7744L19.4238 18.5566C19.3828 18.8027 19.2715 19.0752 19.0898 19.374C18.9082 19.6729 18.665 19.96 18.3604 20.2354C18.0615 20.5049 17.7041 20.7305 17.2881 20.9121C16.8779 21.0879 16.415 21.1758 15.8994 21.1758C15.2549 21.1758 14.6895 21.0498 14.2031 20.7979C13.7227 20.5459 13.3477 20.209 13.0781 19.7871C12.8145 19.3594 12.6826 18.8818 12.6826 18.3545C12.6826 17.8447 12.7822 17.3965 12.9814 17.0098C13.1807 16.6172 13.4678 16.292 13.8428 16.0342C14.2178 15.7705 14.6689 15.5713 15.1963 15.4365C15.7236 15.3018 16.3125 15.2344 16.9629 15.2344H18.8525ZM24.3809 12.9844V21H22.7549V11.4902H24.3369L24.3809 12.9844ZM27.3516 11.4375L27.3428 12.9492C27.208 12.9199 27.0791 12.9023 26.9561 12.8965C26.8389 12.8848 26.7041 12.8789 26.5518 12.8789C26.1768 12.8789 25.8457 12.9375 25.5586 13.0547C25.2715 13.1719 25.0283 13.3359 24.8291 13.5469C24.6299 13.7578 24.4717 14.0098 24.3545 14.3027C24.2432 14.5898 24.1699 14.9062 24.1348 15.252L23.6777 15.5156C23.6777 14.9414 23.7334 14.4023 23.8447 13.8984C23.9619 13.3945 24.1406 12.9492 24.3809 12.5625C24.6211 12.1699 24.9258 11.8652 25.2949 11.6484C25.6699 11.4258 26.1152 11.3145 26.6309 11.3145C26.748 11.3145 26.8828 11.3291 27.0352 11.3584C27.1875 11.3818 27.293 11.4082 27.3516 11.4375ZM33.2754 11.4902V12.7383H28.1338V11.4902H33.2754ZM29.874 9.17871H31.5V18.6445C31.5 18.9668 31.5498 19.21 31.6494 19.374C31.749 19.5381 31.8779 19.6465 32.0361 19.6992C32.1943 19.752 32.3643 19.7783 32.5459 19.7783C32.6807 19.7783 32.8213 19.7666 32.9678 19.7432C33.1201 19.7139 33.2344 19.6904 33.3105 19.6729L33.3193 21C33.1904 21.041 33.0205 21.0791 32.8096 21.1143C32.6045 21.1553 32.3555 21.1758 32.0625 21.1758C31.6641 21.1758 31.2979 21.0967 30.9639 20.9385C30.6299 20.7803 30.3633 20.5166 30.1641 20.1475C29.9707 19.7725 29.874 19.2686 29.874 18.6357V9.17871ZM39.5859 15.8848V15.7969C39.5859 14.5195 39.7295 13.3652 40.0166 12.334C40.3037 11.2969 40.6699 10.3887 41.1152 9.60938C41.5605 8.83008 42.0293 8.18555 42.5215 7.67578C43.0137 7.16016 43.4678 6.78809 43.8838 6.55957L44.2266 7.63184C43.8809 7.89551 43.5293 8.25879 43.1719 8.72168C42.8203 9.18457 42.4951 9.75293 42.1963 10.4268C41.9033 11.1006 41.666 11.8828 41.4844 12.7734C41.3027 13.6641 41.2119 14.666 41.2119 15.7793V15.9023C41.2119 17.0156 41.3027 18.0205 41.4844 18.917C41.666 19.8076 41.9033 20.5928 42.1963 21.2725C42.4951 21.9521 42.8203 22.5293 43.1719 23.0039C43.5293 23.4844 43.8809 23.8652 44.2266 24.1465L43.8838 25.1309C43.4678 24.9023 43.0137 24.5303 42.5215 24.0146C42.0293 23.5049 41.5605 22.8604 41.1152 22.0811C40.6699 21.3076 40.3037 20.4023 40.0166 19.3652C39.7295 18.3281 39.5859 17.168 39.5859 15.8848Z" fill="#211F54"/>
<path d="M62.9834 15.7969V15.8848C62.9834 17.168 62.8398 18.3281 62.5527 19.3652C62.2656 20.4023 61.8994 21.3076 61.4541 22.0811C61.0088 22.8604 60.54 23.5049 60.0479 24.0146C59.5557 24.5303 59.1016 24.9023 58.6855 25.1309L58.3428 24.1465C58.6885 23.8828 59.0371 23.5137 59.3887 23.0391C59.7402 22.5703 60.0654 21.9902 60.3643 21.2988C60.6631 20.6133 60.9033 19.8223 61.085 18.9258C61.2666 18.0234 61.3574 17.0156 61.3574 15.9023V15.7793C61.3574 14.666 61.2607 13.6611 61.0674 12.7646C60.874 11.8623 60.6221 11.0684 60.3115 10.3828C60.0068 9.69727 59.6787 9.12012 59.3271 8.65137C58.9814 8.17676 58.6533 7.81055 58.3428 7.55273L58.6855 6.55957C59.1016 6.78809 59.5557 7.16016 60.0479 7.67578C60.54 8.18555 61.0088 8.83008 61.4541 9.60938C61.8994 10.3887 62.2656 11.2969 62.5527 12.334C62.8398 13.3652 62.9834 14.5195 62.9834 15.7969Z" fill="#211F54"/>
<path d="M56.5342 13.582V15.5332C56.5342 16.582 56.4404 17.4668 56.2529 18.1875C56.0654 18.9082 55.7959 19.4883 55.4443 19.9277C55.0928 20.3672 54.668 20.6865 54.1699 20.8857C53.6777 21.0791 53.1211 21.1758 52.5 21.1758C52.0078 21.1758 51.5537 21.1143 51.1377 20.9912C50.7217 20.8682 50.3467 20.6719 50.0127 20.4023C49.6846 20.127 49.4033 19.7695 49.1689 19.3301C48.9346 18.8906 48.7559 18.3574 48.6328 17.7305C48.5098 17.1035 48.4482 16.3711 48.4482 15.5332V13.582C48.4482 12.5332 48.542 11.6543 48.7295 10.9453C48.9229 10.2363 49.1953 9.66797 49.5469 9.24023C49.8984 8.80664 50.3203 8.49609 50.8125 8.30859C51.3105 8.12109 51.8672 8.02734 52.4824 8.02734C52.9805 8.02734 53.4375 8.08887 53.8535 8.21191C54.2754 8.3291 54.6504 8.51953 54.9785 8.7832C55.3066 9.04102 55.585 9.38672 55.8135 9.82031C56.0479 10.248 56.2266 10.7725 56.3496 11.3936C56.4727 12.0146 56.5342 12.7441 56.5342 13.582ZM54.8994 15.7969V13.3096C54.8994 12.7354 54.8643 12.2314 54.7939 11.7979C54.7295 11.3584 54.6328 10.9834 54.5039 10.6729C54.375 10.3623 54.2109 10.1104 54.0117 9.91699C53.8184 9.72363 53.5928 9.58301 53.335 9.49512C53.083 9.40137 52.7988 9.35449 52.4824 9.35449C52.0957 9.35449 51.7529 9.42773 51.4541 9.57422C51.1553 9.71484 50.9033 9.94043 50.6982 10.251C50.499 10.5615 50.3467 10.9688 50.2412 11.4727C50.1357 11.9766 50.083 12.5889 50.083 13.3096V15.7969C50.083 16.3711 50.1152 16.8779 50.1797 17.3174C50.25 17.7568 50.3525 18.1377 50.4873 18.46C50.6221 18.7764 50.7861 19.0371 50.9795 19.2422C51.1729 19.4473 51.3955 19.5996 51.6475 19.6992C51.9053 19.793 52.1895 19.8398 52.5 19.8398C52.8984 19.8398 53.2471 19.7637 53.5459 19.6113C53.8447 19.459 54.0938 19.2217 54.293 18.8994C54.498 18.5713 54.6504 18.1523 54.75 17.6426C54.8496 17.127 54.8994 16.5117 54.8994 15.7969Z" fill="#211F54"/>
</svg>
