<svg width="760" height="92" viewBox="0 0 760 92" fill="none" xmlns="http://www.w3.org/2000/svg">
<g filter="url(#filter0_d_1_295)">
<g clip-path="url(#clip0_1_295)">
<path d="M46 77.5C65.6061 77.5 81.5 61.6061 81.5 42C81.5 22.3939 65.6061 6.5 46 6.5C26.3939 6.5 10.5 22.3939 10.5 42C10.5 61.6061 26.3939 77.5 46 77.5Z" fill="white" stroke="#DCDDEB"/>
<path d="M45.3184 50.014C43.0479 47.7435 43.0479 44.0638 45.3184 41.7933C46.4528 40.6607 47.9412 40.0917 49.4279 40.0917C50.9146 40.0917 52.403 40.6589 53.5374 41.7933C53.784 42.0399 53.9901 42.3076 54.1839 42.5842C54.3776 42.3094 54.5837 42.0399 54.8303 41.7933C55.9647 40.6607 57.4531 40.0917 58.9398 40.0917C60.4265 40.0917 61.9149 40.6589 63.0493 41.7933C63.1251 41.869 63.1779 41.9589 63.2501 42.0381C65.6528 37.9533 65.1384 32.6266 61.6313 29.1196C59.551 27.041 56.8225 26 54.0958 26C51.369 26 48.6405 27.041 46.5602 29.1213C46.1093 29.5722 45.7306 30.0655 45.3765 30.571C45.0225 30.0655 44.6438 29.5722 44.1928 29.1213C42.1126 27.041 39.384 26 36.6573 26C33.9306 26 31.202 27.041 29.1218 29.1213C24.9594 33.2837 24.9594 40.0301 29.1218 44.1924C30.9308 46.0014 41.8765 55.1064 42.6357 55.8656C43.3931 56.623 44.3848 57 45.3765 57C46.3682 57 47.36 56.6213 48.1174 55.8656C48.2953 55.6877 49.0439 55.043 50.0902 54.1517C48.2055 52.5523 45.8997 50.5953 45.3184 50.014Z" fill="#0075FF"/>
<path d="M63.0495 41.7946C61.9151 40.6603 60.4267 40.0913 58.94 40.0913C57.4533 40.0913 55.9649 40.6585 54.8305 41.7929C54.5839 42.0395 54.3778 42.3072 54.1841 42.5838C53.9903 42.3072 53.7842 42.0395 53.5376 41.7929C52.4032 40.6603 50.9148 40.0913 49.4281 40.0913C47.9414 40.0913 46.453 40.6585 45.3186 41.7929C43.0481 44.0634 43.0481 47.7431 45.3186 50.0136C46.305 51.0001 52.2746 55.9656 52.6886 56.3796C53.1025 56.7935 53.6433 56.9978 54.1841 56.9978C54.7248 56.9978 55.2656 56.7917 55.6796 56.3796C56.0953 55.9656 62.0649 50.9983 63.0495 50.0136C65.32 47.7431 65.32 44.0652 63.0495 41.7946Z" fill="#123578"/>
</g>
</g>
<path d="M106.188 22.3828H107.688C107.609 23.1016 107.404 23.7448 107.07 24.3125C106.737 24.8802 106.266 25.3307 105.656 25.6641C105.047 25.9922 104.286 26.1562 103.375 26.1562C102.708 26.1562 102.102 26.0312 101.555 25.7812C101.013 25.5312 100.547 25.1771 100.156 24.7188C99.7656 24.2552 99.4635 23.7005 99.25 23.0547C99.0417 22.4036 98.9375 21.6797 98.9375 20.8828V19.75C98.9375 18.9531 99.0417 18.2318 99.25 17.5859C99.4635 16.9349 99.7682 16.3776 100.164 15.9141C100.565 15.4505 101.047 15.0938 101.609 14.8438C102.172 14.5938 102.805 14.4688 103.508 14.4688C104.367 14.4688 105.094 14.6302 105.688 14.9531C106.281 15.276 106.742 15.724 107.07 16.2969C107.404 16.8646 107.609 17.5234 107.688 18.2734H106.188C106.115 17.7422 105.979 17.2865 105.781 16.9062C105.583 16.5208 105.302 16.224 104.938 16.0156C104.573 15.8073 104.096 15.7031 103.508 15.7031C103.003 15.7031 102.557 15.7995 102.172 15.9922C101.792 16.1849 101.471 16.4583 101.211 16.8125C100.956 17.1667 100.763 17.5911 100.633 18.0859C100.503 18.5807 100.438 19.1302 100.438 19.7344V20.8828C100.438 21.4401 100.495 21.9635 100.609 22.4531C100.729 22.9427 100.909 23.3724 101.148 23.7422C101.388 24.112 101.693 24.4036 102.062 24.6172C102.432 24.8255 102.87 24.9297 103.375 24.9297C104.016 24.9297 104.526 24.8281 104.906 24.625C105.286 24.4219 105.573 24.1302 105.766 23.75C105.964 23.3698 106.104 22.9141 106.188 22.3828ZM118.241 24.7734V26H112.553V24.7734H118.241ZM112.85 14.625V26H111.342V14.625H112.85ZM123.184 14.625V26H121.677V14.625H123.184ZM134.753 24.7734V26H128.73V24.7734H134.753ZM129.034 14.625V26H127.527V14.625H129.034ZM133.956 19.5156V20.7422H128.73V19.5156H133.956ZM134.675 14.625V15.8594H128.73V14.625H134.675ZM146.97 14.625V26H145.455L139.728 17.2266V26H138.22V14.625H139.728L145.478 23.4219V14.625H146.97ZM155.211 14.625V26H153.727V14.625H155.211ZM158.867 14.625V15.8594H150.078V14.625H158.867ZM168.092 23.125C168.092 22.8594 168.051 22.625 167.967 22.4219C167.889 22.2135 167.748 22.026 167.545 21.8594C167.347 21.6927 167.071 21.5339 166.717 21.3828C166.368 21.2318 165.926 21.0781 165.389 20.9219C164.827 20.7552 164.319 20.5703 163.866 20.3672C163.412 20.1589 163.024 19.9219 162.702 19.6562C162.379 19.3906 162.131 19.0859 161.959 18.7422C161.787 18.3984 161.702 18.0052 161.702 17.5625C161.702 17.1198 161.793 16.7109 161.975 16.3359C162.157 15.9609 162.418 15.6354 162.756 15.3594C163.1 15.0781 163.509 14.8594 163.983 14.7031C164.457 14.5469 164.985 14.4688 165.569 14.4688C166.423 14.4688 167.147 14.6328 167.741 14.9609C168.34 15.2839 168.795 15.7083 169.108 16.2344C169.42 16.7552 169.577 17.3125 169.577 17.9062H168.077C168.077 17.4792 167.985 17.1016 167.803 16.7734C167.621 16.4401 167.345 16.1797 166.975 15.9922C166.605 15.7995 166.136 15.7031 165.569 15.7031C165.032 15.7031 164.59 15.7839 164.241 15.9453C163.892 16.1068 163.631 16.3255 163.459 16.6016C163.293 16.8776 163.209 17.1927 163.209 17.5469C163.209 17.7865 163.259 18.0052 163.358 18.2031C163.462 18.3958 163.621 18.5755 163.834 18.7422C164.053 18.9089 164.329 19.0625 164.662 19.2031C165.001 19.3438 165.405 19.4792 165.873 19.6094C166.519 19.7917 167.077 19.9948 167.545 20.2188C168.014 20.4427 168.399 20.6953 168.702 20.9766C169.009 21.2526 169.235 21.5677 169.381 21.9219C169.532 22.2708 169.608 22.6667 169.608 23.1094C169.608 23.5729 169.514 23.9922 169.327 24.3672C169.139 24.7422 168.871 25.0625 168.522 25.3281C168.173 25.5938 167.754 25.7995 167.264 25.9453C166.78 26.0859 166.238 26.1562 165.639 26.1562C165.113 26.1562 164.595 26.0833 164.084 25.9375C163.579 25.7917 163.118 25.5729 162.702 25.2812C162.29 24.9896 161.959 24.6302 161.709 24.2031C161.465 23.7708 161.342 23.2708 161.342 22.7031H162.842C162.842 23.0938 162.918 23.4297 163.069 23.7109C163.22 23.987 163.426 24.2161 163.686 24.3984C163.952 24.5807 164.251 24.7161 164.584 24.8047C164.923 24.888 165.274 24.9297 165.639 24.9297C166.165 24.9297 166.61 24.8568 166.975 24.7109C167.34 24.5651 167.616 24.3568 167.803 24.0859C167.996 23.8151 168.092 23.4948 168.092 23.125Z" fill="#6E7191"/>
<path d="M103.4 50.3379H105.506C106.18 50.3379 106.736 50.224 107.174 49.9961C107.611 49.7591 107.935 49.431 108.145 49.0117C108.363 48.5833 108.473 48.0866 108.473 47.5215C108.473 47.0111 108.372 46.5599 108.172 46.168C107.98 45.7669 107.684 45.457 107.283 45.2383C106.882 45.0104 106.376 44.8965 105.766 44.8965C105.283 44.8965 104.836 44.9922 104.426 45.1836C104.016 45.375 103.688 45.6439 103.441 45.9902C103.195 46.3366 103.072 46.7559 103.072 47.248H99.1211C99.1211 46.1543 99.4128 45.2018 99.9961 44.3906C100.589 43.5794 101.382 42.946 102.375 42.4902C103.368 42.0345 104.462 41.8066 105.656 41.8066C107.005 41.8066 108.186 42.0254 109.197 42.4629C110.209 42.8913 110.997 43.5247 111.562 44.3633C112.128 45.2018 112.41 46.2409 112.41 47.4805C112.41 48.1094 112.264 48.7201 111.973 49.3125C111.681 49.8958 111.262 50.4245 110.715 50.8984C110.177 51.3633 109.521 51.737 108.746 52.0195C107.971 52.293 107.101 52.4297 106.135 52.4297H103.4V50.3379ZM103.4 53.332V51.2949H106.135C107.219 51.2949 108.172 51.418 108.992 51.6641C109.812 51.9102 110.501 52.2656 111.057 52.7305C111.613 53.1862 112.032 53.7285 112.314 54.3574C112.597 54.9772 112.738 55.6654 112.738 56.4219C112.738 57.3516 112.561 58.181 112.205 58.9102C111.85 59.6302 111.348 60.2409 110.701 60.7422C110.063 61.2435 109.316 61.6263 108.459 61.8906C107.602 62.1458 106.668 62.2734 105.656 62.2734C104.818 62.2734 103.993 62.1595 103.182 61.9316C102.38 61.6947 101.65 61.3438 100.994 60.8789C100.347 60.4049 99.8275 59.8125 99.4355 59.1016C99.0527 58.3815 98.8613 57.5293 98.8613 56.5449H102.812C102.812 57.0553 102.94 57.5111 103.195 57.9121C103.451 58.3132 103.801 58.6276 104.248 58.8555C104.704 59.0833 105.21 59.1973 105.766 59.1973C106.395 59.1973 106.932 59.0833 107.379 58.8555C107.835 58.6185 108.181 58.2904 108.418 57.8711C108.664 57.4427 108.787 56.946 108.787 56.3809C108.787 55.6517 108.655 55.0684 108.391 54.6309C108.126 54.1842 107.748 53.8561 107.256 53.6465C106.764 53.4368 106.18 53.332 105.506 53.332H103.4ZM119.342 58.6777L119.328 61.3164C119.328 62.3281 119.073 63.349 118.562 64.3789C118.061 65.4089 117.423 66.252 116.648 66.9082L114.598 65.8555C114.826 65.4362 115.049 65.0169 115.268 64.5977C115.486 64.1784 115.669 63.7181 115.814 63.2168C115.96 62.7155 116.033 62.1458 116.033 61.5078V58.6777H119.342ZM136.281 54.5625V57.6523H121.939L121.748 55.2598L130.047 42.0938H133.178L129.787 47.7676L125.658 54.5625H136.281ZM134.025 42.0938V62H130.088V42.0938H134.025ZM151.826 56.5449C151.826 57.7936 151.535 58.8464 150.951 59.7031C150.368 60.5508 149.566 61.1934 148.545 61.6309C147.533 62.0592 146.385 62.2734 145.1 62.2734C143.814 62.2734 142.661 62.0592 141.641 61.6309C140.62 61.1934 139.813 60.5508 139.221 59.7031C138.628 58.8464 138.332 57.7936 138.332 56.5449C138.332 55.7064 138.501 54.9499 138.838 54.2754C139.175 53.5918 139.645 53.0085 140.246 52.5254C140.857 52.0332 141.572 51.6595 142.393 51.4043C143.213 51.14 144.106 51.0078 145.072 51.0078C146.367 51.0078 147.524 51.2357 148.545 51.6914C149.566 52.1471 150.368 52.7897 150.951 53.6191C151.535 54.4486 151.826 55.4238 151.826 56.5449ZM147.861 56.2852C147.861 55.6745 147.743 55.1504 147.506 54.7129C147.278 54.2663 146.954 53.9245 146.535 53.6875C146.116 53.4505 145.628 53.332 145.072 53.332C144.516 53.332 144.029 53.4505 143.609 53.6875C143.19 53.9245 142.862 54.2663 142.625 54.7129C142.397 55.1504 142.283 55.6745 142.283 56.2852C142.283 56.8867 142.397 57.4062 142.625 57.8438C142.862 58.2812 143.19 58.6185 143.609 58.8555C144.038 59.0833 144.535 59.1973 145.1 59.1973C145.665 59.1973 146.152 59.0833 146.562 58.8555C146.982 58.6185 147.301 58.2812 147.52 57.8438C147.747 57.4062 147.861 56.8867 147.861 56.2852ZM151.402 47.3711C151.402 48.3828 151.133 49.2806 150.596 50.0645C150.058 50.8392 149.311 51.4453 148.354 51.8828C147.406 52.3203 146.321 52.5391 145.1 52.5391C143.869 52.5391 142.775 52.3203 141.818 51.8828C140.861 51.4453 140.114 50.8392 139.576 50.0645C139.038 49.2806 138.77 48.3828 138.77 47.3711C138.77 46.168 139.038 45.1562 139.576 44.3359C140.123 43.5065 140.87 42.8776 141.818 42.4492C142.775 42.0208 143.86 41.8066 145.072 41.8066C146.303 41.8066 147.392 42.0208 148.34 42.4492C149.297 42.8776 150.044 43.5065 150.582 44.3359C151.129 45.1562 151.402 46.168 151.402 47.3711ZM147.465 47.5488C147.465 47.0111 147.369 46.5462 147.178 46.1543C146.986 45.7533 146.713 45.4434 146.357 45.2246C146.011 45.0059 145.583 44.8965 145.072 44.8965C144.58 44.8965 144.156 45.0013 143.801 45.2109C143.454 45.4206 143.186 45.7259 142.994 46.127C142.812 46.5189 142.721 46.9928 142.721 47.5488C142.721 48.0866 142.812 48.5605 142.994 48.9707C143.186 49.3717 143.459 49.6862 143.814 49.9141C144.17 50.1419 144.598 50.2559 145.1 50.2559C145.601 50.2559 146.025 50.1419 146.371 49.9141C146.727 49.6862 146.995 49.3717 147.178 48.9707C147.369 48.5605 147.465 48.0866 147.465 47.5488ZM167.891 50.2969V53.7422C167.891 55.237 167.731 56.5267 167.412 57.6113C167.093 58.6868 166.633 59.571 166.031 60.2637C165.439 60.9473 164.732 61.4531 163.912 61.7812C163.092 62.1094 162.18 62.2734 161.178 62.2734C160.376 62.2734 159.628 62.1732 158.936 61.9727C158.243 61.763 157.618 61.4395 157.062 61.002C156.516 60.5645 156.042 60.013 155.641 59.3477C155.249 58.6732 154.948 57.8711 154.738 56.9414C154.529 56.0117 154.424 54.9453 154.424 53.7422V50.2969C154.424 48.8021 154.583 47.5215 154.902 46.4551C155.23 45.3796 155.691 44.5 156.283 43.8164C156.885 43.1328 157.596 42.6315 158.416 42.3125C159.236 41.9844 160.148 41.8203 161.15 41.8203C161.952 41.8203 162.695 41.9251 163.379 42.1348C164.072 42.3353 164.696 42.6497 165.252 43.0781C165.808 43.5065 166.282 44.0579 166.674 44.7324C167.066 45.3978 167.367 46.1953 167.576 47.125C167.786 48.0456 167.891 49.1029 167.891 50.2969ZM163.939 54.2617V49.7637C163.939 49.0436 163.898 48.4147 163.816 47.877C163.743 47.3392 163.63 46.8835 163.475 46.5098C163.32 46.127 163.128 45.8171 162.9 45.5801C162.673 45.3431 162.413 45.1699 162.121 45.0605C161.829 44.9512 161.506 44.8965 161.15 44.8965C160.704 44.8965 160.307 44.9831 159.961 45.1562C159.624 45.3294 159.337 45.6074 159.1 45.9902C158.863 46.3639 158.68 46.8652 158.553 47.4941C158.434 48.1139 158.375 48.8704 158.375 49.7637V54.2617C158.375 54.9818 158.411 55.6152 158.484 56.1621C158.566 56.709 158.685 57.1784 158.84 57.5703C159.004 57.9531 159.195 58.2676 159.414 58.5137C159.642 58.7507 159.902 58.9238 160.193 59.0332C160.494 59.1426 160.822 59.1973 161.178 59.1973C161.615 59.1973 162.003 59.1107 162.34 58.9375C162.686 58.7552 162.978 58.4727 163.215 58.0898C163.461 57.6979 163.643 57.1875 163.762 56.5586C163.88 55.9297 163.939 55.1641 163.939 54.2617ZM183.613 50.9121V54.3438H169.969V50.9121H183.613ZM178.664 45.5117V60.0039H174.932V45.5117H178.664Z" fill="#211F54"/>
<g filter="url(#filter1_d_1_295)">
<g clip-path="url(#clip1_1_295)">
<path d="M322 77.5C341.606 77.5 357.5 61.6061 357.5 42C357.5 22.3939 341.606 6.5 322 6.5C302.394 6.5 286.5 22.3939 286.5 42C286.5 61.6061 302.394 77.5 322 77.5Z" fill="white" stroke="#DCDDEB"/>
<path d="M321.602 61.2031C332.427 61.2031 341.203 52.4272 341.203 41.6016C341.203 30.7759 332.427 22 321.602 22C310.776 22 302 30.7759 302 41.6016C302 52.4272 310.776 61.2031 321.602 61.2031Z" fill="#0075FF"/>
<path d="M319.641 49.4423C319.14 49.4423 318.638 49.2502 318.256 48.868L312.375 42.9875C311.609 42.2211 311.609 40.9823 312.375 40.2158C313.141 39.4494 314.38 39.4494 315.147 40.2158L319.641 44.7105L328.056 36.2955C328.823 35.5291 330.062 35.5291 330.828 36.2955C331.594 37.0619 331.594 38.3008 330.828 39.0672L321.027 48.868C320.645 49.2502 320.143 49.4423 319.641 49.4423Z" fill="#EDF5FF"/>
</g>
</g>
<path d="M380.094 22.6797V14.625H381.594V22.6797C381.594 23.4297 381.44 24.0625 381.133 24.5781C380.826 25.0938 380.401 25.487 379.859 25.7578C379.323 26.0234 378.706 26.1562 378.008 26.1562C377.31 26.1562 376.69 26.0365 376.148 25.7969C375.607 25.5573 375.182 25.1927 374.875 24.7031C374.568 24.2135 374.414 23.5964 374.414 22.8516H375.922C375.922 23.3307 376.01 23.724 376.188 24.0312C376.365 24.3385 376.609 24.5651 376.922 24.7109C377.24 24.8568 377.602 24.9297 378.008 24.9297C378.404 24.9297 378.758 24.8464 379.07 24.6797C379.388 24.5078 379.638 24.2552 379.82 23.9219C380.003 23.5833 380.094 23.1693 380.094 22.6797ZM394.506 19.9531V20.6719C394.506 21.526 394.399 22.2917 394.186 22.9688C393.972 23.6458 393.665 24.2214 393.264 24.6953C392.863 25.1693 392.381 25.5312 391.819 25.7812C391.261 26.0312 390.636 26.1562 389.944 26.1562C389.272 26.1562 388.655 26.0312 388.092 25.7812C387.535 25.5312 387.051 25.1693 386.639 24.6953C386.233 24.2214 385.918 23.6458 385.694 22.9688C385.47 22.2917 385.358 21.526 385.358 20.6719V19.9531C385.358 19.099 385.467 18.3359 385.686 17.6641C385.91 16.987 386.225 16.4115 386.631 15.9375C387.038 15.4583 387.519 15.0938 388.077 14.8438C388.639 14.5938 389.256 14.4688 389.928 14.4688C390.621 14.4688 391.246 14.5938 391.803 14.8438C392.366 15.0938 392.847 15.4583 393.248 15.9375C393.655 16.4115 393.965 16.987 394.178 17.6641C394.397 18.3359 394.506 19.099 394.506 19.9531ZM393.014 20.6719V19.9375C393.014 19.2604 392.944 18.6615 392.803 18.1406C392.668 17.6198 392.467 17.1823 392.202 16.8281C391.936 16.474 391.61 16.2057 391.225 16.0234C390.845 15.8411 390.413 15.75 389.928 15.75C389.459 15.75 389.035 15.8411 388.655 16.0234C388.28 16.2057 387.957 16.474 387.686 16.8281C387.42 17.1823 387.215 17.6198 387.069 18.1406C386.923 18.6615 386.85 19.2604 386.85 19.9375V20.6719C386.85 21.3542 386.923 21.9583 387.069 22.4844C387.215 23.0052 387.423 23.4453 387.694 23.8047C387.97 24.1589 388.295 24.4271 388.67 24.6094C389.051 24.7917 389.475 24.8828 389.944 24.8828C390.433 24.8828 390.868 24.7917 391.248 24.6094C391.629 24.4271 391.949 24.1589 392.209 23.8047C392.475 23.4453 392.676 23.0052 392.811 22.4844C392.946 21.9583 393.014 21.3542 393.014 20.6719ZM402.419 20.6797H399.536L399.52 19.4688H402.138C402.57 19.4688 402.947 19.3958 403.27 19.25C403.593 19.1042 403.843 18.8958 404.02 18.625C404.203 18.349 404.294 18.0208 404.294 17.6406C404.294 17.224 404.213 16.8854 404.052 16.625C403.895 16.3594 403.653 16.1667 403.325 16.0469C403.002 15.9219 402.591 15.8594 402.091 15.8594H399.872V26H398.364V14.625H402.091C402.674 14.625 403.195 14.6849 403.653 14.8047C404.111 14.9193 404.499 15.1016 404.817 15.3516C405.14 15.5964 405.385 15.9089 405.552 16.2891C405.718 16.6693 405.802 17.125 405.802 17.6562C405.802 18.125 405.682 18.5495 405.442 18.9297C405.203 19.3047 404.869 19.612 404.442 19.8516C404.02 20.0911 403.526 20.2448 402.958 20.3125L402.419 20.6797ZM402.348 26H398.942L399.794 24.7734H402.348C402.828 24.7734 403.234 24.6901 403.567 24.5234C403.906 24.3568 404.164 24.1224 404.341 23.8203C404.518 23.513 404.606 23.151 404.606 22.7344C404.606 22.3125 404.531 21.9479 404.38 21.6406C404.229 21.3333 403.992 21.0964 403.669 20.9297C403.346 20.763 402.929 20.6797 402.419 20.6797H400.27L400.286 19.4688H403.223L403.544 19.9062C404.091 19.9531 404.554 20.1094 404.934 20.375C405.315 20.6354 405.604 20.9688 405.802 21.375C406.005 21.7812 406.106 22.2292 406.106 22.7188C406.106 23.4271 405.95 24.026 405.638 24.5156C405.33 25 404.895 25.3698 404.333 25.625C403.77 25.875 403.109 26 402.348 26ZM415.995 23.125C415.995 22.8594 415.954 22.625 415.87 22.4219C415.792 22.2135 415.652 22.026 415.448 21.8594C415.251 21.6927 414.974 21.5339 414.62 21.3828C414.271 21.2318 413.829 21.0781 413.292 20.9219C412.73 20.7552 412.222 20.5703 411.769 20.3672C411.316 20.1589 410.928 19.9219 410.605 19.6562C410.282 19.3906 410.034 19.0859 409.862 18.7422C409.691 18.3984 409.605 18.0052 409.605 17.5625C409.605 17.1198 409.696 16.7109 409.878 16.3359C410.06 15.9609 410.321 15.6354 410.659 15.3594C411.003 15.0781 411.412 14.8594 411.886 14.7031C412.36 14.5469 412.889 14.4688 413.472 14.4688C414.326 14.4688 415.05 14.6328 415.644 14.9609C416.243 15.2839 416.698 15.7083 417.011 16.2344C417.323 16.7552 417.48 17.3125 417.48 17.9062H415.98C415.98 17.4792 415.889 17.1016 415.706 16.7734C415.524 16.4401 415.248 16.1797 414.878 15.9922C414.508 15.7995 414.04 15.7031 413.472 15.7031C412.935 15.7031 412.493 15.7839 412.144 15.9453C411.795 16.1068 411.534 16.3255 411.362 16.6016C411.196 16.8776 411.112 17.1927 411.112 17.5469C411.112 17.7865 411.162 18.0052 411.261 18.2031C411.365 18.3958 411.524 18.5755 411.737 18.7422C411.956 18.9089 412.232 19.0625 412.566 19.2031C412.904 19.3438 413.308 19.4792 413.777 19.6094C414.422 19.7917 414.98 19.9948 415.448 20.2188C415.917 20.4427 416.303 20.6953 416.605 20.9766C416.912 21.2526 417.139 21.5677 417.284 21.9219C417.435 22.2708 417.511 22.6667 417.511 23.1094C417.511 23.5729 417.417 23.9922 417.23 24.3672C417.042 24.7422 416.774 25.0625 416.425 25.3281C416.076 25.5938 415.657 25.7995 415.167 25.9453C414.683 26.0859 414.141 26.1562 413.542 26.1562C413.016 26.1562 412.498 26.0833 411.987 25.9375C411.482 25.7917 411.021 25.5729 410.605 25.2812C410.193 24.9896 409.862 24.6302 409.612 24.2031C409.368 23.7708 409.245 23.2708 409.245 22.7031H410.745C410.745 23.0938 410.821 23.4297 410.972 23.7109C411.123 23.987 411.329 24.2161 411.589 24.3984C411.855 24.5807 412.154 24.7161 412.487 24.8047C412.826 24.888 413.178 24.9297 413.542 24.9297C414.068 24.9297 414.514 24.8568 414.878 24.7109C415.243 24.5651 415.519 24.3568 415.706 24.0859C415.899 23.8151 415.995 23.4948 415.995 23.125ZM429.68 26H427.305L427.32 24.7734H429.68C430.492 24.7734 431.169 24.6042 431.711 24.2656C432.253 23.9219 432.659 23.4427 432.93 22.8281C433.206 22.2083 433.344 21.4844 433.344 20.6562V19.9609C433.344 19.3099 433.266 18.7318 433.109 18.2266C432.953 17.7161 432.724 17.2865 432.422 16.9375C432.12 16.5833 431.75 16.3151 431.312 16.1328C430.88 15.9505 430.383 15.8594 429.82 15.8594H427.258V14.625H429.82C430.565 14.625 431.245 14.75 431.859 15C432.474 15.2448 433.003 15.6016 433.445 16.0703C433.893 16.5339 434.237 17.0964 434.477 17.7578C434.716 18.4141 434.836 19.1536 434.836 19.9766V20.6562C434.836 21.4792 434.716 22.2214 434.477 22.8828C434.237 23.5391 433.891 24.099 433.438 24.5625C432.99 25.026 432.448 25.3828 431.812 25.6328C431.182 25.8776 430.471 26 429.68 26ZM428.109 14.625V26H426.602V14.625H428.109ZM447.459 19.9531V20.6719C447.459 21.526 447.353 22.2917 447.139 22.9688C446.926 23.6458 446.618 24.2214 446.217 24.6953C445.816 25.1693 445.334 25.5312 444.772 25.7812C444.215 26.0312 443.59 26.1562 442.897 26.1562C442.225 26.1562 441.608 26.0312 441.045 25.7812C440.488 25.5312 440.004 25.1693 439.592 24.6953C439.186 24.2214 438.871 23.6458 438.647 22.9688C438.423 22.2917 438.311 21.526 438.311 20.6719V19.9531C438.311 19.099 438.42 18.3359 438.639 17.6641C438.863 16.987 439.178 16.4115 439.584 15.9375C439.991 15.4583 440.472 15.0938 441.03 14.8438C441.592 14.5938 442.209 14.4688 442.881 14.4688C443.574 14.4688 444.199 14.5938 444.756 14.8438C445.319 15.0938 445.801 15.4583 446.202 15.9375C446.608 16.4115 446.918 16.987 447.131 17.6641C447.35 18.3359 447.459 19.099 447.459 19.9531ZM445.967 20.6719V19.9375C445.967 19.2604 445.897 18.6615 445.756 18.1406C445.621 17.6198 445.42 17.1823 445.155 16.8281C444.889 16.474 444.564 16.2057 444.178 16.0234C443.798 15.8411 443.366 15.75 442.881 15.75C442.412 15.75 441.988 15.8411 441.608 16.0234C441.233 16.2057 440.91 16.474 440.639 16.8281C440.373 17.1823 440.168 17.6198 440.022 18.1406C439.876 18.6615 439.803 19.2604 439.803 19.9375V20.6719C439.803 21.3542 439.876 21.9583 440.022 22.4844C440.168 23.0052 440.376 23.4453 440.647 23.8047C440.923 24.1589 441.248 24.4271 441.623 24.6094C442.004 24.7917 442.428 24.8828 442.897 24.8828C443.386 24.8828 443.821 24.7917 444.202 24.6094C444.582 24.4271 444.902 24.1589 445.162 23.8047C445.428 23.4453 445.629 23.0052 445.764 22.4844C445.899 21.9583 445.967 21.3542 445.967 20.6719ZM460.067 14.625V26H458.552L452.825 17.2266V26H451.317V14.625H452.825L458.575 23.4219V14.625H460.067ZM471.566 24.7734V26H465.542V24.7734H471.566ZM465.847 14.625V26H464.339V14.625H465.847ZM470.769 19.5156V20.7422H465.542V19.5156H470.769ZM471.488 14.625V15.8594H465.542V14.625H471.488Z" fill="#6E7191"/>
<path d="M384.965 42.0527V62H381.027V46.5918L376.297 48.0957V44.9922L384.541 42.0527H384.965ZM405.062 58.9238V62H391.445V59.375L397.885 52.4707C398.532 51.7507 399.042 51.1172 399.416 50.5703C399.79 50.0143 400.059 49.5176 400.223 49.0801C400.396 48.6335 400.482 48.2096 400.482 47.8086C400.482 47.207 400.382 46.6921 400.182 46.2637C399.981 45.8262 399.685 45.4889 399.293 45.252C398.91 45.015 398.436 44.8965 397.871 44.8965C397.27 44.8965 396.75 45.0423 396.312 45.334C395.884 45.6257 395.556 46.0312 395.328 46.5508C395.109 47.0703 395 47.6582 395 48.3145H391.049C391.049 47.1296 391.331 46.0449 391.896 45.0605C392.462 44.0671 393.259 43.2786 394.289 42.6953C395.319 42.1029 396.54 41.8066 397.953 41.8066C399.348 41.8066 400.523 42.0345 401.48 42.4902C402.447 42.9368 403.176 43.584 403.668 44.4316C404.169 45.2702 404.42 46.2728 404.42 47.4395C404.42 48.0957 404.315 48.7383 404.105 49.3672C403.896 49.987 403.595 50.6068 403.203 51.2266C402.82 51.8372 402.355 52.457 401.809 53.0859C401.262 53.7148 400.656 54.3665 399.99 55.041L396.531 58.9238H405.062ZM411.42 58.6777L411.406 61.3164C411.406 62.3281 411.151 63.349 410.641 64.3789C410.139 65.4089 409.501 66.252 408.727 66.9082L406.676 65.8555C406.904 65.4362 407.127 65.0169 407.346 64.5977C407.564 64.1784 407.747 63.7181 407.893 63.2168C408.038 62.7155 408.111 62.1458 408.111 61.5078V58.6777H411.42ZM418.119 52.9355L414.975 52.1836L416.109 42.0938H427.293V45.2793H419.35L418.857 49.6953C419.122 49.5404 419.523 49.3763 420.061 49.2031C420.598 49.0208 421.2 48.9297 421.865 48.9297C422.831 48.9297 423.688 49.0801 424.436 49.3809C425.183 49.6816 425.816 50.1191 426.336 50.6934C426.865 51.2676 427.266 51.9694 427.539 52.7988C427.812 53.6283 427.949 54.5671 427.949 55.6152C427.949 56.4993 427.812 57.3424 427.539 58.1445C427.266 58.9375 426.851 59.6484 426.295 60.2773C425.739 60.8971 425.042 61.3848 424.203 61.7402C423.365 62.0957 422.371 62.2734 421.223 62.2734C420.366 62.2734 419.536 62.1458 418.734 61.8906C417.941 61.6354 417.226 61.2572 416.588 60.7559C415.959 60.2546 415.453 59.6484 415.07 58.9375C414.697 58.2174 414.501 57.3971 414.482 56.4766H418.393C418.447 57.0417 418.593 57.5293 418.83 57.9395C419.076 58.3405 419.4 58.6504 419.801 58.8691C420.202 59.0879 420.671 59.1973 421.209 59.1973C421.71 59.1973 422.139 59.1016 422.494 58.9102C422.85 58.7188 423.137 58.4544 423.355 58.1172C423.574 57.7708 423.734 57.3698 423.834 56.9141C423.943 56.4492 423.998 55.9479 423.998 55.4102C423.998 54.8724 423.934 54.3848 423.807 53.9473C423.679 53.5098 423.483 53.1315 423.219 52.8125C422.954 52.4935 422.617 52.2474 422.207 52.0742C421.806 51.901 421.337 51.8145 420.799 51.8145C420.07 51.8145 419.505 51.9284 419.104 52.1562C418.712 52.3841 418.383 52.6439 418.119 52.9355ZM444.438 54.5625V57.6523H430.096L429.904 55.2598L438.203 42.0938H441.334L437.943 47.7676L433.814 54.5625H444.438ZM442.182 42.0938V62H438.244V42.0938H442.182ZM459.969 50.2969V53.7422C459.969 55.237 459.809 56.5267 459.49 57.6113C459.171 58.6868 458.711 59.571 458.109 60.2637C457.517 60.9473 456.811 61.4531 455.99 61.7812C455.17 62.1094 454.258 62.2734 453.256 62.2734C452.454 62.2734 451.706 62.1732 451.014 61.9727C450.321 61.763 449.697 61.4395 449.141 61.002C448.594 60.5645 448.12 60.013 447.719 59.3477C447.327 58.6732 447.026 57.8711 446.816 56.9414C446.607 56.0117 446.502 54.9453 446.502 53.7422V50.2969C446.502 48.8021 446.661 47.5215 446.98 46.4551C447.309 45.3796 447.769 44.5 448.361 43.8164C448.963 43.1328 449.674 42.6315 450.494 42.3125C451.314 41.9844 452.226 41.8203 453.229 41.8203C454.031 41.8203 454.773 41.9251 455.457 42.1348C456.15 42.3353 456.774 42.6497 457.33 43.0781C457.886 43.5065 458.36 44.0579 458.752 44.7324C459.144 45.3978 459.445 46.1953 459.654 47.125C459.864 48.0456 459.969 49.1029 459.969 50.2969ZM456.018 54.2617V49.7637C456.018 49.0436 455.977 48.4147 455.895 47.877C455.822 47.3392 455.708 46.8835 455.553 46.5098C455.398 46.127 455.206 45.8171 454.979 45.5801C454.751 45.3431 454.491 45.1699 454.199 45.0605C453.908 44.9512 453.584 44.8965 453.229 44.8965C452.782 44.8965 452.385 44.9831 452.039 45.1562C451.702 45.3294 451.415 45.6074 451.178 45.9902C450.941 46.3639 450.758 46.8652 450.631 47.4941C450.512 48.1139 450.453 48.8704 450.453 49.7637V54.2617C450.453 54.9818 450.49 55.6152 450.562 56.1621C450.645 56.709 450.763 57.1784 450.918 57.5703C451.082 57.9531 451.273 58.2676 451.492 58.5137C451.72 58.7507 451.98 58.9238 452.271 59.0332C452.572 59.1426 452.9 59.1973 453.256 59.1973C453.693 59.1973 454.081 59.1107 454.418 58.9375C454.764 58.7552 455.056 58.4727 455.293 58.0898C455.539 57.6979 455.721 57.1875 455.84 56.5586C455.958 55.9297 456.018 55.1641 456.018 54.2617ZM475.691 50.9121V54.3438H462.047V50.9121H475.691ZM470.742 45.5117V60.0039H467.01V45.5117H470.742Z" fill="#211F54"/>
<g filter="url(#filter2_d_1_295)">
<g clip-path="url(#clip2_1_295)">
<path d="M605 77.5C624.606 77.5 640.5 61.6061 640.5 42C640.5 22.3939 624.606 6.5 605 6.5C585.394 6.5 569.5 22.3939 569.5 42C569.5 61.6061 585.394 77.5 605 77.5Z" fill="white" stroke="#DCDDEB"/>
<path d="M612.206 44.5879H597.794C593.815 44.5879 590.588 47.8141 590.588 51.7938C590.588 55.7735 593.815 58.9997 597.794 58.9997H612.206C616.186 58.9997 619.412 55.7735 619.412 51.7938C619.412 47.8141 616.186 44.5879 612.206 44.5879Z" fill="#123578"/>
<path d="M605 40.4706C609.548 40.4706 613.235 36.7835 613.235 32.2353C613.235 27.6871 609.548 24 605 24C600.452 24 596.765 27.6871 596.765 32.2353C596.765 36.7835 600.452 40.4706 605 40.4706Z" fill="#0075FF"/>
</g>
</g>
<path d="M665.547 24.7734V26H659.523V24.7734H665.547ZM659.828 14.625V26H658.32V14.625H659.828ZM664.75 19.5156V20.7422H659.523V19.5156H664.75ZM665.469 14.625V15.8594H659.523V14.625H665.469ZM669.491 14.625H670.952L674.678 23.8984L678.397 14.625H679.866L675.241 26H674.1L669.491 14.625ZM669.014 14.625H670.303L670.514 21.5625V26H669.014V14.625ZM679.045 14.625H680.334V26H678.834V21.5625L679.045 14.625ZM688.778 21.5391H685.739V20.3125H688.778C689.367 20.3125 689.843 20.2188 690.208 20.0312C690.572 19.8438 690.838 19.5833 691.005 19.25C691.177 18.9167 691.263 18.5365 691.263 18.1094C691.263 17.7188 691.177 17.3516 691.005 17.0078C690.838 16.6641 690.572 16.388 690.208 16.1797C689.843 15.9661 689.367 15.8594 688.778 15.8594H686.091V26H684.583V14.625H688.778C689.638 14.625 690.364 14.7734 690.958 15.0703C691.552 15.3672 692.002 15.7786 692.309 16.3047C692.617 16.8255 692.77 17.4219 692.77 18.0938C692.77 18.8229 692.617 19.4453 692.309 19.9609C692.002 20.4766 691.552 20.8698 690.958 21.1406C690.364 21.4062 689.638 21.5391 688.778 21.5391ZM703.175 24.7734V26H697.487V24.7734H703.175ZM697.784 14.625V26H696.277V14.625H697.784ZM714.744 19.9531V20.6719C714.744 21.526 714.637 22.2917 714.423 22.9688C714.21 23.6458 713.903 24.2214 713.502 24.6953C713.101 25.1693 712.619 25.5312 712.056 25.7812C711.499 26.0312 710.874 26.1562 710.181 26.1562C709.509 26.1562 708.892 26.0312 708.33 25.7812C707.772 25.5312 707.288 25.1693 706.877 24.6953C706.47 24.2214 706.155 23.6458 705.931 22.9688C705.707 22.2917 705.595 21.526 705.595 20.6719V19.9531C705.595 19.099 705.705 18.3359 705.923 17.6641C706.147 16.987 706.463 16.4115 706.869 15.9375C707.275 15.4583 707.757 15.0938 708.314 14.8438C708.877 14.5938 709.494 14.4688 710.166 14.4688C710.858 14.4688 711.483 14.5938 712.041 14.8438C712.603 15.0938 713.085 15.4583 713.486 15.9375C713.892 16.4115 714.202 16.987 714.416 17.6641C714.634 18.3359 714.744 19.099 714.744 19.9531ZM713.252 20.6719V19.9375C713.252 19.2604 713.181 18.6615 713.041 18.1406C712.905 17.6198 712.705 17.1823 712.439 16.8281C712.173 16.474 711.848 16.2057 711.463 16.0234C711.082 15.8411 710.65 15.75 710.166 15.75C709.697 15.75 709.272 15.8411 708.892 16.0234C708.517 16.2057 708.194 16.474 707.923 16.8281C707.658 17.1823 707.452 17.6198 707.306 18.1406C707.16 18.6615 707.088 19.2604 707.088 19.9375V20.6719C707.088 21.3542 707.16 21.9583 707.306 22.4844C707.452 23.0052 707.66 23.4453 707.931 23.8047C708.207 24.1589 708.533 24.4271 708.908 24.6094C709.288 24.7917 709.713 24.8828 710.181 24.8828C710.671 24.8828 711.106 24.7917 711.486 24.6094C711.866 24.4271 712.186 24.1589 712.447 23.8047C712.713 23.4453 712.913 23.0052 713.048 22.4844C713.184 21.9583 713.252 21.3542 713.252 20.6719ZM718.781 14.625L721.734 20.3359L724.695 14.625H726.406L722.484 21.75V26H720.977V21.75L717.055 14.625H718.781ZM736.694 24.7734V26H730.67V24.7734H736.694ZM730.975 14.625V26H729.467V14.625H730.975ZM735.897 19.5156V20.7422H730.67V19.5156H735.897ZM736.616 14.625V15.8594H730.67V14.625H736.616ZM747.387 24.7734V26H741.364V24.7734H747.387ZM741.669 14.625V26H740.161V14.625H741.669ZM746.591 19.5156V20.7422H741.364V19.5156H746.591ZM747.309 14.625V15.8594H741.364V14.625H747.309ZM756.917 23.125C756.917 22.8594 756.876 22.625 756.792 22.4219C756.714 22.2135 756.573 22.026 756.37 21.8594C756.172 21.6927 755.896 21.5339 755.542 21.3828C755.193 21.2318 754.751 21.0781 754.214 20.9219C753.652 20.7552 753.144 20.5703 752.691 20.3672C752.238 20.1589 751.849 19.9219 751.527 19.6562C751.204 19.3906 750.956 19.0859 750.784 18.7422C750.613 18.3984 750.527 18.0052 750.527 17.5625C750.527 17.1198 750.618 16.7109 750.8 16.3359C750.982 15.9609 751.243 15.6354 751.581 15.3594C751.925 15.0781 752.334 14.8594 752.808 14.7031C753.282 14.5469 753.81 14.4688 754.394 14.4688C755.248 14.4688 755.972 14.6328 756.566 14.9609C757.165 15.2839 757.62 15.7083 757.933 16.2344C758.245 16.7552 758.402 17.3125 758.402 17.9062H756.902C756.902 17.4792 756.81 17.1016 756.628 16.7734C756.446 16.4401 756.17 16.1797 755.8 15.9922C755.43 15.7995 754.961 15.7031 754.394 15.7031C753.857 15.7031 753.415 15.7839 753.066 15.9453C752.717 16.1068 752.456 16.3255 752.284 16.6016C752.118 16.8776 752.034 17.1927 752.034 17.5469C752.034 17.7865 752.084 18.0052 752.183 18.2031C752.287 18.3958 752.446 18.5755 752.659 18.7422C752.878 18.9089 753.154 19.0625 753.488 19.2031C753.826 19.3438 754.23 19.4792 754.698 19.6094C755.344 19.7917 755.902 19.9948 756.37 20.2188C756.839 20.4427 757.224 20.6953 757.527 20.9766C757.834 21.2526 758.06 21.5677 758.206 21.9219C758.357 22.2708 758.433 22.6667 758.433 23.1094C758.433 23.5729 758.339 23.9922 758.152 24.3672C757.964 24.7422 757.696 25.0625 757.347 25.3281C756.998 25.5938 756.579 25.7995 756.089 25.9453C755.605 26.0859 755.063 26.1562 754.464 26.1562C753.938 26.1562 753.42 26.0833 752.909 25.9375C752.404 25.7917 751.943 25.5729 751.527 25.2812C751.115 24.9896 750.784 24.6302 750.534 24.2031C750.29 23.7708 750.167 23.2708 750.167 22.7031H751.667C751.667 23.0938 751.743 23.4297 751.894 23.7109C752.045 23.987 752.251 24.2161 752.511 24.3984C752.777 24.5807 753.076 24.7161 753.409 24.8047C753.748 24.888 754.099 24.9297 754.464 24.9297C754.99 24.9297 755.435 24.8568 755.8 24.7109C756.165 24.5651 756.441 24.3568 756.628 24.0859C756.821 23.8151 756.917 23.4948 756.917 23.125Z" fill="#6E7191"/>
<path d="M667.965 42.0527V62H664.027V46.5918L659.297 48.0957V44.9922L667.541 42.0527H667.965ZM687.844 50.2969V53.7422C687.844 55.237 687.684 56.5267 687.365 57.6113C687.046 58.6868 686.586 59.571 685.984 60.2637C685.392 60.9473 684.686 61.4531 683.865 61.7812C683.045 62.1094 682.133 62.2734 681.131 62.2734C680.329 62.2734 679.581 62.1732 678.889 61.9727C678.196 61.763 677.572 61.4395 677.016 61.002C676.469 60.5645 675.995 60.013 675.594 59.3477C675.202 58.6732 674.901 57.8711 674.691 56.9414C674.482 56.0117 674.377 54.9453 674.377 53.7422V50.2969C674.377 48.8021 674.536 47.5215 674.855 46.4551C675.184 45.3796 675.644 44.5 676.236 43.8164C676.838 43.1328 677.549 42.6315 678.369 42.3125C679.189 41.9844 680.101 41.8203 681.104 41.8203C681.906 41.8203 682.648 41.9251 683.332 42.1348C684.025 42.3353 684.649 42.6497 685.205 43.0781C685.761 43.5065 686.235 44.0579 686.627 44.7324C687.019 45.3978 687.32 46.1953 687.529 47.125C687.739 48.0456 687.844 49.1029 687.844 50.2969ZM683.893 54.2617V49.7637C683.893 49.0436 683.852 48.4147 683.77 47.877C683.697 47.3392 683.583 46.8835 683.428 46.5098C683.273 46.127 683.081 45.8171 682.854 45.5801C682.626 45.3431 682.366 45.1699 682.074 45.0605C681.783 44.9512 681.459 44.8965 681.104 44.8965C680.657 44.8965 680.26 44.9831 679.914 45.1562C679.577 45.3294 679.29 45.6074 679.053 45.9902C678.816 46.3639 678.633 46.8652 678.506 47.4941C678.387 48.1139 678.328 48.8704 678.328 49.7637V54.2617C678.328 54.9818 678.365 55.6152 678.438 56.1621C678.52 56.709 678.638 57.1784 678.793 57.5703C678.957 57.9531 679.148 58.2676 679.367 58.5137C679.595 58.7507 679.855 58.9238 680.146 59.0332C680.447 59.1426 680.775 59.1973 681.131 59.1973C681.568 59.1973 681.956 59.1107 682.293 58.9375C682.639 58.7552 682.931 58.4727 683.168 58.0898C683.414 57.6979 683.596 57.1875 683.715 56.5586C683.833 55.9297 683.893 55.1641 683.893 54.2617ZM703.922 50.2969V53.7422C703.922 55.237 703.762 56.5267 703.443 57.6113C703.124 58.6868 702.664 59.571 702.062 60.2637C701.47 60.9473 700.764 61.4531 699.943 61.7812C699.123 62.1094 698.212 62.2734 697.209 62.2734C696.407 62.2734 695.66 62.1732 694.967 61.9727C694.274 61.763 693.65 61.4395 693.094 61.002C692.547 60.5645 692.073 60.013 691.672 59.3477C691.28 58.6732 690.979 57.8711 690.77 56.9414C690.56 56.0117 690.455 54.9453 690.455 53.7422V50.2969C690.455 48.8021 690.615 47.5215 690.934 46.4551C691.262 45.3796 691.722 44.5 692.314 43.8164C692.916 43.1328 693.627 42.6315 694.447 42.3125C695.268 41.9844 696.179 41.8203 697.182 41.8203C697.984 41.8203 698.727 41.9251 699.41 42.1348C700.103 42.3353 700.727 42.6497 701.283 43.0781C701.839 43.5065 702.313 44.0579 702.705 44.7324C703.097 45.3978 703.398 46.1953 703.607 47.125C703.817 48.0456 703.922 49.1029 703.922 50.2969ZM699.971 54.2617V49.7637C699.971 49.0436 699.93 48.4147 699.848 47.877C699.775 47.3392 699.661 46.8835 699.506 46.5098C699.351 46.127 699.16 45.8171 698.932 45.5801C698.704 45.3431 698.444 45.1699 698.152 45.0605C697.861 44.9512 697.537 44.8965 697.182 44.8965C696.735 44.8965 696.339 44.9831 695.992 45.1562C695.655 45.3294 695.368 45.6074 695.131 45.9902C694.894 46.3639 694.712 46.8652 694.584 47.4941C694.465 48.1139 694.406 48.8704 694.406 49.7637V54.2617C694.406 54.9818 694.443 55.6152 694.516 56.1621C694.598 56.709 694.716 57.1784 694.871 57.5703C695.035 57.9531 695.227 58.2676 695.445 58.5137C695.673 58.7507 695.933 58.9238 696.225 59.0332C696.525 59.1426 696.854 59.1973 697.209 59.1973C697.646 59.1973 698.034 59.1107 698.371 58.9375C698.717 58.7552 699.009 58.4727 699.246 58.0898C699.492 57.6979 699.674 57.1875 699.793 56.5586C699.911 55.9297 699.971 55.1641 699.971 54.2617ZM719.645 50.9121V54.3438H706V50.9121H719.645ZM714.695 45.5117V60.0039H710.963V45.5117H714.695Z" fill="#211F54"/>
<defs>
<filter id="filter0_d_1_295" x="0" y="0" width="92" height="92" filterUnits="userSpaceOnUse" color-interpolation-filters="sRGB">
<feFlood flood-opacity="0" result="BackgroundImageFix"/>
<feColorMatrix in="SourceAlpha" type="matrix" values="0 0 0 0 0 0 0 0 0 0 0 0 0 0 0 0 0 0 127 0" result="hardAlpha"/>
<feOffset dy="4"/>
<feGaussianBlur stdDeviation="5"/>
<feColorMatrix type="matrix" values="0 0 0 0 0.0784314 0 0 0 0 0.0784314 0 0 0 0 0.168627 0 0 0 0.04 0"/>
<feBlend mode="normal" in2="BackgroundImageFix" result="effect1_dropShadow_1_295"/>
<feBlend mode="normal" in="SourceGraphic" in2="effect1_dropShadow_1_295" result="shape"/>
</filter>
<filter id="filter1_d_1_295" x="276" y="0" width="92" height="92" filterUnits="userSpaceOnUse" color-interpolation-filters="sRGB">
<feFlood flood-opacity="0" result="BackgroundImageFix"/>
<feColorMatrix in="SourceAlpha" type="matrix" values="0 0 0 0 0 0 0 0 0 0 0 0 0 0 0 0 0 0 127 0" result="hardAlpha"/>
<feOffset dy="4"/>
<feGaussianBlur stdDeviation="5"/>
<feColorMatrix type="matrix" values="0 0 0 0 0.0784314 0 0 0 0 0.0784314 0 0 0 0 0.168627 0 0 0 0.04 0"/>
<feBlend mode="normal" in2="BackgroundImageFix" result="effect1_dropShadow_1_295"/>
<feBlend mode="normal" in="SourceGraphic" in2="effect1_dropShadow_1_295" result="shape"/>
</filter>
<filter id="filter2_d_1_295" x="559" y="0" width="92" height="92" filterUnits="userSpaceOnUse" color-interpolation-filters="sRGB">
<feFlood flood-opacity="0" result="BackgroundImageFix"/>
<feColorMatrix in="SourceAlpha" type="matrix" values="0 0 0 0 0 0 0 0 0 0 0 0 0 0 0 0 0 0 127 0" result="hardAlpha"/>
<feOffset dy="4"/>
<feGaussianBlur stdDeviation="5"/>
<feColorMatrix type="matrix" values="0 0 0 0 0.0784314 0 0 0 0 0.0784314 0 0 0 0 0.168627 0 0 0 0.04 0"/>
<feBlend mode="normal" in2="BackgroundImageFix" result="effect1_dropShadow_1_295"/>
<feBlend mode="normal" in="SourceGraphic" in2="effect1_dropShadow_1_295" result="shape"/>
</filter>
<clipPath id="clip0_1_295">
<path d="M10 13C10 9.13401 13.134 6 17 6H75C78.866 6 82 9.13401 82 13V71C82 74.866 78.866 78 75 78H17C13.134 78 10 74.866 10 71V13Z" fill="white"/>
</clipPath>
<clipPath id="clip1_1_295">
<path d="M286 13C286 9.13401 289.134 6 293 6H351C354.866 6 358 9.13401 358 13V71C358 74.866 354.866 78 351 78H293C289.134 78 286 74.866 286 71V13Z" fill="white"/>
</clipPath>
<clipPath id="clip2_1_295">
<path d="M569 13C569 9.13401 572.134 6 576 6H634C637.866 6 641 9.13401 641 13V71C641 74.866 637.866 78 634 78H576C572.134 78 569 74.866 569 71V13Z" fill="white"/>
</clipPath>
</defs>
</svg>
