<svg width="351" height="188" viewBox="0 0 351 188" fill="none" xmlns="http://www.w3.org/2000/svg">
<g clip-path="url(#clip0_1_1364)">
<path d="M14 26C21.1799 26 27 20.1799 27 13C27 5.8201 21.1799 0 14 0C6.8201 0 1 5.8201 1 13C1 20.1799 6.8201 26 14 26Z" fill="#EDF5FF"/>
<path d="M8.11682 13.8406L11.4786 17.2024L19.8832 8.79785" stroke="#0075FF" stroke-width="2" stroke-linecap="round" stroke-linejoin="round"/>
</g>
<path d="M41.1523 13.3838H37.8652L37.8477 11.5732H40.6074C41.0938 11.5732 41.4922 11.5117 41.8027 11.3887C42.1133 11.2598 42.3447 11.0752 42.4971 10.835C42.6553 10.5889 42.7344 10.29 42.7344 9.93848C42.7344 9.54004 42.6582 9.21777 42.5059 8.97168C42.3594 8.72559 42.1279 8.54688 41.8115 8.43555C41.501 8.32422 41.0996 8.26855 40.6074 8.26855H38.7793V19H36.1426V6.20312H40.6074C41.3516 6.20312 42.0166 6.27344 42.6025 6.41406C43.1943 6.55469 43.6953 6.76855 44.1055 7.05566C44.5156 7.34277 44.8291 7.70605 45.0459 8.14551C45.2627 8.5791 45.3711 9.09473 45.3711 9.69238C45.3711 10.2197 45.251 10.7061 45.0107 11.1514C44.7764 11.5967 44.4043 11.96 43.8945 12.2412C43.3906 12.5225 42.7314 12.6777 41.917 12.707L41.1523 13.3838ZM41.0381 19H37.1445L38.1729 16.9434H41.0381C41.501 16.9434 41.8789 16.8701 42.1719 16.7236C42.4648 16.5713 42.6816 16.3662 42.8223 16.1084C42.9629 15.8506 43.0332 15.5547 43.0332 15.2207C43.0332 14.8457 42.9688 14.5205 42.8398 14.2451C42.7168 13.9697 42.5176 13.7588 42.2422 13.6123C41.9668 13.46 41.6035 13.3838 41.1523 13.3838H38.6123L38.6299 11.5732H41.7939L42.4004 12.2852C43.1797 12.2734 43.8066 12.4111 44.2812 12.6982C44.7617 12.9795 45.1104 13.3457 45.3271 13.7969C45.5498 14.248 45.6611 14.7314 45.6611 15.2471C45.6611 16.0674 45.4824 16.7588 45.125 17.3213C44.7676 17.8779 44.2432 18.2969 43.5518 18.5781C42.8662 18.8594 42.0283 19 41.0381 19ZM52.6133 16.8555V12.6191C52.6133 12.3145 52.5635 12.0537 52.4639 11.8369C52.3643 11.6143 52.209 11.4414 51.998 11.3184C51.793 11.1953 51.5264 11.1338 51.1982 11.1338C50.917 11.1338 50.6738 11.1836 50.4688 11.2832C50.2637 11.377 50.1055 11.5146 49.9941 11.6963C49.8828 11.8721 49.8271 12.0801 49.8271 12.3203H47.2959C47.2959 11.916 47.3896 11.5322 47.5771 11.1689C47.7646 10.8057 48.0371 10.4863 48.3945 10.2109C48.752 9.92969 49.1768 9.70996 49.6689 9.55176C50.167 9.39355 50.7236 9.31445 51.3389 9.31445C52.0771 9.31445 52.7334 9.4375 53.3076 9.68359C53.8818 9.92969 54.333 10.2988 54.6611 10.791C54.9951 11.2832 55.1621 11.8984 55.1621 12.6367V16.7061C55.1621 17.2275 55.1943 17.6553 55.2588 17.9893C55.3232 18.3174 55.417 18.6045 55.54 18.8506V19H52.9824C52.8594 18.7422 52.7656 18.4199 52.7012 18.0332C52.6426 17.6406 52.6133 17.248 52.6133 16.8555ZM52.9473 13.208L52.9648 14.6406H51.5498C51.2158 14.6406 50.9258 14.6787 50.6797 14.7549C50.4336 14.8311 50.2314 14.9395 50.0732 15.0801C49.915 15.2148 49.7979 15.373 49.7217 15.5547C49.6514 15.7363 49.6162 15.9355 49.6162 16.1523C49.6162 16.3691 49.666 16.5654 49.7656 16.7412C49.8652 16.9111 50.0088 17.0459 50.1963 17.1455C50.3838 17.2393 50.6035 17.2861 50.8555 17.2861C51.2363 17.2861 51.5674 17.21 51.8486 17.0576C52.1299 16.9053 52.3467 16.7178 52.499 16.4951C52.6572 16.2725 52.7393 16.0615 52.7451 15.8623L53.4131 16.9346C53.3193 17.1748 53.1904 17.4238 53.0264 17.6816C52.8682 17.9395 52.666 18.1826 52.4199 18.4111C52.1738 18.6338 51.8779 18.8184 51.5322 18.9648C51.1865 19.1055 50.7764 19.1758 50.3018 19.1758C49.6982 19.1758 49.1504 19.0557 48.6582 18.8154C48.1719 18.5693 47.7852 18.2324 47.498 17.8047C47.2168 17.3711 47.0762 16.8789 47.0762 16.3281C47.0762 15.8301 47.1699 15.3877 47.3574 15.001C47.5449 14.6143 47.8203 14.2891 48.1836 14.0254C48.5527 13.7559 49.0127 13.5537 49.5635 13.4189C50.1143 13.2783 50.7529 13.208 51.4795 13.208H52.9473ZM61.7715 9.49023V11.2832H56.2344V9.49023H61.7715ZM57.6055 7.14355H60.1367V16.1348C60.1367 16.4102 60.1719 16.6211 60.2422 16.7676C60.3184 16.9141 60.4297 17.0166 60.5762 17.0752C60.7227 17.1279 60.9072 17.1543 61.1299 17.1543C61.2881 17.1543 61.4287 17.1484 61.5518 17.1367C61.6807 17.1191 61.7891 17.1016 61.877 17.084L61.8857 18.9473C61.6689 19.0176 61.4346 19.0732 61.1826 19.1143C60.9307 19.1553 60.6523 19.1758 60.3477 19.1758C59.791 19.1758 59.3047 19.085 58.8887 18.9033C58.4785 18.7158 58.1621 18.417 57.9395 18.0068C57.7168 17.5967 57.6055 17.0576 57.6055 16.3896V7.14355ZM65.6826 5.5V19H63.1514V5.5H65.6826ZM65.3223 13.9111H64.6279C64.6338 13.249 64.7217 12.6396 64.8916 12.083C65.0615 11.5205 65.3047 11.0342 65.6211 10.624C65.9375 10.208 66.3154 9.88574 66.7549 9.65723C67.2002 9.42871 67.6924 9.31445 68.2314 9.31445C68.7002 9.31445 69.125 9.38184 69.5059 9.5166C69.8926 9.64551 70.2236 9.85645 70.499 10.1494C70.7803 10.4365 70.9971 10.8145 71.1494 11.2832C71.3018 11.752 71.3779 12.3203 71.3779 12.9883V19H68.8291V12.9707C68.8291 12.5488 68.7676 12.2178 68.6445 11.9775C68.5273 11.7314 68.3545 11.5586 68.126 11.459C67.9033 11.3535 67.6279 11.3008 67.2998 11.3008C66.9365 11.3008 66.626 11.3682 66.3682 11.5029C66.1162 11.6377 65.9141 11.8252 65.7617 12.0654C65.6094 12.2998 65.498 12.5752 65.4277 12.8916C65.3574 13.208 65.3223 13.5479 65.3223 13.9111ZM75.834 11.5645V19H73.3027V9.49023H75.6846L75.834 11.5645ZM78.6992 9.42871L78.6553 11.7754C78.5322 11.7578 78.3828 11.7432 78.207 11.7314C78.0371 11.7139 77.8818 11.7051 77.7412 11.7051C77.3838 11.7051 77.0732 11.752 76.8096 11.8457C76.5518 11.9336 76.335 12.0654 76.1592 12.2412C75.9893 12.417 75.8604 12.6309 75.7725 12.8828C75.6904 13.1348 75.6436 13.4219 75.6318 13.7441L75.1221 13.5859C75.1221 12.9707 75.1836 12.4053 75.3066 11.8896C75.4297 11.3682 75.6084 10.9141 75.8428 10.5273C76.083 10.1406 76.376 9.8418 76.7217 9.63086C77.0674 9.41992 77.4629 9.31445 77.9082 9.31445C78.0488 9.31445 78.1924 9.32617 78.3389 9.34961C78.4854 9.36719 78.6055 9.39355 78.6992 9.42871ZM79.2266 14.3418V14.1572C79.2266 13.46 79.3262 12.8184 79.5254 12.2324C79.7246 11.6406 80.0146 11.1279 80.3955 10.6943C80.7764 10.2607 81.2451 9.92383 81.8018 9.68359C82.3584 9.4375 82.9971 9.31445 83.7178 9.31445C84.4385 9.31445 85.0801 9.4375 85.6426 9.68359C86.2051 9.92383 86.6768 10.2607 87.0576 10.6943C87.4443 11.1279 87.7373 11.6406 87.9365 12.2324C88.1357 12.8184 88.2354 13.46 88.2354 14.1572V14.3418C88.2354 15.0332 88.1357 15.6748 87.9365 16.2666C87.7373 16.8525 87.4443 17.3652 87.0576 17.8047C86.6768 18.2383 86.208 18.5752 85.6514 18.8154C85.0947 19.0557 84.4561 19.1758 83.7354 19.1758C83.0146 19.1758 82.373 19.0557 81.8105 18.8154C81.2539 18.5752 80.7822 18.2383 80.3955 17.8047C80.0146 17.3652 79.7246 16.8525 79.5254 16.2666C79.3262 15.6748 79.2266 15.0332 79.2266 14.3418ZM81.7578 14.1572V14.3418C81.7578 14.7402 81.793 15.1123 81.8633 15.458C81.9336 15.8037 82.0449 16.1084 82.1973 16.3721C82.3555 16.6299 82.5605 16.832 82.8125 16.9785C83.0645 17.125 83.3721 17.1982 83.7354 17.1982C84.0869 17.1982 84.3887 17.125 84.6406 16.9785C84.8926 16.832 85.0947 16.6299 85.2471 16.3721C85.3994 16.1084 85.5107 15.8037 85.5811 15.458C85.6572 15.1123 85.6953 14.7402 85.6953 14.3418V14.1572C85.6953 13.7705 85.6572 13.4072 85.5811 13.0674C85.5107 12.7217 85.3965 12.417 85.2383 12.1533C85.0859 11.8838 84.8838 11.6729 84.6318 11.5205C84.3799 11.3682 84.0752 11.292 83.7178 11.292C83.3604 11.292 83.0557 11.3682 82.8037 11.5205C82.5576 11.6729 82.3555 11.8838 82.1973 12.1533C82.0449 12.417 81.9336 12.7217 81.8633 13.0674C81.793 13.4072 81.7578 13.7705 81.7578 14.1572ZM89.3867 14.3418V14.1572C89.3867 13.46 89.4863 12.8184 89.6855 12.2324C89.8848 11.6406 90.1748 11.1279 90.5557 10.6943C90.9365 10.2607 91.4053 9.92383 91.9619 9.68359C92.5186 9.4375 93.1572 9.31445 93.8779 9.31445C94.5986 9.31445 95.2402 9.4375 95.8027 9.68359C96.3652 9.92383 96.8369 10.2607 97.2178 10.6943C97.6045 11.1279 97.8975 11.6406 98.0967 12.2324C98.2959 12.8184 98.3955 13.46 98.3955 14.1572V14.3418C98.3955 15.0332 98.2959 15.6748 98.0967 16.2666C97.8975 16.8525 97.6045 17.3652 97.2178 17.8047C96.8369 18.2383 96.3682 18.5752 95.8115 18.8154C95.2549 19.0557 94.6162 19.1758 93.8955 19.1758C93.1748 19.1758 92.5332 19.0557 91.9707 18.8154C91.4141 18.5752 90.9424 18.2383 90.5557 17.8047C90.1748 17.3652 89.8848 16.8525 89.6855 16.2666C89.4863 15.6748 89.3867 15.0332 89.3867 14.3418ZM91.918 14.1572V14.3418C91.918 14.7402 91.9531 15.1123 92.0234 15.458C92.0938 15.8037 92.2051 16.1084 92.3574 16.3721C92.5156 16.6299 92.7207 16.832 92.9727 16.9785C93.2246 17.125 93.5322 17.1982 93.8955 17.1982C94.2471 17.1982 94.5488 17.125 94.8008 16.9785C95.0527 16.832 95.2549 16.6299 95.4072 16.3721C95.5596 16.1084 95.6709 15.8037 95.7412 15.458C95.8174 15.1123 95.8555 14.7402 95.8555 14.3418V14.1572C95.8555 13.7705 95.8174 13.4072 95.7412 13.0674C95.6709 12.7217 95.5566 12.417 95.3984 12.1533C95.2461 11.8838 95.0439 11.6729 94.792 11.5205C94.54 11.3682 94.2354 11.292 93.8779 11.292C93.5205 11.292 93.2158 11.3682 92.9639 11.5205C92.7178 11.6729 92.5156 11.8838 92.3574 12.1533C92.2051 12.417 92.0938 12.7217 92.0234 13.0674C91.9531 13.4072 91.918 13.7705 91.918 14.1572ZM102.482 11.459V19H99.9424V9.49023H102.324L102.482 11.459ZM102.131 13.9111H101.428C101.428 13.249 101.507 12.6396 101.665 12.083C101.829 11.5205 102.066 11.0342 102.377 10.624C102.693 10.208 103.083 9.88574 103.546 9.65723C104.009 9.42871 104.545 9.31445 105.154 9.31445C105.576 9.31445 105.963 9.37891 106.314 9.50781C106.666 9.63086 106.968 9.82715 107.22 10.0967C107.478 10.3604 107.677 10.7061 107.817 11.1338C107.958 11.5557 108.028 12.0625 108.028 12.6543V19H105.497V12.9355C105.497 12.502 105.438 12.168 105.321 11.9336C105.204 11.6992 105.037 11.5352 104.82 11.4414C104.609 11.3477 104.354 11.3008 104.056 11.3008C103.728 11.3008 103.44 11.3682 103.194 11.5029C102.954 11.6377 102.755 11.8252 102.597 12.0654C102.438 12.2998 102.321 12.5752 102.245 12.8916C102.169 13.208 102.131 13.5479 102.131 13.9111ZM107.791 13.6211L106.886 13.7354C106.886 13.1143 106.962 12.5371 107.114 12.0039C107.272 11.4707 107.504 11.002 107.809 10.5977C108.119 10.1934 108.503 9.87988 108.96 9.65723C109.417 9.42871 109.944 9.31445 110.542 9.31445C110.999 9.31445 111.415 9.38184 111.79 9.5166C112.165 9.64551 112.484 9.85352 112.748 10.1406C113.018 10.4219 113.223 10.791 113.363 11.248C113.51 11.7051 113.583 12.2646 113.583 12.9268V19H111.043V12.9268C111.043 12.4873 110.984 12.1533 110.867 11.9248C110.756 11.6904 110.592 11.5293 110.375 11.4414C110.164 11.3477 109.912 11.3008 109.619 11.3008C109.314 11.3008 109.048 11.3623 108.819 11.4854C108.591 11.6025 108.4 11.7666 108.248 11.9775C108.096 12.1885 107.981 12.4346 107.905 12.7158C107.829 12.9912 107.791 13.293 107.791 13.6211ZM120.685 16.3721C120.685 16.1904 120.632 16.0264 120.526 15.8799C120.421 15.7334 120.225 15.5986 119.938 15.4756C119.656 15.3467 119.249 15.2295 118.716 15.124C118.235 15.0186 117.787 14.8867 117.371 14.7285C116.961 14.5645 116.604 14.3682 116.299 14.1396C116 13.9111 115.766 13.6416 115.596 13.3311C115.426 13.0146 115.341 12.6543 115.341 12.25C115.341 11.8516 115.426 11.4766 115.596 11.125C115.771 10.7734 116.021 10.4629 116.343 10.1934C116.671 9.91797 117.069 9.7041 117.538 9.55176C118.013 9.39355 118.546 9.31445 119.138 9.31445C119.964 9.31445 120.673 9.44629 121.265 9.70996C121.862 9.97363 122.319 10.3369 122.636 10.7998C122.958 11.2568 123.119 11.7783 123.119 12.3643H120.588C120.588 12.1182 120.535 11.8984 120.43 11.7051C120.33 11.5059 120.172 11.3506 119.955 11.2393C119.744 11.1221 119.469 11.0635 119.129 11.0635C118.848 11.0635 118.604 11.1133 118.399 11.2129C118.194 11.3066 118.036 11.4355 117.925 11.5996C117.819 11.7578 117.767 11.9336 117.767 12.127C117.767 12.2734 117.796 12.4053 117.854 12.5225C117.919 12.6338 118.021 12.7363 118.162 12.8301C118.303 12.9238 118.484 13.0117 118.707 13.0938C118.936 13.1699 119.217 13.2402 119.551 13.3047C120.236 13.4453 120.849 13.6299 121.388 13.8584C121.927 14.0811 122.354 14.3857 122.671 14.7725C122.987 15.1533 123.146 15.6543 123.146 16.2754C123.146 16.6973 123.052 17.084 122.864 17.4355C122.677 17.7871 122.407 18.0947 122.056 18.3584C121.704 18.6162 121.282 18.8184 120.79 18.9648C120.304 19.1055 119.756 19.1758 119.146 19.1758C118.262 19.1758 117.512 19.0176 116.896 18.7012C116.287 18.3848 115.824 17.9834 115.508 17.4971C115.197 17.0049 115.042 16.501 115.042 15.9854H117.441C117.453 16.3311 117.541 16.6094 117.705 16.8203C117.875 17.0312 118.089 17.1836 118.347 17.2773C118.61 17.3711 118.895 17.418 119.199 17.418C119.527 17.418 119.8 17.374 120.017 17.2861C120.233 17.1924 120.397 17.0693 120.509 16.917C120.626 16.7588 120.685 16.5771 120.685 16.3721Z" fill="#211F54"/>
<g clip-path="url(#clip1_1_1364)">
<path d="M14 76C21.1799 76 27 70.1799 27 63C27 55.8201 21.1799 50 14 50C6.8201 50 1 55.8201 1 63C1 70.1799 6.8201 76 14 76Z" fill="#EDF5FF"/>
<path d="M8.11682 63.8406L11.4786 67.2024L19.8832 58.7979" stroke="#0075FF" stroke-width="2" stroke-linecap="round" stroke-linejoin="round"/>
</g>
<path d="M38.7793 56.2031V69H36.1426V56.2031H38.7793ZM46.4434 56.2031L41.3721 62.5225L38.4453 65.6689L37.9707 63.1729L39.9482 60.4658L43.209 56.2031H46.4434ZM43.4463 69L39.6758 63.085L41.627 61.4502L46.5664 69H43.4463ZM50.0996 59.4902V69H47.5596V59.4902H50.0996ZM47.4014 57.0117C47.4014 56.6426 47.5303 56.3379 47.7881 56.0977C48.0459 55.8574 48.3916 55.7373 48.8252 55.7373C49.2529 55.7373 49.5957 55.8574 49.8535 56.0977C50.1172 56.3379 50.249 56.6426 50.249 57.0117C50.249 57.3809 50.1172 57.6855 49.8535 57.9258C49.5957 58.166 49.2529 58.2861 48.8252 58.2861C48.3916 58.2861 48.0459 58.166 47.7881 57.9258C47.5303 57.6855 47.4014 57.3809 47.4014 57.0117ZM56.8496 59.4902V61.2832H51.3125V59.4902H56.8496ZM52.6836 57.1436H55.2148V66.1348C55.2148 66.4102 55.25 66.6211 55.3203 66.7676C55.3965 66.9141 55.5078 67.0166 55.6543 67.0752C55.8008 67.1279 55.9854 67.1543 56.208 67.1543C56.3662 67.1543 56.5068 67.1484 56.6299 67.1367C56.7588 67.1191 56.8672 67.1016 56.9551 67.084L56.9639 68.9473C56.7471 69.0176 56.5127 69.0732 56.2607 69.1143C56.0088 69.1553 55.7305 69.1758 55.4258 69.1758C54.8691 69.1758 54.3828 69.085 53.9668 68.9033C53.5566 68.7158 53.2402 68.417 53.0176 68.0068C52.7949 67.5967 52.6836 67.0576 52.6836 66.3896V57.1436ZM62.2197 67.1982C62.5303 67.1982 62.8057 67.1396 63.0459 67.0225C63.2861 66.8994 63.4736 66.7295 63.6084 66.5127C63.749 66.29 63.8223 66.0293 63.8281 65.7305H66.21C66.2041 66.3984 66.0254 66.9932 65.6738 67.5146C65.3223 68.0303 64.8506 68.4375 64.2588 68.7363C63.667 69.0293 63.0049 69.1758 62.2725 69.1758C61.5342 69.1758 60.8896 69.0527 60.3389 68.8066C59.7939 68.5605 59.3398 68.2207 58.9766 67.7871C58.6133 67.3477 58.3408 66.8379 58.1592 66.2578C57.9775 65.6719 57.8867 65.0449 57.8867 64.377V64.1221C57.8867 63.4482 57.9775 62.8213 58.1592 62.2412C58.3408 61.6553 58.6133 61.1455 58.9766 60.7119C59.3398 60.2725 59.7939 59.9297 60.3389 59.6836C60.8838 59.4375 61.5225 59.3145 62.2549 59.3145C63.0342 59.3145 63.7168 59.4639 64.3027 59.7627C64.8945 60.0615 65.3574 60.4893 65.6914 61.0459C66.0312 61.5967 66.2041 62.25 66.21 63.0059H63.8281C63.8223 62.6895 63.7549 62.4023 63.626 62.1445C63.5029 61.8867 63.3213 61.6816 63.0811 61.5293C62.8467 61.3711 62.5566 61.292 62.2109 61.292C61.8418 61.292 61.54 61.3711 61.3057 61.5293C61.0713 61.6816 60.8896 61.8926 60.7607 62.1621C60.6318 62.4258 60.541 62.7275 60.4883 63.0674C60.4414 63.4014 60.418 63.7529 60.418 64.1221V64.377C60.418 64.7461 60.4414 65.1006 60.4883 65.4404C60.5352 65.7803 60.623 66.082 60.752 66.3457C60.8867 66.6094 61.0713 66.8174 61.3057 66.9697C61.54 67.1221 61.8447 67.1982 62.2197 67.1982ZM70.1475 55.5V69H67.6162V55.5H70.1475ZM69.7871 63.9111H69.0928C69.0986 63.249 69.1865 62.6396 69.3564 62.083C69.5264 61.5205 69.7695 61.0342 70.0859 60.624C70.4023 60.208 70.7803 59.8857 71.2197 59.6572C71.665 59.4287 72.1572 59.3145 72.6963 59.3145C73.165 59.3145 73.5898 59.3818 73.9707 59.5166C74.3574 59.6455 74.6885 59.8564 74.9639 60.1494C75.2451 60.4365 75.4619 60.8145 75.6143 61.2832C75.7666 61.752 75.8428 62.3203 75.8428 62.9883V69H73.2939V62.9707C73.2939 62.5488 73.2324 62.2178 73.1094 61.9775C72.9922 61.7314 72.8193 61.5586 72.5908 61.459C72.3682 61.3535 72.0928 61.3008 71.7646 61.3008C71.4014 61.3008 71.0908 61.3682 70.833 61.5029C70.5811 61.6377 70.3789 61.8252 70.2266 62.0654C70.0742 62.2998 69.9629 62.5752 69.8926 62.8916C69.8223 63.208 69.7871 63.5479 69.7871 63.9111ZM82.1445 69.1758C81.4062 69.1758 80.7441 69.0586 80.1582 68.8242C79.5723 68.584 79.0742 68.2529 78.6641 67.8311C78.2598 67.4092 77.9492 66.9199 77.7324 66.3633C77.5156 65.8008 77.4072 65.2031 77.4072 64.5703V64.2188C77.4072 63.498 77.5098 62.8389 77.7148 62.2412C77.9199 61.6436 78.2129 61.125 78.5938 60.6855C78.9805 60.2461 79.4492 59.9092 80 59.6748C80.5508 59.4346 81.1719 59.3145 81.8633 59.3145C82.5371 59.3145 83.1348 59.4258 83.6562 59.6484C84.1777 59.8711 84.6143 60.1875 84.9658 60.5977C85.3232 61.0078 85.5928 61.5 85.7744 62.0742C85.9561 62.6426 86.0469 63.2754 86.0469 63.9727V65.0273H78.4883V63.3398H83.5596V63.1465C83.5596 62.7949 83.4951 62.4814 83.3662 62.2061C83.2432 61.9248 83.0557 61.7021 82.8037 61.5381C82.5518 61.374 82.2295 61.292 81.8369 61.292C81.5029 61.292 81.2158 61.3652 80.9756 61.5117C80.7354 61.6582 80.5391 61.8633 80.3867 62.127C80.2402 62.3906 80.1289 62.7012 80.0527 63.0586C79.9824 63.4102 79.9473 63.7969 79.9473 64.2188V64.5703C79.9473 64.9512 80 65.3027 80.1055 65.625C80.2168 65.9473 80.3721 66.2256 80.5713 66.46C80.7764 66.6943 81.0225 66.876 81.3096 67.0049C81.6025 67.1338 81.9336 67.1982 82.3027 67.1982C82.7598 67.1982 83.1846 67.1104 83.5771 66.9346C83.9756 66.7529 84.3184 66.4805 84.6055 66.1172L85.8359 67.4531C85.6367 67.7402 85.3643 68.0156 85.0186 68.2793C84.6787 68.543 84.2686 68.7598 83.7881 68.9297C83.3076 69.0938 82.7598 69.1758 82.1445 69.1758ZM89.9668 61.5205V69H87.4355V59.4902H89.8086L89.9668 61.5205ZM89.5977 63.9111H88.9121C88.9121 63.208 89.0029 62.5752 89.1846 62.0127C89.3662 61.4443 89.6211 60.9609 89.9492 60.5625C90.2773 60.1582 90.667 59.8506 91.1182 59.6396C91.5752 59.4229 92.085 59.3145 92.6475 59.3145C93.0928 59.3145 93.5 59.3789 93.8691 59.5078C94.2383 59.6367 94.5547 59.8418 94.8184 60.123C95.0879 60.4043 95.293 60.7764 95.4336 61.2393C95.5801 61.7021 95.6533 62.2676 95.6533 62.9355V69H93.1045V62.9268C93.1045 62.5049 93.0459 62.1768 92.9287 61.9424C92.8115 61.708 92.6387 61.5439 92.4102 61.4502C92.1875 61.3506 91.9121 61.3008 91.584 61.3008C91.2441 61.3008 90.9482 61.3682 90.6963 61.5029C90.4502 61.6377 90.2451 61.8252 90.0811 62.0654C89.9229 62.2998 89.8027 62.5752 89.7207 62.8916C89.6387 63.208 89.5977 63.5479 89.5977 63.9111ZM102.72 66.3721C102.72 66.1904 102.667 66.0264 102.562 65.8799C102.456 65.7334 102.26 65.5986 101.973 65.4756C101.691 65.3467 101.284 65.2295 100.751 65.124C100.271 65.0186 99.8223 64.8867 99.4062 64.7285C98.9961 64.5645 98.6387 64.3682 98.334 64.1396C98.0352 63.9111 97.8008 63.6416 97.6309 63.3311C97.4609 63.0146 97.376 62.6543 97.376 62.25C97.376 61.8516 97.4609 61.4766 97.6309 61.125C97.8066 60.7734 98.0557 60.4629 98.3779 60.1934C98.7061 59.918 99.1045 59.7041 99.5732 59.5518C100.048 59.3936 100.581 59.3145 101.173 59.3145C101.999 59.3145 102.708 59.4463 103.3 59.71C103.897 59.9736 104.354 60.3369 104.671 60.7998C104.993 61.2568 105.154 61.7783 105.154 62.3643H102.623C102.623 62.1182 102.57 61.8984 102.465 61.7051C102.365 61.5059 102.207 61.3506 101.99 61.2393C101.779 61.1221 101.504 61.0635 101.164 61.0635C100.883 61.0635 100.64 61.1133 100.435 61.2129C100.229 61.3066 100.071 61.4355 99.96 61.5996C99.8545 61.7578 99.8018 61.9336 99.8018 62.127C99.8018 62.2734 99.8311 62.4053 99.8896 62.5225C99.9541 62.6338 100.057 62.7363 100.197 62.8301C100.338 62.9238 100.52 63.0117 100.742 63.0938C100.971 63.1699 101.252 63.2402 101.586 63.3047C102.271 63.4453 102.884 63.6299 103.423 63.8584C103.962 64.0811 104.39 64.3857 104.706 64.7725C105.022 65.1533 105.181 65.6543 105.181 66.2754C105.181 66.6973 105.087 67.084 104.899 67.4355C104.712 67.7871 104.442 68.0947 104.091 68.3584C103.739 68.6162 103.317 68.8184 102.825 68.9648C102.339 69.1055 101.791 69.1758 101.182 69.1758C100.297 69.1758 99.5469 69.0176 98.9316 68.7012C98.3223 68.3848 97.8594 67.9834 97.543 67.4971C97.2324 67.0049 97.0771 66.501 97.0771 65.9854H99.4766C99.4883 66.3311 99.5762 66.6094 99.7402 66.8203C99.9102 67.0312 100.124 67.1836 100.382 67.2773C100.646 67.3711 100.93 67.418 101.234 67.418C101.562 67.418 101.835 67.374 102.052 67.2861C102.269 67.1924 102.433 67.0693 102.544 66.917C102.661 66.7588 102.72 66.5771 102.72 66.3721Z" fill="#211F54"/>
<g clip-path="url(#clip2_1_1364)">
<path d="M14 132C21.1799 132 27 126.18 27 119C27 111.82 21.1799 106 14 106C6.8201 106 1 111.82 1 119C1 126.18 6.8201 132 14 132Z" fill="#EDF5FF"/>
<path d="M8.11682 119.841L11.4786 123.202L19.8832 114.798" stroke="#0075FF" stroke-width="2" stroke-linecap="round" stroke-linejoin="round"/>
</g>
<path d="M44.3691 112.943V115H37.9268V112.943H44.3691ZM38.7793 102.203V115H36.1426V102.203H38.7793ZM48.3945 105.49V115H45.8545V105.49H48.3945ZM45.6963 103.012C45.6963 102.643 45.8252 102.338 46.083 102.098C46.3408 101.857 46.6865 101.737 47.1201 101.737C47.5479 101.737 47.8906 101.857 48.1484 102.098C48.4121 102.338 48.5439 102.643 48.5439 103.012C48.5439 103.381 48.4121 103.686 48.1484 103.926C47.8906 104.166 47.5479 104.286 47.1201 104.286C46.6865 104.286 46.3408 104.166 46.083 103.926C45.8252 103.686 45.6963 103.381 45.6963 103.012ZM53.7207 113.154L55.8301 105.49H58.4756L55.2676 115H53.668L53.7207 113.154ZM52.2705 105.49L54.3887 113.163L54.4326 115H52.8242L49.6162 105.49H52.2705ZM62.2812 105.49V115H59.7412V105.49H62.2812ZM59.583 103.012C59.583 102.643 59.7119 102.338 59.9697 102.098C60.2275 101.857 60.5732 101.737 61.0068 101.737C61.4346 101.737 61.7773 101.857 62.0352 102.098C62.2988 102.338 62.4307 102.643 62.4307 103.012C62.4307 103.381 62.2988 103.686 62.0352 103.926C61.7773 104.166 61.4346 104.286 61.0068 104.286C60.5732 104.286 60.2275 104.166 59.9697 103.926C59.7119 103.686 59.583 103.381 59.583 103.012ZM66.8516 107.521V115H64.3203V105.49H66.6934L66.8516 107.521ZM66.4824 109.911H65.7969C65.7969 109.208 65.8877 108.575 66.0693 108.013C66.251 107.444 66.5059 106.961 66.834 106.562C67.1621 106.158 67.5518 105.851 68.0029 105.64C68.46 105.423 68.9697 105.314 69.5322 105.314C69.9775 105.314 70.3848 105.379 70.7539 105.508C71.123 105.637 71.4395 105.842 71.7031 106.123C71.9727 106.404 72.1777 106.776 72.3184 107.239C72.4648 107.702 72.5381 108.268 72.5381 108.936V115H69.9893V108.927C69.9893 108.505 69.9307 108.177 69.8135 107.942C69.6963 107.708 69.5234 107.544 69.2949 107.45C69.0723 107.351 68.7969 107.301 68.4688 107.301C68.1289 107.301 67.833 107.368 67.5811 107.503C67.335 107.638 67.1299 107.825 66.9658 108.065C66.8076 108.3 66.6875 108.575 66.6055 108.892C66.5234 109.208 66.4824 109.548 66.4824 109.911ZM80.4834 105.49H82.7773V114.684C82.7773 115.551 82.584 116.286 82.1973 116.89C81.8164 117.499 81.2832 117.959 80.5977 118.27C79.9121 118.586 79.1152 118.744 78.207 118.744C77.8086 118.744 77.3867 118.691 76.9414 118.586C76.502 118.48 76.0801 118.316 75.6758 118.094C75.2773 117.871 74.9434 117.59 74.6738 117.25L75.79 115.756C76.083 116.096 76.4229 116.359 76.8096 116.547C77.1963 116.74 77.624 116.837 78.0928 116.837C78.5498 116.837 78.9365 116.752 79.2529 116.582C79.5693 116.418 79.8125 116.175 79.9824 115.853C80.1523 115.536 80.2373 115.152 80.2373 114.701V107.688L80.4834 105.49ZM74.085 110.359V110.175C74.085 109.448 74.1729 108.789 74.3486 108.197C74.5303 107.6 74.7852 107.087 75.1133 106.659C75.4473 106.231 75.8516 105.9 76.3262 105.666C76.8008 105.432 77.3369 105.314 77.9346 105.314C78.5674 105.314 79.0977 105.432 79.5254 105.666C79.9531 105.9 80.3047 106.234 80.5801 106.668C80.8555 107.096 81.0693 107.603 81.2217 108.188C81.3799 108.769 81.5029 109.404 81.5908 110.096V110.5C81.5029 111.162 81.3711 111.777 81.1953 112.346C81.0195 112.914 80.7881 113.412 80.501 113.84C80.2139 114.262 79.8564 114.59 79.4287 114.824C79.0068 115.059 78.5029 115.176 77.917 115.176C77.3311 115.176 76.8008 115.056 76.3262 114.815C75.8574 114.575 75.4561 114.238 75.1221 113.805C74.7881 113.371 74.5303 112.861 74.3486 112.275C74.1729 111.689 74.085 111.051 74.085 110.359ZM76.6162 110.175V110.359C76.6162 110.752 76.6543 111.118 76.7305 111.458C76.8066 111.798 76.9238 112.1 77.082 112.363C77.2461 112.621 77.4482 112.823 77.6885 112.97C77.9346 113.11 78.2246 113.181 78.5586 113.181C79.0215 113.181 79.3994 113.084 79.6924 112.891C79.9854 112.691 80.2051 112.419 80.3516 112.073C80.498 111.728 80.583 111.329 80.6064 110.878V109.727C80.5947 109.357 80.5449 109.026 80.457 108.733C80.3691 108.435 80.2461 108.18 80.0879 107.969C79.9297 107.758 79.7246 107.594 79.4727 107.477C79.2207 107.359 78.9219 107.301 78.5762 107.301C78.2422 107.301 77.9521 107.377 77.7061 107.529C77.4658 107.676 77.2637 107.878 77.0996 108.136C76.9414 108.394 76.8213 108.698 76.7393 109.05C76.6572 109.396 76.6162 109.771 76.6162 110.175ZM36.1426 122.203H40.915C41.8936 122.203 42.7344 122.35 43.4375 122.643C44.1465 122.936 44.6914 123.369 45.0723 123.943C45.4531 124.518 45.6436 125.224 45.6436 126.062C45.6436 126.747 45.5264 127.336 45.292 127.828C45.0635 128.314 44.7383 128.722 44.3164 129.05C43.9004 129.372 43.4111 129.63 42.8486 129.823L42.0137 130.263H37.8652L37.8477 128.206H40.9326C41.3955 128.206 41.7793 128.124 42.084 127.96C42.3887 127.796 42.6172 127.567 42.7695 127.274C42.9277 126.981 43.0068 126.642 43.0068 126.255C43.0068 125.845 42.9307 125.49 42.7783 125.191C42.626 124.893 42.3945 124.664 42.084 124.506C41.7734 124.348 41.3838 124.269 40.915 124.269H38.7793V135H36.1426V122.203ZM43.2969 135L40.3789 129.296L43.165 129.278L46.1182 134.877V135H43.2969ZM47.1113 130.342V130.157C47.1113 129.46 47.2109 128.818 47.4102 128.232C47.6094 127.641 47.8994 127.128 48.2803 126.694C48.6611 126.261 49.1299 125.924 49.6865 125.684C50.2432 125.438 50.8818 125.314 51.6025 125.314C52.3232 125.314 52.9648 125.438 53.5273 125.684C54.0898 125.924 54.5615 126.261 54.9424 126.694C55.3291 127.128 55.6221 127.641 55.8213 128.232C56.0205 128.818 56.1201 129.46 56.1201 130.157V130.342C56.1201 131.033 56.0205 131.675 55.8213 132.267C55.6221 132.853 55.3291 133.365 54.9424 133.805C54.5615 134.238 54.0928 134.575 53.5361 134.815C52.9795 135.056 52.3408 135.176 51.6201 135.176C50.8994 135.176 50.2578 135.056 49.6953 134.815C49.1387 134.575 48.667 134.238 48.2803 133.805C47.8994 133.365 47.6094 132.853 47.4102 132.267C47.2109 131.675 47.1113 131.033 47.1113 130.342ZM49.6426 130.157V130.342C49.6426 130.74 49.6777 131.112 49.748 131.458C49.8184 131.804 49.9297 132.108 50.082 132.372C50.2402 132.63 50.4453 132.832 50.6973 132.979C50.9492 133.125 51.2568 133.198 51.6201 133.198C51.9717 133.198 52.2734 133.125 52.5254 132.979C52.7773 132.832 52.9795 132.63 53.1318 132.372C53.2842 132.108 53.3955 131.804 53.4658 131.458C53.542 131.112 53.5801 130.74 53.5801 130.342V130.157C53.5801 129.771 53.542 129.407 53.4658 129.067C53.3955 128.722 53.2812 128.417 53.123 128.153C52.9707 127.884 52.7686 127.673 52.5166 127.521C52.2646 127.368 51.96 127.292 51.6025 127.292C51.2451 127.292 50.9404 127.368 50.6885 127.521C50.4424 127.673 50.2402 127.884 50.082 128.153C49.9297 128.417 49.8184 128.722 49.748 129.067C49.6777 129.407 49.6426 129.771 49.6426 130.157ZM57.2715 130.342V130.157C57.2715 129.46 57.3711 128.818 57.5703 128.232C57.7695 127.641 58.0596 127.128 58.4404 126.694C58.8213 126.261 59.29 125.924 59.8467 125.684C60.4033 125.438 61.042 125.314 61.7627 125.314C62.4834 125.314 63.125 125.438 63.6875 125.684C64.25 125.924 64.7217 126.261 65.1025 126.694C65.4893 127.128 65.7822 127.641 65.9814 128.232C66.1807 128.818 66.2803 129.46 66.2803 130.157V130.342C66.2803 131.033 66.1807 131.675 65.9814 132.267C65.7822 132.853 65.4893 133.365 65.1025 133.805C64.7217 134.238 64.2529 134.575 63.6963 134.815C63.1396 135.056 62.501 135.176 61.7803 135.176C61.0596 135.176 60.418 135.056 59.8555 134.815C59.2988 134.575 58.8271 134.238 58.4404 133.805C58.0596 133.365 57.7695 132.853 57.5703 132.267C57.3711 131.675 57.2715 131.033 57.2715 130.342ZM59.8027 130.157V130.342C59.8027 130.74 59.8379 131.112 59.9082 131.458C59.9785 131.804 60.0898 132.108 60.2422 132.372C60.4004 132.63 60.6055 132.832 60.8574 132.979C61.1094 133.125 61.417 133.198 61.7803 133.198C62.1318 133.198 62.4336 133.125 62.6855 132.979C62.9375 132.832 63.1396 132.63 63.292 132.372C63.4443 132.108 63.5557 131.804 63.626 131.458C63.7021 131.112 63.7402 130.74 63.7402 130.342V130.157C63.7402 129.771 63.7021 129.407 63.626 129.067C63.5557 128.722 63.4414 128.417 63.2832 128.153C63.1309 127.884 62.9287 127.673 62.6768 127.521C62.4248 127.368 62.1201 127.292 61.7627 127.292C61.4053 127.292 61.1006 127.368 60.8486 127.521C60.6025 127.673 60.4004 127.884 60.2422 128.153C60.0898 128.417 59.9785 128.722 59.9082 129.067C59.8379 129.407 59.8027 129.771 59.8027 130.157ZM70.3672 127.459V135H67.8271V125.49H70.209L70.3672 127.459ZM70.0156 129.911H69.3125C69.3125 129.249 69.3916 128.64 69.5498 128.083C69.7139 127.521 69.9512 127.034 70.2617 126.624C70.5781 126.208 70.9678 125.886 71.4307 125.657C71.8936 125.429 72.4297 125.314 73.0391 125.314C73.4609 125.314 73.8477 125.379 74.1992 125.508C74.5508 125.631 74.8525 125.827 75.1045 126.097C75.3623 126.36 75.5615 126.706 75.7021 127.134C75.8428 127.556 75.9131 128.062 75.9131 128.654V135H73.3818V128.936C73.3818 128.502 73.3232 128.168 73.2061 127.934C73.0889 127.699 72.9219 127.535 72.7051 127.441C72.4941 127.348 72.2393 127.301 71.9404 127.301C71.6123 127.301 71.3252 127.368 71.0791 127.503C70.8389 127.638 70.6396 127.825 70.4814 128.065C70.3232 128.3 70.2061 128.575 70.1299 128.892C70.0537 129.208 70.0156 129.548 70.0156 129.911ZM75.6758 129.621L74.7705 129.735C74.7705 129.114 74.8467 128.537 74.999 128.004C75.1572 127.471 75.3887 127.002 75.6934 126.598C76.0039 126.193 76.3877 125.88 76.8447 125.657C77.3018 125.429 77.8291 125.314 78.4268 125.314C78.8838 125.314 79.2998 125.382 79.6748 125.517C80.0498 125.646 80.3691 125.854 80.6328 126.141C80.9023 126.422 81.1074 126.791 81.248 127.248C81.3945 127.705 81.4678 128.265 81.4678 128.927V135H78.9277V128.927C78.9277 128.487 78.8691 128.153 78.752 127.925C78.6406 127.69 78.4766 127.529 78.2598 127.441C78.0488 127.348 77.7969 127.301 77.5039 127.301C77.1992 127.301 76.9326 127.362 76.7041 127.485C76.4756 127.603 76.2852 127.767 76.1328 127.978C75.9805 128.188 75.8662 128.435 75.79 128.716C75.7139 128.991 75.6758 129.293 75.6758 129.621ZM88.5693 132.372C88.5693 132.19 88.5166 132.026 88.4111 131.88C88.3057 131.733 88.1094 131.599 87.8223 131.476C87.541 131.347 87.1338 131.229 86.6006 131.124C86.1201 131.019 85.6719 130.887 85.2559 130.729C84.8457 130.564 84.4883 130.368 84.1836 130.14C83.8848 129.911 83.6504 129.642 83.4805 129.331C83.3105 129.015 83.2256 128.654 83.2256 128.25C83.2256 127.852 83.3105 127.477 83.4805 127.125C83.6562 126.773 83.9053 126.463 84.2275 126.193C84.5557 125.918 84.9541 125.704 85.4229 125.552C85.8975 125.394 86.4307 125.314 87.0225 125.314C87.8486 125.314 88.5576 125.446 89.1494 125.71C89.7471 125.974 90.2041 126.337 90.5205 126.8C90.8428 127.257 91.0039 127.778 91.0039 128.364H88.4727C88.4727 128.118 88.4199 127.898 88.3145 127.705C88.2148 127.506 88.0566 127.351 87.8398 127.239C87.6289 127.122 87.3535 127.063 87.0137 127.063C86.7324 127.063 86.4893 127.113 86.2842 127.213C86.0791 127.307 85.9209 127.436 85.8096 127.6C85.7041 127.758 85.6514 127.934 85.6514 128.127C85.6514 128.273 85.6807 128.405 85.7393 128.522C85.8037 128.634 85.9062 128.736 86.0469 128.83C86.1875 128.924 86.3691 129.012 86.5918 129.094C86.8203 129.17 87.1016 129.24 87.4355 129.305C88.1211 129.445 88.7334 129.63 89.2725 129.858C89.8115 130.081 90.2393 130.386 90.5557 130.772C90.8721 131.153 91.0303 131.654 91.0303 132.275C91.0303 132.697 90.9365 133.084 90.749 133.436C90.5615 133.787 90.292 134.095 89.9404 134.358C89.5889 134.616 89.167 134.818 88.6748 134.965C88.1885 135.105 87.6406 135.176 87.0312 135.176C86.1465 135.176 85.3965 135.018 84.7812 134.701C84.1719 134.385 83.709 133.983 83.3926 133.497C83.082 133.005 82.9268 132.501 82.9268 131.985H85.3262C85.3379 132.331 85.4258 132.609 85.5898 132.82C85.7598 133.031 85.9736 133.184 86.2314 133.277C86.4951 133.371 86.7793 133.418 87.084 133.418C87.4121 133.418 87.6846 133.374 87.9014 133.286C88.1182 133.192 88.2822 133.069 88.3936 132.917C88.5107 132.759 88.5693 132.577 88.5693 132.372Z" fill="#211F54"/>
<g clip-path="url(#clip3_1_1364)">
<path d="M14 188C21.1799 188 27 182.18 27 175C27 167.82 21.1799 162 14 162C6.8201 162 1 167.82 1 175C1 182.18 6.8201 188 14 188Z" fill="#EDF5FF"/>
<path d="M8.11682 175.841L11.4786 179.202L19.8832 170.798" stroke="#0075FF" stroke-width="2" stroke-linecap="round" stroke-linejoin="round"/>
</g>
<path d="M43.5605 176.755H46.1885C46.1357 177.616 45.8984 178.381 45.4766 179.049C45.0605 179.717 44.4775 180.238 43.7275 180.613C42.9834 180.988 42.0869 181.176 41.0381 181.176C40.2178 181.176 39.4824 181.035 38.832 180.754C38.1816 180.467 37.625 180.057 37.1621 179.523C36.7051 178.99 36.3564 178.346 36.1162 177.59C35.876 176.834 35.7559 175.987 35.7559 175.05V174.162C35.7559 173.225 35.8789 172.378 36.125 171.622C36.377 170.86 36.7344 170.213 37.1973 169.68C37.666 169.146 38.2256 168.736 38.876 168.449C39.5264 168.162 40.2529 168.019 41.0557 168.019C42.1221 168.019 43.0215 168.212 43.7539 168.599C44.4922 168.985 45.0635 169.519 45.4678 170.198C45.8779 170.878 46.124 171.651 46.2061 172.519H43.5693C43.54 172.003 43.4375 171.566 43.2617 171.209C43.0859 170.846 42.8193 170.573 42.4619 170.392C42.1104 170.204 41.6416 170.11 41.0557 170.11C40.6162 170.11 40.2324 170.192 39.9043 170.356C39.5762 170.521 39.3008 170.77 39.0781 171.104C38.8555 171.438 38.6885 171.859 38.5771 172.369C38.4717 172.873 38.4189 173.465 38.4189 174.145V175.05C38.4189 175.712 38.4688 176.295 38.5684 176.799C38.668 177.297 38.8203 177.719 39.0254 178.064C39.2363 178.404 39.5059 178.662 39.834 178.838C40.168 179.008 40.5693 179.093 41.0381 179.093C41.5889 179.093 42.043 179.005 42.4004 178.829C42.7578 178.653 43.0303 178.393 43.2178 178.047C43.4111 177.701 43.5254 177.271 43.5605 176.755ZM52.8945 178.855V174.619C52.8945 174.314 52.8447 174.054 52.7451 173.837C52.6455 173.614 52.4902 173.441 52.2793 173.318C52.0742 173.195 51.8076 173.134 51.4795 173.134C51.1982 173.134 50.9551 173.184 50.75 173.283C50.5449 173.377 50.3867 173.515 50.2754 173.696C50.1641 173.872 50.1084 174.08 50.1084 174.32H47.5771C47.5771 173.916 47.6709 173.532 47.8584 173.169C48.0459 172.806 48.3184 172.486 48.6758 172.211C49.0332 171.93 49.458 171.71 49.9502 171.552C50.4482 171.394 51.0049 171.314 51.6201 171.314C52.3584 171.314 53.0146 171.438 53.5889 171.684C54.1631 171.93 54.6143 172.299 54.9424 172.791C55.2764 173.283 55.4434 173.898 55.4434 174.637V178.706C55.4434 179.228 55.4756 179.655 55.54 179.989C55.6045 180.317 55.6982 180.604 55.8213 180.851V181H53.2637C53.1406 180.742 53.0469 180.42 52.9824 180.033C52.9238 179.641 52.8945 179.248 52.8945 178.855ZM53.2285 175.208L53.2461 176.641H51.8311C51.4971 176.641 51.207 176.679 50.9609 176.755C50.7148 176.831 50.5127 176.939 50.3545 177.08C50.1963 177.215 50.0791 177.373 50.0029 177.555C49.9326 177.736 49.8975 177.936 49.8975 178.152C49.8975 178.369 49.9473 178.565 50.0469 178.741C50.1465 178.911 50.29 179.046 50.4775 179.146C50.665 179.239 50.8848 179.286 51.1367 179.286C51.5176 179.286 51.8486 179.21 52.1299 179.058C52.4111 178.905 52.6279 178.718 52.7803 178.495C52.9385 178.272 53.0205 178.062 53.0264 177.862L53.6943 178.935C53.6006 179.175 53.4717 179.424 53.3076 179.682C53.1494 179.939 52.9473 180.183 52.7012 180.411C52.4551 180.634 52.1592 180.818 51.8135 180.965C51.4678 181.105 51.0576 181.176 50.583 181.176C49.9795 181.176 49.4316 181.056 48.9395 180.815C48.4531 180.569 48.0664 180.232 47.7793 179.805C47.498 179.371 47.3574 178.879 47.3574 178.328C47.3574 177.83 47.4512 177.388 47.6387 177.001C47.8262 176.614 48.1016 176.289 48.4648 176.025C48.834 175.756 49.2939 175.554 49.8447 175.419C50.3955 175.278 51.0342 175.208 51.7607 175.208H53.2285ZM59.9258 173.564V181H57.3945V171.49H59.7764L59.9258 173.564ZM62.791 171.429L62.7471 173.775C62.624 173.758 62.4746 173.743 62.2988 173.731C62.1289 173.714 61.9736 173.705 61.833 173.705C61.4756 173.705 61.165 173.752 60.9014 173.846C60.6436 173.934 60.4268 174.065 60.251 174.241C60.0811 174.417 59.9521 174.631 59.8643 174.883C59.7822 175.135 59.7354 175.422 59.7236 175.744L59.2139 175.586C59.2139 174.971 59.2754 174.405 59.3984 173.89C59.5215 173.368 59.7002 172.914 59.9346 172.527C60.1748 172.141 60.4678 171.842 60.8135 171.631C61.1592 171.42 61.5547 171.314 62 171.314C62.1406 171.314 62.2842 171.326 62.4307 171.35C62.5771 171.367 62.6973 171.394 62.791 171.429ZM66.5176 173.318V184.656H63.9863V171.49H66.333L66.5176 173.318ZM72.5381 176.14V176.324C72.5381 177.016 72.4561 177.657 72.292 178.249C72.1338 178.841 71.8994 179.356 71.5889 179.796C71.2783 180.229 70.8916 180.569 70.4287 180.815C69.9717 181.056 69.4443 181.176 68.8467 181.176C68.2666 181.176 67.7627 181.059 67.335 180.824C66.9072 180.59 66.5469 180.262 66.2539 179.84C65.9668 179.412 65.7354 178.917 65.5596 178.354C65.3838 177.792 65.249 177.188 65.1553 176.544V176.061C65.249 175.369 65.3838 174.736 65.5596 174.162C65.7354 173.582 65.9668 173.081 66.2539 172.659C66.5469 172.231 66.9043 171.9 67.3262 171.666C67.7539 171.432 68.2549 171.314 68.8291 171.314C69.4326 171.314 69.9629 171.429 70.4199 171.657C70.8828 171.886 71.2695 172.214 71.5801 172.642C71.8965 173.069 72.1338 173.579 72.292 174.171C72.4561 174.763 72.5381 175.419 72.5381 176.14ZM69.998 176.324V176.14C69.998 175.735 69.9629 175.363 69.8926 175.023C69.8281 174.678 69.7227 174.376 69.5762 174.118C69.4355 173.86 69.248 173.661 69.0137 173.521C68.7852 173.374 68.5068 173.301 68.1787 173.301C67.833 173.301 67.5371 173.356 67.291 173.468C67.0508 173.579 66.8545 173.74 66.7021 173.951C66.5498 174.162 66.4355 174.414 66.3594 174.707C66.2832 175 66.2363 175.331 66.2188 175.7V176.922C66.248 177.355 66.3301 177.745 66.4648 178.091C66.5996 178.431 66.8076 178.7 67.0889 178.899C67.3701 179.099 67.7393 179.198 68.1963 179.198C68.5303 179.198 68.8115 179.125 69.04 178.979C69.2686 178.826 69.4531 178.618 69.5938 178.354C69.7402 178.091 69.8428 177.786 69.9014 177.44C69.9658 177.095 69.998 176.723 69.998 176.324ZM78.4883 181.176C77.75 181.176 77.0879 181.059 76.502 180.824C75.916 180.584 75.418 180.253 75.0078 179.831C74.6035 179.409 74.293 178.92 74.0762 178.363C73.8594 177.801 73.751 177.203 73.751 176.57V176.219C73.751 175.498 73.8535 174.839 74.0586 174.241C74.2637 173.644 74.5566 173.125 74.9375 172.686C75.3242 172.246 75.793 171.909 76.3438 171.675C76.8945 171.435 77.5156 171.314 78.207 171.314C78.8809 171.314 79.4785 171.426 80 171.648C80.5215 171.871 80.958 172.188 81.3096 172.598C81.667 173.008 81.9365 173.5 82.1182 174.074C82.2998 174.643 82.3906 175.275 82.3906 175.973V177.027H74.832V175.34H79.9033V175.146C79.9033 174.795 79.8389 174.481 79.71 174.206C79.5869 173.925 79.3994 173.702 79.1475 173.538C78.8955 173.374 78.5732 173.292 78.1807 173.292C77.8467 173.292 77.5596 173.365 77.3193 173.512C77.0791 173.658 76.8828 173.863 76.7305 174.127C76.584 174.391 76.4727 174.701 76.3965 175.059C76.3262 175.41 76.291 175.797 76.291 176.219V176.57C76.291 176.951 76.3438 177.303 76.4492 177.625C76.5605 177.947 76.7158 178.226 76.915 178.46C77.1201 178.694 77.3662 178.876 77.6533 179.005C77.9463 179.134 78.2773 179.198 78.6465 179.198C79.1035 179.198 79.5283 179.11 79.9209 178.935C80.3193 178.753 80.6621 178.48 80.9492 178.117L82.1797 179.453C81.9805 179.74 81.708 180.016 81.3623 180.279C81.0225 180.543 80.6123 180.76 80.1318 180.93C79.6514 181.094 79.1035 181.176 78.4883 181.176ZM88.4902 171.49V173.283H82.9531V171.49H88.4902ZM84.3242 169.144H86.8555V178.135C86.8555 178.41 86.8906 178.621 86.9609 178.768C87.0371 178.914 87.1484 179.017 87.2949 179.075C87.4414 179.128 87.626 179.154 87.8486 179.154C88.0068 179.154 88.1475 179.148 88.2705 179.137C88.3994 179.119 88.5078 179.102 88.5957 179.084L88.6045 180.947C88.3877 181.018 88.1533 181.073 87.9014 181.114C87.6494 181.155 87.3711 181.176 87.0664 181.176C86.5098 181.176 86.0234 181.085 85.6074 180.903C85.1973 180.716 84.8809 180.417 84.6582 180.007C84.4355 179.597 84.3242 179.058 84.3242 178.39V169.144ZM95.0732 178.372C95.0732 178.19 95.0205 178.026 94.915 177.88C94.8096 177.733 94.6133 177.599 94.3262 177.476C94.0449 177.347 93.6377 177.229 93.1045 177.124C92.624 177.019 92.1758 176.887 91.7598 176.729C91.3496 176.564 90.9922 176.368 90.6875 176.14C90.3887 175.911 90.1543 175.642 89.9844 175.331C89.8145 175.015 89.7295 174.654 89.7295 174.25C89.7295 173.852 89.8145 173.477 89.9844 173.125C90.1602 172.773 90.4092 172.463 90.7314 172.193C91.0596 171.918 91.458 171.704 91.9268 171.552C92.4014 171.394 92.9346 171.314 93.5264 171.314C94.3525 171.314 95.0615 171.446 95.6533 171.71C96.251 171.974 96.708 172.337 97.0244 172.8C97.3467 173.257 97.5078 173.778 97.5078 174.364H94.9766C94.9766 174.118 94.9238 173.898 94.8184 173.705C94.7188 173.506 94.5605 173.351 94.3438 173.239C94.1328 173.122 93.8574 173.063 93.5176 173.063C93.2363 173.063 92.9932 173.113 92.7881 173.213C92.583 173.307 92.4248 173.436 92.3135 173.6C92.208 173.758 92.1553 173.934 92.1553 174.127C92.1553 174.273 92.1846 174.405 92.2432 174.522C92.3076 174.634 92.4102 174.736 92.5508 174.83C92.6914 174.924 92.873 175.012 93.0957 175.094C93.3242 175.17 93.6055 175.24 93.9395 175.305C94.625 175.445 95.2373 175.63 95.7764 175.858C96.3154 176.081 96.7432 176.386 97.0596 176.772C97.376 177.153 97.5342 177.654 97.5342 178.275C97.5342 178.697 97.4404 179.084 97.2529 179.436C97.0654 179.787 96.7959 180.095 96.4443 180.358C96.0928 180.616 95.6709 180.818 95.1787 180.965C94.6924 181.105 94.1445 181.176 93.5352 181.176C92.6504 181.176 91.9004 181.018 91.2852 180.701C90.6758 180.385 90.2129 179.983 89.8965 179.497C89.5859 179.005 89.4307 178.501 89.4307 177.985H91.8301C91.8418 178.331 91.9297 178.609 92.0938 178.82C92.2637 179.031 92.4775 179.184 92.7354 179.277C92.999 179.371 93.2832 179.418 93.5879 179.418C93.916 179.418 94.1885 179.374 94.4053 179.286C94.6221 179.192 94.7861 179.069 94.8975 178.917C95.0146 178.759 95.0732 178.577 95.0732 178.372Z" fill="#211F54"/>
<g clip-path="url(#clip4_1_1364)">
<path d="M217 32C224.18 32 230 26.1799 230 19C230 11.8201 224.18 6 217 6C209.82 6 204 11.8201 204 19C204 26.1799 209.82 32 217 32Z" fill="#EDF5FF"/>
<path d="M211.117 19.8406L214.479 23.2024L222.883 14.7979" stroke="#0075FF" stroke-width="2" stroke-linecap="round" stroke-linejoin="round"/>
</g>
<path d="M244.152 19.3838H240.865L240.848 17.5732H243.607C244.094 17.5732 244.492 17.5117 244.803 17.3887C245.113 17.2598 245.345 17.0752 245.497 16.835C245.655 16.5889 245.734 16.29 245.734 15.9385C245.734 15.54 245.658 15.2178 245.506 14.9717C245.359 14.7256 245.128 14.5469 244.812 14.4355C244.501 14.3242 244.1 14.2686 243.607 14.2686H241.779V25H239.143V12.2031H243.607C244.352 12.2031 245.017 12.2734 245.603 12.4141C246.194 12.5547 246.695 12.7686 247.105 13.0557C247.516 13.3428 247.829 13.7061 248.046 14.1455C248.263 14.5791 248.371 15.0947 248.371 15.6924C248.371 16.2197 248.251 16.7061 248.011 17.1514C247.776 17.5967 247.404 17.96 246.895 18.2412C246.391 18.5225 245.731 18.6777 244.917 18.707L244.152 19.3838ZM244.038 25H240.145L241.173 22.9434H244.038C244.501 22.9434 244.879 22.8701 245.172 22.7236C245.465 22.5713 245.682 22.3662 245.822 22.1084C245.963 21.8506 246.033 21.5547 246.033 21.2207C246.033 20.8457 245.969 20.5205 245.84 20.2451C245.717 19.9697 245.518 19.7588 245.242 19.6123C244.967 19.46 244.604 19.3838 244.152 19.3838H241.612L241.63 17.5732H244.794L245.4 18.2852C246.18 18.2734 246.807 18.4111 247.281 18.6982C247.762 18.9795 248.11 19.3457 248.327 19.7969C248.55 20.248 248.661 20.7314 248.661 21.2471C248.661 22.0674 248.482 22.7588 248.125 23.3213C247.768 23.8779 247.243 24.2969 246.552 24.5781C245.866 24.8594 245.028 25 244.038 25ZM254.857 25.1758C254.119 25.1758 253.457 25.0586 252.871 24.8242C252.285 24.584 251.787 24.2529 251.377 23.8311C250.973 23.4092 250.662 22.9199 250.445 22.3633C250.229 21.8008 250.12 21.2031 250.12 20.5703V20.2188C250.12 19.498 250.223 18.8389 250.428 18.2412C250.633 17.6436 250.926 17.125 251.307 16.6855C251.693 16.2461 252.162 15.9092 252.713 15.6748C253.264 15.4346 253.885 15.3145 254.576 15.3145C255.25 15.3145 255.848 15.4258 256.369 15.6484C256.891 15.8711 257.327 16.1875 257.679 16.5977C258.036 17.0078 258.306 17.5 258.487 18.0742C258.669 18.6426 258.76 19.2754 258.76 19.9727V21.0273H251.201V19.3398H256.272V19.1465C256.272 18.7949 256.208 18.4814 256.079 18.2061C255.956 17.9248 255.769 17.7021 255.517 17.5381C255.265 17.374 254.942 17.292 254.55 17.292C254.216 17.292 253.929 17.3652 253.688 17.5117C253.448 17.6582 253.252 17.8633 253.1 18.127C252.953 18.3906 252.842 18.7012 252.766 19.0586C252.695 19.4102 252.66 19.7969 252.66 20.2188V20.5703C252.66 20.9512 252.713 21.3027 252.818 21.625C252.93 21.9473 253.085 22.2256 253.284 22.46C253.489 22.6943 253.735 22.876 254.022 23.0049C254.315 23.1338 254.646 23.1982 255.016 23.1982C255.473 23.1982 255.897 23.1104 256.29 22.9346C256.688 22.7529 257.031 22.4805 257.318 22.1172L258.549 23.4531C258.35 23.7402 258.077 24.0156 257.731 24.2793C257.392 24.543 256.981 24.7598 256.501 24.9297C256.021 25.0938 255.473 25.1758 254.857 25.1758ZM265.817 22.9258V11.5H268.366V25H266.072L265.817 22.9258ZM259.806 20.3594V20.1748C259.806 19.4482 259.888 18.7891 260.052 18.1973C260.216 17.5996 260.456 17.0869 260.772 16.6592C261.089 16.2314 261.479 15.9004 261.941 15.666C262.404 15.4316 262.932 15.3145 263.523 15.3145C264.08 15.3145 264.566 15.4316 264.982 15.666C265.404 15.9004 265.762 16.2344 266.055 16.668C266.354 17.0957 266.594 17.6025 266.775 18.1885C266.957 18.7686 267.089 19.4043 267.171 20.0957V20.5C267.089 21.1621 266.957 21.7773 266.775 22.3457C266.594 22.9141 266.354 23.4121 266.055 23.8398C265.762 24.2617 265.404 24.5898 264.982 24.8242C264.561 25.0586 264.068 25.1758 263.506 25.1758C262.914 25.1758 262.387 25.0557 261.924 24.8154C261.467 24.5752 261.08 24.2383 260.764 23.8047C260.453 23.3711 260.216 22.8613 260.052 22.2754C259.888 21.6895 259.806 21.0508 259.806 20.3594ZM262.337 20.1748V20.3594C262.337 20.752 262.366 21.1182 262.425 21.458C262.489 21.7979 262.592 22.0996 262.732 22.3633C262.879 22.6211 263.066 22.8232 263.295 22.9697C263.529 23.1104 263.813 23.1807 264.147 23.1807C264.581 23.1807 264.938 23.084 265.22 22.8906C265.501 22.6914 265.715 22.4189 265.861 22.0732C266.014 21.7275 266.102 21.3291 266.125 20.8779V19.7266C266.107 19.3574 266.055 19.0264 265.967 18.7334C265.885 18.4346 265.762 18.1797 265.598 17.9688C265.439 17.7578 265.24 17.5938 265 17.4766C264.766 17.3594 264.487 17.3008 264.165 17.3008C263.837 17.3008 263.556 17.377 263.321 17.5293C263.087 17.6758 262.896 17.8779 262.75 18.1357C262.609 18.3936 262.504 18.6982 262.434 19.0498C262.369 19.3955 262.337 19.7705 262.337 20.1748ZM272.875 17.5645V25H270.344V15.4902H272.726L272.875 17.5645ZM275.74 15.4287L275.696 17.7754C275.573 17.7578 275.424 17.7432 275.248 17.7314C275.078 17.7139 274.923 17.7051 274.782 17.7051C274.425 17.7051 274.114 17.752 273.851 17.8457C273.593 17.9336 273.376 18.0654 273.2 18.2412C273.03 18.417 272.901 18.6309 272.813 18.8828C272.731 19.1348 272.685 19.4219 272.673 19.7441L272.163 19.5859C272.163 18.9707 272.225 18.4053 272.348 17.8896C272.471 17.3682 272.649 16.9141 272.884 16.5273C273.124 16.1406 273.417 15.8418 273.763 15.6309C274.108 15.4199 274.504 15.3145 274.949 15.3145C275.09 15.3145 275.233 15.3262 275.38 15.3496C275.526 15.3672 275.646 15.3936 275.74 15.4287ZM276.268 20.3418V20.1572C276.268 19.46 276.367 18.8184 276.566 18.2324C276.766 17.6406 277.056 17.1279 277.437 16.6943C277.817 16.2607 278.286 15.9238 278.843 15.6836C279.399 15.4375 280.038 15.3145 280.759 15.3145C281.479 15.3145 282.121 15.4375 282.684 15.6836C283.246 15.9238 283.718 16.2607 284.099 16.6943C284.485 17.1279 284.778 17.6406 284.978 18.2324C285.177 18.8184 285.276 19.46 285.276 20.1572V20.3418C285.276 21.0332 285.177 21.6748 284.978 22.2666C284.778 22.8525 284.485 23.3652 284.099 23.8047C283.718 24.2383 283.249 24.5752 282.692 24.8154C282.136 25.0557 281.497 25.1758 280.776 25.1758C280.056 25.1758 279.414 25.0557 278.852 24.8154C278.295 24.5752 277.823 24.2383 277.437 23.8047C277.056 23.3652 276.766 22.8525 276.566 22.2666C276.367 21.6748 276.268 21.0332 276.268 20.3418ZM278.799 20.1572V20.3418C278.799 20.7402 278.834 21.1123 278.904 21.458C278.975 21.8037 279.086 22.1084 279.238 22.3721C279.396 22.6299 279.602 22.832 279.854 22.9785C280.105 23.125 280.413 23.1982 280.776 23.1982C281.128 23.1982 281.43 23.125 281.682 22.9785C281.934 22.832 282.136 22.6299 282.288 22.3721C282.44 22.1084 282.552 21.8037 282.622 21.458C282.698 21.1123 282.736 20.7402 282.736 20.3418V20.1572C282.736 19.7705 282.698 19.4072 282.622 19.0674C282.552 18.7217 282.438 18.417 282.279 18.1533C282.127 17.8838 281.925 17.6729 281.673 17.5205C281.421 17.3682 281.116 17.292 280.759 17.292C280.401 17.292 280.097 17.3682 279.845 17.5205C279.599 17.6729 279.396 17.8838 279.238 18.1533C279.086 18.417 278.975 18.7217 278.904 19.0674C278.834 19.4072 278.799 19.7705 278.799 20.1572ZM286.428 20.3418V20.1572C286.428 19.46 286.527 18.8184 286.727 18.2324C286.926 17.6406 287.216 17.1279 287.597 16.6943C287.978 16.2607 288.446 15.9238 289.003 15.6836C289.56 15.4375 290.198 15.3145 290.919 15.3145C291.64 15.3145 292.281 15.4375 292.844 15.6836C293.406 15.9238 293.878 16.2607 294.259 16.6943C294.646 17.1279 294.938 17.6406 295.138 18.2324C295.337 18.8184 295.437 19.46 295.437 20.1572V20.3418C295.437 21.0332 295.337 21.6748 295.138 22.2666C294.938 22.8525 294.646 23.3652 294.259 23.8047C293.878 24.2383 293.409 24.5752 292.853 24.8154C292.296 25.0557 291.657 25.1758 290.937 25.1758C290.216 25.1758 289.574 25.0557 289.012 24.8154C288.455 24.5752 287.983 24.2383 287.597 23.8047C287.216 23.3652 286.926 22.8525 286.727 22.2666C286.527 21.6748 286.428 21.0332 286.428 20.3418ZM288.959 20.1572V20.3418C288.959 20.7402 288.994 21.1123 289.064 21.458C289.135 21.8037 289.246 22.1084 289.398 22.3721C289.557 22.6299 289.762 22.832 290.014 22.9785C290.266 23.125 290.573 23.1982 290.937 23.1982C291.288 23.1982 291.59 23.125 291.842 22.9785C292.094 22.832 292.296 22.6299 292.448 22.3721C292.601 22.1084 292.712 21.8037 292.782 21.458C292.858 21.1123 292.896 20.7402 292.896 20.3418V20.1572C292.896 19.7705 292.858 19.4072 292.782 19.0674C292.712 18.7217 292.598 18.417 292.439 18.1533C292.287 17.8838 292.085 17.6729 291.833 17.5205C291.581 17.3682 291.276 17.292 290.919 17.292C290.562 17.292 290.257 17.3682 290.005 17.5205C289.759 17.6729 289.557 17.8838 289.398 18.1533C289.246 18.417 289.135 18.7217 289.064 19.0674C288.994 19.4072 288.959 19.7705 288.959 20.1572ZM299.523 17.459V25H296.983V15.4902H299.365L299.523 17.459ZM299.172 19.9111H298.469C298.469 19.249 298.548 18.6396 298.706 18.083C298.87 17.5205 299.107 17.0342 299.418 16.624C299.734 16.208 300.124 15.8857 300.587 15.6572C301.05 15.4287 301.586 15.3145 302.195 15.3145C302.617 15.3145 303.004 15.3789 303.355 15.5078C303.707 15.6309 304.009 15.8271 304.261 16.0967C304.519 16.3604 304.718 16.7061 304.858 17.1338C304.999 17.5557 305.069 18.0625 305.069 18.6543V25H302.538V18.9355C302.538 18.502 302.479 18.168 302.362 17.9336C302.245 17.6992 302.078 17.5352 301.861 17.4414C301.65 17.3477 301.396 17.3008 301.097 17.3008C300.769 17.3008 300.481 17.3682 300.235 17.5029C299.995 17.6377 299.796 17.8252 299.638 18.0654C299.479 18.2998 299.362 18.5752 299.286 18.8916C299.21 19.208 299.172 19.5479 299.172 19.9111ZM304.832 19.6211L303.927 19.7354C303.927 19.1143 304.003 18.5371 304.155 18.0039C304.313 17.4707 304.545 17.002 304.85 16.5977C305.16 16.1934 305.544 15.8799 306.001 15.6572C306.458 15.4287 306.985 15.3145 307.583 15.3145C308.04 15.3145 308.456 15.3818 308.831 15.5166C309.206 15.6455 309.525 15.8535 309.789 16.1406C310.059 16.4219 310.264 16.791 310.404 17.248C310.551 17.7051 310.624 18.2646 310.624 18.9268V25H308.084V18.9268C308.084 18.4873 308.025 18.1533 307.908 17.9248C307.797 17.6904 307.633 17.5293 307.416 17.4414C307.205 17.3477 306.953 17.3008 306.66 17.3008C306.355 17.3008 306.089 17.3623 305.86 17.4854C305.632 17.6025 305.441 17.7666 305.289 17.9775C305.137 18.1885 305.022 18.4346 304.946 18.7158C304.87 18.9912 304.832 19.293 304.832 19.6211ZM317.726 22.3721C317.726 22.1904 317.673 22.0264 317.567 21.8799C317.462 21.7334 317.266 21.5986 316.979 21.4756C316.697 21.3467 316.29 21.2295 315.757 21.124C315.276 21.0186 314.828 20.8867 314.412 20.7285C314.002 20.5645 313.645 20.3682 313.34 20.1396C313.041 19.9111 312.807 19.6416 312.637 19.3311C312.467 19.0146 312.382 18.6543 312.382 18.25C312.382 17.8516 312.467 17.4766 312.637 17.125C312.812 16.7734 313.062 16.4629 313.384 16.1934C313.712 15.918 314.11 15.7041 314.579 15.5518C315.054 15.3936 315.587 15.3145 316.179 15.3145C317.005 15.3145 317.714 15.4463 318.306 15.71C318.903 15.9736 319.36 16.3369 319.677 16.7998C319.999 17.2568 320.16 17.7783 320.16 18.3643H317.629C317.629 18.1182 317.576 17.8984 317.471 17.7051C317.371 17.5059 317.213 17.3506 316.996 17.2393C316.785 17.1221 316.51 17.0635 316.17 17.0635C315.889 17.0635 315.646 17.1133 315.44 17.2129C315.235 17.3066 315.077 17.4355 314.966 17.5996C314.86 17.7578 314.808 17.9336 314.808 18.127C314.808 18.2734 314.837 18.4053 314.896 18.5225C314.96 18.6338 315.062 18.7363 315.203 18.8301C315.344 18.9238 315.525 19.0117 315.748 19.0938C315.977 19.1699 316.258 19.2402 316.592 19.3047C317.277 19.4453 317.89 19.6299 318.429 19.8584C318.968 20.0811 319.396 20.3857 319.712 20.7725C320.028 21.1533 320.187 21.6543 320.187 22.2754C320.187 22.6973 320.093 23.084 319.905 23.4355C319.718 23.7871 319.448 24.0947 319.097 24.3584C318.745 24.6162 318.323 24.8184 317.831 24.9648C317.345 25.1055 316.797 25.1758 316.188 25.1758C315.303 25.1758 314.553 25.0176 313.938 24.7012C313.328 24.3848 312.865 23.9834 312.549 23.4971C312.238 23.0049 312.083 22.501 312.083 21.9854H314.482C314.494 22.3311 314.582 22.6094 314.746 22.8203C314.916 23.0312 315.13 23.1836 315.388 23.2773C315.651 23.3711 315.936 23.418 316.24 23.418C316.568 23.418 316.841 23.374 317.058 23.2861C317.274 23.1924 317.438 23.0693 317.55 22.917C317.667 22.7588 317.726 22.5771 317.726 22.3721Z" fill="#211F54"/>
<g clip-path="url(#clip5_1_1364)">
<path d="M217 82C224.18 82 230 76.1799 230 69C230 61.8201 224.18 56 217 56C209.82 56 204 61.8201 204 69C204 76.1799 209.82 82 217 82Z" fill="#EDF5FF"/>
<path d="M211.117 69.8406L214.479 73.2024L222.883 64.7979" stroke="#0075FF" stroke-width="2" stroke-linecap="round" stroke-linejoin="round"/>
</g>
<path d="M249.654 68.3027V68.9092C249.654 69.8818 249.522 70.7549 249.259 71.5283C248.995 72.3018 248.623 72.9609 248.143 73.5059C247.662 74.0449 247.088 74.458 246.42 74.7451C245.758 75.0322 245.022 75.1758 244.214 75.1758C243.411 75.1758 242.676 75.0322 242.008 74.7451C241.346 74.458 240.771 74.0449 240.285 73.5059C239.799 72.9609 239.421 72.3018 239.151 71.5283C238.888 70.7549 238.756 69.8818 238.756 68.9092V68.3027C238.756 67.3242 238.888 66.4512 239.151 65.6836C239.415 64.9102 239.787 64.251 240.268 63.7061C240.754 63.1611 241.328 62.7451 241.99 62.458C242.658 62.1709 243.394 62.0273 244.196 62.0273C245.005 62.0273 245.74 62.1709 246.402 62.458C247.07 62.7451 247.645 63.1611 248.125 63.7061C248.611 64.251 248.986 64.9102 249.25 65.6836C249.52 66.4512 249.654 67.3242 249.654 68.3027ZM246.991 68.9092V68.2852C246.991 67.6055 246.93 67.0078 246.807 66.4922C246.684 65.9766 246.502 65.543 246.262 65.1914C246.021 64.8398 245.729 64.5762 245.383 64.4004C245.037 64.2188 244.642 64.1279 244.196 64.1279C243.751 64.1279 243.355 64.2188 243.01 64.4004C242.67 64.5762 242.38 64.8398 242.14 65.1914C241.905 65.543 241.727 65.9766 241.604 66.4922C241.48 67.0078 241.419 67.6055 241.419 68.2852V68.9092C241.419 69.583 241.48 70.1807 241.604 70.7021C241.727 71.2178 241.908 71.6543 242.148 72.0117C242.389 72.3633 242.682 72.6299 243.027 72.8115C243.373 72.9932 243.769 73.084 244.214 73.084C244.659 73.084 245.055 72.9932 245.4 72.8115C245.746 72.6299 246.036 72.3633 246.271 72.0117C246.505 71.6543 246.684 71.2178 246.807 70.7021C246.93 70.1807 246.991 69.583 246.991 68.9092ZM254.62 75H252.071V64.6465C252.071 63.9258 252.212 63.3193 252.493 62.8271C252.78 62.3291 253.182 61.9541 253.697 61.7021C254.219 61.4443 254.837 61.3154 255.552 61.3154C255.786 61.3154 256.012 61.333 256.229 61.3682C256.445 61.3975 256.656 61.4355 256.861 61.4824L256.835 63.3896C256.724 63.3604 256.606 63.3398 256.483 63.3281C256.36 63.3164 256.217 63.3105 256.053 63.3105C255.748 63.3105 255.487 63.3633 255.271 63.4688C255.06 63.5684 254.898 63.7178 254.787 63.917C254.676 64.1162 254.62 64.3594 254.62 64.6465V75ZM256.545 65.4902V67.2832H250.656V65.4902H256.545ZM260.315 75H257.784V65.0596C257.784 64.251 257.948 63.5684 258.276 63.0117C258.604 62.4551 259.079 62.0332 259.7 61.7461C260.321 61.459 261.068 61.3154 261.941 61.3154C262.439 61.3154 262.923 61.3652 263.392 61.4648C263.86 61.5586 264.344 61.6816 264.842 61.834L264.481 63.8643C264.159 63.7646 263.811 63.6709 263.436 63.583C263.066 63.4951 262.621 63.4512 262.1 63.4512C261.514 63.4512 261.068 63.5889 260.764 63.8643C260.465 64.1338 260.315 64.5322 260.315 65.0596V75ZM262.205 65.4902V67.2832H256.36V65.4902H262.205ZM266.028 65.4902V75H263.479V65.4902H266.028ZM272.058 73.1982C272.368 73.1982 272.644 73.1396 272.884 73.0225C273.124 72.8994 273.312 72.7295 273.446 72.5127C273.587 72.29 273.66 72.0293 273.666 71.7305H276.048C276.042 72.3984 275.863 72.9932 275.512 73.5146C275.16 74.0303 274.688 74.4375 274.097 74.7363C273.505 75.0293 272.843 75.1758 272.11 75.1758C271.372 75.1758 270.728 75.0527 270.177 74.8066C269.632 74.5605 269.178 74.2207 268.814 73.7871C268.451 73.3477 268.179 72.8379 267.997 72.2578C267.815 71.6719 267.725 71.0449 267.725 70.377V70.1221C267.725 69.4482 267.815 68.8213 267.997 68.2412C268.179 67.6553 268.451 67.1455 268.814 66.7119C269.178 66.2725 269.632 65.9297 270.177 65.6836C270.722 65.4375 271.36 65.3145 272.093 65.3145C272.872 65.3145 273.555 65.4639 274.141 65.7627C274.732 66.0615 275.195 66.4893 275.529 67.0459C275.869 67.5967 276.042 68.25 276.048 69.0059H273.666C273.66 68.6895 273.593 68.4023 273.464 68.1445C273.341 67.8867 273.159 67.6816 272.919 67.5293C272.685 67.3711 272.395 67.292 272.049 67.292C271.68 67.292 271.378 67.3711 271.144 67.5293C270.909 67.6816 270.728 67.8926 270.599 68.1621C270.47 68.4258 270.379 68.7275 270.326 69.0674C270.279 69.4014 270.256 69.7529 270.256 70.1221V70.377C270.256 70.7461 270.279 71.1006 270.326 71.4404C270.373 71.7803 270.461 72.082 270.59 72.3457C270.725 72.6094 270.909 72.8174 271.144 72.9697C271.378 73.1221 271.683 73.1982 272.058 73.1982ZM281.893 75.1758C281.154 75.1758 280.492 75.0586 279.906 74.8242C279.32 74.584 278.822 74.2529 278.412 73.8311C278.008 73.4092 277.697 72.9199 277.48 72.3633C277.264 71.8008 277.155 71.2031 277.155 70.5703V70.2188C277.155 69.498 277.258 68.8389 277.463 68.2412C277.668 67.6436 277.961 67.125 278.342 66.6855C278.729 66.2461 279.197 65.9092 279.748 65.6748C280.299 65.4346 280.92 65.3145 281.611 65.3145C282.285 65.3145 282.883 65.4258 283.404 65.6484C283.926 65.8711 284.362 66.1875 284.714 66.5977C285.071 67.0078 285.341 67.5 285.522 68.0742C285.704 68.6426 285.795 69.2754 285.795 69.9727V71.0273H278.236V69.3398H283.308V69.1465C283.308 68.7949 283.243 68.4814 283.114 68.2061C282.991 67.9248 282.804 67.7021 282.552 67.5381C282.3 67.374 281.978 67.292 281.585 67.292C281.251 67.292 280.964 67.3652 280.724 67.5117C280.483 67.6582 280.287 67.8633 280.135 68.127C279.988 68.3906 279.877 68.7012 279.801 69.0586C279.73 69.4102 279.695 69.7969 279.695 70.2188V70.5703C279.695 70.9512 279.748 71.3027 279.854 71.625C279.965 71.9473 280.12 72.2256 280.319 72.46C280.524 72.6943 280.771 72.876 281.058 73.0049C281.351 73.1338 281.682 73.1982 282.051 73.1982C282.508 73.1982 282.933 73.1104 283.325 72.9346C283.724 72.7529 284.066 72.4805 284.354 72.1172L285.584 73.4531C285.385 73.7402 285.112 74.0156 284.767 74.2793C284.427 74.543 284.017 74.7598 283.536 74.9297C283.056 75.0938 282.508 75.1758 281.893 75.1758ZM292.378 72.3721C292.378 72.1904 292.325 72.0264 292.22 71.8799C292.114 71.7334 291.918 71.5986 291.631 71.4756C291.35 71.3467 290.942 71.2295 290.409 71.124C289.929 71.0186 289.48 70.8867 289.064 70.7285C288.654 70.5645 288.297 70.3682 287.992 70.1396C287.693 69.9111 287.459 69.6416 287.289 69.3311C287.119 69.0146 287.034 68.6543 287.034 68.25C287.034 67.8516 287.119 67.4766 287.289 67.125C287.465 66.7734 287.714 66.4629 288.036 66.1934C288.364 65.918 288.763 65.7041 289.231 65.5518C289.706 65.3936 290.239 65.3145 290.831 65.3145C291.657 65.3145 292.366 65.4463 292.958 65.71C293.556 65.9736 294.013 66.3369 294.329 66.7998C294.651 67.2568 294.812 67.7783 294.812 68.3643H292.281C292.281 68.1182 292.229 67.8984 292.123 67.7051C292.023 67.5059 291.865 67.3506 291.648 67.2393C291.438 67.1221 291.162 67.0635 290.822 67.0635C290.541 67.0635 290.298 67.1133 290.093 67.2129C289.888 67.3066 289.729 67.4355 289.618 67.5996C289.513 67.7578 289.46 67.9336 289.46 68.127C289.46 68.2734 289.489 68.4053 289.548 68.5225C289.612 68.6338 289.715 68.7363 289.855 68.8301C289.996 68.9238 290.178 69.0117 290.4 69.0938C290.629 69.1699 290.91 69.2402 291.244 69.3047C291.93 69.4453 292.542 69.6299 293.081 69.8584C293.62 70.0811 294.048 70.3857 294.364 70.7725C294.681 71.1533 294.839 71.6543 294.839 72.2754C294.839 72.6973 294.745 73.084 294.558 73.4355C294.37 73.7871 294.101 74.0947 293.749 74.3584C293.397 74.6162 292.976 74.8184 292.483 74.9648C291.997 75.1055 291.449 75.1758 290.84 75.1758C289.955 75.1758 289.205 75.0176 288.59 74.7012C287.98 74.3848 287.518 73.9834 287.201 73.4971C286.891 73.0049 286.735 72.501 286.735 71.9854H289.135C289.146 72.3311 289.234 72.6094 289.398 72.8203C289.568 73.0312 289.782 73.1836 290.04 73.2773C290.304 73.3711 290.588 73.418 290.893 73.418C291.221 73.418 291.493 73.374 291.71 73.2861C291.927 73.1924 292.091 73.0693 292.202 72.917C292.319 72.7588 292.378 72.5771 292.378 72.3721Z" fill="#211F54"/>
<g clip-path="url(#clip6_1_1364)">
<path d="M217 132C224.18 132 230 126.18 230 119C230 111.82 224.18 106 217 106C209.82 106 204 111.82 204 119C204 126.18 209.82 132 217 132Z" fill="#EDF5FF"/>
<path d="M211.117 119.841L214.479 123.202L222.883 114.798" stroke="#0075FF" stroke-width="2" stroke-linecap="round" stroke-linejoin="round"/>
</g>
<path d="M244.152 119.384H240.865L240.848 117.573H243.607C244.094 117.573 244.492 117.512 244.803 117.389C245.113 117.26 245.345 117.075 245.497 116.835C245.655 116.589 245.734 116.29 245.734 115.938C245.734 115.54 245.658 115.218 245.506 114.972C245.359 114.726 245.128 114.547 244.812 114.436C244.501 114.324 244.1 114.269 243.607 114.269H241.779V125H239.143V112.203H243.607C244.352 112.203 245.017 112.273 245.603 112.414C246.194 112.555 246.695 112.769 247.105 113.056C247.516 113.343 247.829 113.706 248.046 114.146C248.263 114.579 248.371 115.095 248.371 115.692C248.371 116.22 248.251 116.706 248.011 117.151C247.776 117.597 247.404 117.96 246.895 118.241C246.391 118.522 245.731 118.678 244.917 118.707L244.152 119.384ZM244.038 125H240.145L241.173 122.943H244.038C244.501 122.943 244.879 122.87 245.172 122.724C245.465 122.571 245.682 122.366 245.822 122.108C245.963 121.851 246.033 121.555 246.033 121.221C246.033 120.846 245.969 120.521 245.84 120.245C245.717 119.97 245.518 119.759 245.242 119.612C244.967 119.46 244.604 119.384 244.152 119.384H241.612L241.63 117.573H244.794L245.4 118.285C246.18 118.273 246.807 118.411 247.281 118.698C247.762 118.979 248.11 119.346 248.327 119.797C248.55 120.248 248.661 120.731 248.661 121.247C248.661 122.067 248.482 122.759 248.125 123.321C247.768 123.878 247.243 124.297 246.552 124.578C245.866 124.859 245.028 125 244.038 125ZM256.105 122.724V115.49H258.637V125H256.255L256.105 122.724ZM256.387 120.772L257.134 120.755C257.134 121.388 257.061 121.977 256.914 122.521C256.768 123.061 256.548 123.529 256.255 123.928C255.962 124.32 255.593 124.628 255.147 124.851C254.702 125.067 254.178 125.176 253.574 125.176C253.111 125.176 252.684 125.111 252.291 124.982C251.904 124.848 251.57 124.64 251.289 124.358C251.014 124.071 250.797 123.705 250.639 123.26C250.486 122.809 250.41 122.267 250.41 121.634V115.49H252.941V121.651C252.941 121.933 252.974 122.17 253.038 122.363C253.108 122.557 253.205 122.715 253.328 122.838C253.451 122.961 253.595 123.049 253.759 123.102C253.929 123.154 254.116 123.181 254.321 123.181C254.843 123.181 255.253 123.075 255.552 122.864C255.856 122.653 256.07 122.366 256.193 122.003C256.322 121.634 256.387 121.224 256.387 120.772ZM265.712 122.372C265.712 122.19 265.659 122.026 265.554 121.88C265.448 121.733 265.252 121.599 264.965 121.476C264.684 121.347 264.276 121.229 263.743 121.124C263.263 121.019 262.814 120.887 262.398 120.729C261.988 120.564 261.631 120.368 261.326 120.14C261.027 119.911 260.793 119.642 260.623 119.331C260.453 119.015 260.368 118.654 260.368 118.25C260.368 117.852 260.453 117.477 260.623 117.125C260.799 116.773 261.048 116.463 261.37 116.193C261.698 115.918 262.097 115.704 262.565 115.552C263.04 115.394 263.573 115.314 264.165 115.314C264.991 115.314 265.7 115.446 266.292 115.71C266.89 115.974 267.347 116.337 267.663 116.8C267.985 117.257 268.146 117.778 268.146 118.364H265.615C265.615 118.118 265.562 117.898 265.457 117.705C265.357 117.506 265.199 117.351 264.982 117.239C264.771 117.122 264.496 117.063 264.156 117.063C263.875 117.063 263.632 117.113 263.427 117.213C263.222 117.307 263.063 117.436 262.952 117.6C262.847 117.758 262.794 117.934 262.794 118.127C262.794 118.273 262.823 118.405 262.882 118.522C262.946 118.634 263.049 118.736 263.189 118.83C263.33 118.924 263.512 119.012 263.734 119.094C263.963 119.17 264.244 119.24 264.578 119.305C265.264 119.445 265.876 119.63 266.415 119.858C266.954 120.081 267.382 120.386 267.698 120.772C268.015 121.153 268.173 121.654 268.173 122.275C268.173 122.697 268.079 123.084 267.892 123.436C267.704 123.787 267.435 124.095 267.083 124.358C266.731 124.616 266.31 124.818 265.817 124.965C265.331 125.105 264.783 125.176 264.174 125.176C263.289 125.176 262.539 125.018 261.924 124.701C261.314 124.385 260.852 123.983 260.535 123.497C260.225 123.005 260.069 122.501 260.069 121.985H262.469C262.48 122.331 262.568 122.609 262.732 122.82C262.902 123.031 263.116 123.184 263.374 123.277C263.638 123.371 263.922 123.418 264.227 123.418C264.555 123.418 264.827 123.374 265.044 123.286C265.261 123.192 265.425 123.069 265.536 122.917C265.653 122.759 265.712 122.577 265.712 122.372ZM272.488 115.49V125H269.948V115.49H272.488ZM269.79 113.012C269.79 112.643 269.919 112.338 270.177 112.098C270.435 111.857 270.78 111.737 271.214 111.737C271.642 111.737 271.984 111.857 272.242 112.098C272.506 112.338 272.638 112.643 272.638 113.012C272.638 113.381 272.506 113.686 272.242 113.926C271.984 114.166 271.642 114.286 271.214 114.286C270.78 114.286 270.435 114.166 270.177 113.926C269.919 113.686 269.79 113.381 269.79 113.012ZM277.059 117.521V125H274.527V115.49H276.9L277.059 117.521ZM276.689 119.911H276.004C276.004 119.208 276.095 118.575 276.276 118.013C276.458 117.444 276.713 116.961 277.041 116.562C277.369 116.158 277.759 115.851 278.21 115.64C278.667 115.423 279.177 115.314 279.739 115.314C280.185 115.314 280.592 115.379 280.961 115.508C281.33 115.637 281.646 115.842 281.91 116.123C282.18 116.404 282.385 116.776 282.525 117.239C282.672 117.702 282.745 118.268 282.745 118.936V125H280.196V118.927C280.196 118.505 280.138 118.177 280.021 117.942C279.903 117.708 279.73 117.544 279.502 117.45C279.279 117.351 279.004 117.301 278.676 117.301C278.336 117.301 278.04 117.368 277.788 117.503C277.542 117.638 277.337 117.825 277.173 118.065C277.015 118.3 276.895 118.575 276.812 118.892C276.73 119.208 276.689 119.548 276.689 119.911ZM289.047 125.176C288.309 125.176 287.646 125.059 287.061 124.824C286.475 124.584 285.977 124.253 285.566 123.831C285.162 123.409 284.852 122.92 284.635 122.363C284.418 121.801 284.31 121.203 284.31 120.57V120.219C284.31 119.498 284.412 118.839 284.617 118.241C284.822 117.644 285.115 117.125 285.496 116.686C285.883 116.246 286.352 115.909 286.902 115.675C287.453 115.435 288.074 115.314 288.766 115.314C289.439 115.314 290.037 115.426 290.559 115.648C291.08 115.871 291.517 116.188 291.868 116.598C292.226 117.008 292.495 117.5 292.677 118.074C292.858 118.643 292.949 119.275 292.949 119.973V121.027H285.391V119.34H290.462V119.146C290.462 118.795 290.397 118.481 290.269 118.206C290.146 117.925 289.958 117.702 289.706 117.538C289.454 117.374 289.132 117.292 288.739 117.292C288.405 117.292 288.118 117.365 287.878 117.512C287.638 117.658 287.441 117.863 287.289 118.127C287.143 118.391 287.031 118.701 286.955 119.059C286.885 119.41 286.85 119.797 286.85 120.219V120.57C286.85 120.951 286.902 121.303 287.008 121.625C287.119 121.947 287.274 122.226 287.474 122.46C287.679 122.694 287.925 122.876 288.212 123.005C288.505 123.134 288.836 123.198 289.205 123.198C289.662 123.198 290.087 123.11 290.479 122.935C290.878 122.753 291.221 122.48 291.508 122.117L292.738 123.453C292.539 123.74 292.267 124.016 291.921 124.279C291.581 124.543 291.171 124.76 290.69 124.93C290.21 125.094 289.662 125.176 289.047 125.176ZM299.532 122.372C299.532 122.19 299.479 122.026 299.374 121.88C299.269 121.733 299.072 121.599 298.785 121.476C298.504 121.347 298.097 121.229 297.563 121.124C297.083 121.019 296.635 120.887 296.219 120.729C295.809 120.564 295.451 120.368 295.146 120.14C294.848 119.911 294.613 119.642 294.443 119.331C294.273 119.015 294.188 118.654 294.188 118.25C294.188 117.852 294.273 117.477 294.443 117.125C294.619 116.773 294.868 116.463 295.19 116.193C295.519 115.918 295.917 115.704 296.386 115.552C296.86 115.394 297.394 115.314 297.985 115.314C298.812 115.314 299.521 115.446 300.112 115.71C300.71 115.974 301.167 116.337 301.483 116.8C301.806 117.257 301.967 117.778 301.967 118.364H299.436C299.436 118.118 299.383 117.898 299.277 117.705C299.178 117.506 299.02 117.351 298.803 117.239C298.592 117.122 298.316 117.063 297.977 117.063C297.695 117.063 297.452 117.113 297.247 117.213C297.042 117.307 296.884 117.436 296.772 117.6C296.667 117.758 296.614 117.934 296.614 118.127C296.614 118.273 296.644 118.405 296.702 118.522C296.767 118.634 296.869 118.736 297.01 118.83C297.15 118.924 297.332 119.012 297.555 119.094C297.783 119.17 298.064 119.24 298.398 119.305C299.084 119.445 299.696 119.63 300.235 119.858C300.774 120.081 301.202 120.386 301.519 120.772C301.835 121.153 301.993 121.654 301.993 122.275C301.993 122.697 301.899 123.084 301.712 123.436C301.524 123.787 301.255 124.095 300.903 124.358C300.552 124.616 300.13 124.818 299.638 124.965C299.151 125.105 298.604 125.176 297.994 125.176C297.109 125.176 296.359 125.018 295.744 124.701C295.135 124.385 294.672 123.983 294.355 123.497C294.045 123.005 293.89 122.501 293.89 121.985H296.289C296.301 122.331 296.389 122.609 296.553 122.82C296.723 123.031 296.937 123.184 297.194 123.277C297.458 123.371 297.742 123.418 298.047 123.418C298.375 123.418 298.647 123.374 298.864 123.286C299.081 123.192 299.245 123.069 299.356 122.917C299.474 122.759 299.532 122.577 299.532 122.372ZM308.778 122.372C308.778 122.19 308.726 122.026 308.62 121.88C308.515 121.733 308.318 121.599 308.031 121.476C307.75 121.347 307.343 121.229 306.81 121.124C306.329 121.019 305.881 120.887 305.465 120.729C305.055 120.564 304.697 120.368 304.393 120.14C304.094 119.911 303.859 119.642 303.689 119.331C303.52 119.015 303.435 118.654 303.435 118.25C303.435 117.852 303.52 117.477 303.689 117.125C303.865 116.773 304.114 116.463 304.437 116.193C304.765 115.918 305.163 115.704 305.632 115.552C306.106 115.394 306.64 115.314 307.231 115.314C308.058 115.314 308.767 115.446 309.358 115.71C309.956 115.974 310.413 116.337 310.729 116.8C311.052 117.257 311.213 117.778 311.213 118.364H308.682C308.682 118.118 308.629 117.898 308.523 117.705C308.424 117.506 308.266 117.351 308.049 117.239C307.838 117.122 307.562 117.063 307.223 117.063C306.941 117.063 306.698 117.113 306.493 117.213C306.288 117.307 306.13 117.436 306.019 117.6C305.913 117.758 305.86 117.934 305.86 118.127C305.86 118.273 305.89 118.405 305.948 118.522C306.013 118.634 306.115 118.736 306.256 118.83C306.396 118.924 306.578 119.012 306.801 119.094C307.029 119.17 307.311 119.24 307.645 119.305C308.33 119.445 308.942 119.63 309.481 119.858C310.021 120.081 310.448 120.386 310.765 120.772C311.081 121.153 311.239 121.654 311.239 122.275C311.239 122.697 311.146 123.084 310.958 123.436C310.771 123.787 310.501 124.095 310.149 124.358C309.798 124.616 309.376 124.818 308.884 124.965C308.397 125.105 307.85 125.176 307.24 125.176C306.355 125.176 305.605 125.018 304.99 124.701C304.381 124.385 303.918 123.983 303.602 123.497C303.291 123.005 303.136 122.501 303.136 121.985H305.535C305.547 122.331 305.635 122.609 305.799 122.82C305.969 123.031 306.183 123.184 306.44 123.277C306.704 123.371 306.988 123.418 307.293 123.418C307.621 123.418 307.894 123.374 308.11 123.286C308.327 123.192 308.491 123.069 308.603 122.917C308.72 122.759 308.778 122.577 308.778 122.372ZM317.26 125.176C316.521 125.176 315.859 125.059 315.273 124.824C314.688 124.584 314.189 124.253 313.779 123.831C313.375 123.409 313.064 122.92 312.848 122.363C312.631 121.801 312.522 121.203 312.522 120.57V120.219C312.522 119.498 312.625 118.839 312.83 118.241C313.035 117.644 313.328 117.125 313.709 116.686C314.096 116.246 314.564 115.909 315.115 115.675C315.666 115.435 316.287 115.314 316.979 115.314C317.652 115.314 318.25 115.426 318.771 115.648C319.293 115.871 319.729 116.188 320.081 116.598C320.438 117.008 320.708 117.5 320.89 118.074C321.071 118.643 321.162 119.275 321.162 119.973V121.027H313.604V119.34H318.675V119.146C318.675 118.795 318.61 118.481 318.481 118.206C318.358 117.925 318.171 117.702 317.919 117.538C317.667 117.374 317.345 117.292 316.952 117.292C316.618 117.292 316.331 117.365 316.091 117.512C315.851 117.658 315.654 117.863 315.502 118.127C315.355 118.391 315.244 118.701 315.168 119.059C315.098 119.41 315.062 119.797 315.062 120.219V120.57C315.062 120.951 315.115 121.303 315.221 121.625C315.332 121.947 315.487 122.226 315.687 122.46C315.892 122.694 316.138 122.876 316.425 123.005C316.718 123.134 317.049 123.198 317.418 123.198C317.875 123.198 318.3 123.11 318.692 122.935C319.091 122.753 319.434 122.48 319.721 122.117L320.951 123.453C320.752 123.74 320.479 124.016 320.134 124.279C319.794 124.543 319.384 124.76 318.903 124.93C318.423 125.094 317.875 125.176 317.26 125.176ZM327.745 122.372C327.745 122.19 327.692 122.026 327.587 121.88C327.481 121.733 327.285 121.599 326.998 121.476C326.717 121.347 326.31 121.229 325.776 121.124C325.296 121.019 324.848 120.887 324.432 120.729C324.021 120.564 323.664 120.368 323.359 120.14C323.061 119.911 322.826 119.642 322.656 119.331C322.486 119.015 322.401 118.654 322.401 118.25C322.401 117.852 322.486 117.477 322.656 117.125C322.832 116.773 323.081 116.463 323.403 116.193C323.731 115.918 324.13 115.704 324.599 115.552C325.073 115.394 325.606 115.314 326.198 115.314C327.024 115.314 327.733 115.446 328.325 115.71C328.923 115.974 329.38 116.337 329.696 116.8C330.019 117.257 330.18 117.778 330.18 118.364H327.648C327.648 118.118 327.596 117.898 327.49 117.705C327.391 117.506 327.232 117.351 327.016 117.239C326.805 117.122 326.529 117.063 326.189 117.063C325.908 117.063 325.665 117.113 325.46 117.213C325.255 117.307 325.097 117.436 324.985 117.6C324.88 117.758 324.827 117.934 324.827 118.127C324.827 118.273 324.856 118.405 324.915 118.522C324.979 118.634 325.082 118.736 325.223 118.83C325.363 118.924 325.545 119.012 325.768 119.094C325.996 119.17 326.277 119.24 326.611 119.305C327.297 119.445 327.909 119.63 328.448 119.858C328.987 120.081 329.415 120.386 329.731 120.772C330.048 121.153 330.206 121.654 330.206 122.275C330.206 122.697 330.112 123.084 329.925 123.436C329.737 123.787 329.468 124.095 329.116 124.358C328.765 124.616 328.343 124.818 327.851 124.965C327.364 125.105 326.816 125.176 326.207 125.176C325.322 125.176 324.572 125.018 323.957 124.701C323.348 124.385 322.885 123.983 322.568 123.497C322.258 123.005 322.103 122.501 322.103 121.985H324.502C324.514 122.331 324.602 122.609 324.766 122.82C324.936 123.031 325.149 123.184 325.407 123.277C325.671 123.371 325.955 123.418 326.26 123.418C326.588 123.418 326.86 123.374 327.077 123.286C327.294 123.192 327.458 123.069 327.569 122.917C327.687 122.759 327.745 122.577 327.745 122.372Z" fill="#211F54"/>
<g clip-path="url(#clip7_1_1364)">
<path d="M217 182C224.18 182 230 176.18 230 169C230 161.82 224.18 156 217 156C209.82 156 204 161.82 204 169C204 176.18 209.82 182 217 182Z" fill="#EDF5FF"/>
<path d="M211.117 169.841L214.479 173.202L222.883 164.798" stroke="#0075FF" stroke-width="2" stroke-linecap="round" stroke-linejoin="round"/>
</g>
<path d="M242.228 172.97L244.776 162.203H246.2L246.525 163.996L243.81 175H242.28L242.228 172.97ZM240.918 162.203L243.027 172.97L242.852 175H241.146L238.308 162.203H240.918ZM248.767 172.926L250.85 162.203H253.46L250.63 175H248.925L248.767 172.926ZM247 162.203L249.566 173.014L249.496 175H247.967L245.233 163.987L245.585 162.203H247ZM257.406 165.49V175H254.866V165.49H257.406ZM254.708 163.012C254.708 162.643 254.837 162.338 255.095 162.098C255.353 161.857 255.698 161.737 256.132 161.737C256.56 161.737 256.902 161.857 257.16 162.098C257.424 162.338 257.556 162.643 257.556 163.012C257.556 163.381 257.424 163.686 257.16 163.926C256.902 164.166 256.56 164.286 256.132 164.286C255.698 164.286 255.353 164.166 255.095 163.926C254.837 163.686 254.708 163.381 254.708 163.012ZM261.977 167.521V175H259.445V165.49H261.818L261.977 167.521ZM261.607 169.911H260.922C260.922 169.208 261.013 168.575 261.194 168.013C261.376 167.444 261.631 166.961 261.959 166.562C262.287 166.158 262.677 165.851 263.128 165.64C263.585 165.423 264.095 165.314 264.657 165.314C265.103 165.314 265.51 165.379 265.879 165.508C266.248 165.637 266.564 165.842 266.828 166.123C267.098 166.404 267.303 166.776 267.443 167.239C267.59 167.702 267.663 168.268 267.663 168.936V175H265.114V168.927C265.114 168.505 265.056 168.177 264.938 167.942C264.821 167.708 264.648 167.544 264.42 167.45C264.197 167.351 263.922 167.301 263.594 167.301C263.254 167.301 262.958 167.368 262.706 167.503C262.46 167.638 262.255 167.825 262.091 168.065C261.933 168.3 261.812 168.575 261.73 168.892C261.648 169.208 261.607 169.548 261.607 169.911ZM275.204 172.926V161.5H277.753V175H275.459L275.204 172.926ZM269.192 170.359V170.175C269.192 169.448 269.274 168.789 269.438 168.197C269.603 167.6 269.843 167.087 270.159 166.659C270.476 166.231 270.865 165.9 271.328 165.666C271.791 165.432 272.318 165.314 272.91 165.314C273.467 165.314 273.953 165.432 274.369 165.666C274.791 165.9 275.148 166.234 275.441 166.668C275.74 167.096 275.98 167.603 276.162 168.188C276.344 168.769 276.476 169.404 276.558 170.096V170.5C276.476 171.162 276.344 171.777 276.162 172.346C275.98 172.914 275.74 173.412 275.441 173.84C275.148 174.262 274.791 174.59 274.369 174.824C273.947 175.059 273.455 175.176 272.893 175.176C272.301 175.176 271.773 175.056 271.311 174.815C270.854 174.575 270.467 174.238 270.15 173.805C269.84 173.371 269.603 172.861 269.438 172.275C269.274 171.689 269.192 171.051 269.192 170.359ZM271.724 170.175V170.359C271.724 170.752 271.753 171.118 271.812 171.458C271.876 171.798 271.979 172.1 272.119 172.363C272.266 172.621 272.453 172.823 272.682 172.97C272.916 173.11 273.2 173.181 273.534 173.181C273.968 173.181 274.325 173.084 274.606 172.891C274.888 172.691 275.102 172.419 275.248 172.073C275.4 171.728 275.488 171.329 275.512 170.878V169.727C275.494 169.357 275.441 169.026 275.354 168.733C275.271 168.435 275.148 168.18 274.984 167.969C274.826 167.758 274.627 167.594 274.387 167.477C274.152 167.359 273.874 167.301 273.552 167.301C273.224 167.301 272.942 167.377 272.708 167.529C272.474 167.676 272.283 167.878 272.137 168.136C271.996 168.394 271.891 168.698 271.82 169.05C271.756 169.396 271.724 169.771 271.724 170.175ZM279.326 170.342V170.157C279.326 169.46 279.426 168.818 279.625 168.232C279.824 167.641 280.114 167.128 280.495 166.694C280.876 166.261 281.345 165.924 281.901 165.684C282.458 165.438 283.097 165.314 283.817 165.314C284.538 165.314 285.18 165.438 285.742 165.684C286.305 165.924 286.776 166.261 287.157 166.694C287.544 167.128 287.837 167.641 288.036 168.232C288.235 168.818 288.335 169.46 288.335 170.157V170.342C288.335 171.033 288.235 171.675 288.036 172.267C287.837 172.853 287.544 173.365 287.157 173.805C286.776 174.238 286.308 174.575 285.751 174.815C285.194 175.056 284.556 175.176 283.835 175.176C283.114 175.176 282.473 175.056 281.91 174.815C281.354 174.575 280.882 174.238 280.495 173.805C280.114 173.365 279.824 172.853 279.625 172.267C279.426 171.675 279.326 171.033 279.326 170.342ZM281.857 170.157V170.342C281.857 170.74 281.893 171.112 281.963 171.458C282.033 171.804 282.145 172.108 282.297 172.372C282.455 172.63 282.66 172.832 282.912 172.979C283.164 173.125 283.472 173.198 283.835 173.198C284.187 173.198 284.488 173.125 284.74 172.979C284.992 172.832 285.194 172.63 285.347 172.372C285.499 172.108 285.61 171.804 285.681 171.458C285.757 171.112 285.795 170.74 285.795 170.342V170.157C285.795 169.771 285.757 169.407 285.681 169.067C285.61 168.722 285.496 168.417 285.338 168.153C285.186 167.884 284.983 167.673 284.731 167.521C284.479 167.368 284.175 167.292 283.817 167.292C283.46 167.292 283.155 167.368 282.903 167.521C282.657 167.673 282.455 167.884 282.297 168.153C282.145 168.417 282.033 168.722 281.963 169.067C281.893 169.407 281.857 169.771 281.857 170.157ZM292.606 172.539L294.584 165.49H296.192L295.674 168.259L293.696 175H292.352L292.606 172.539ZM291.604 165.49L293.02 172.53L293.151 175H291.569L289.161 165.49H291.604ZM298.003 172.416L299.383 165.49H301.835L299.427 175H297.854L298.003 172.416ZM296.412 165.49L298.381 172.486L298.653 175H297.3L295.322 168.268L294.821 165.49H296.412ZM308.251 172.372C308.251 172.19 308.198 172.026 308.093 171.88C307.987 171.733 307.791 171.599 307.504 171.476C307.223 171.347 306.815 171.229 306.282 171.124C305.802 171.019 305.354 170.887 304.938 170.729C304.527 170.564 304.17 170.368 303.865 170.14C303.566 169.911 303.332 169.642 303.162 169.331C302.992 169.015 302.907 168.654 302.907 168.25C302.907 167.852 302.992 167.477 303.162 167.125C303.338 166.773 303.587 166.463 303.909 166.193C304.237 165.918 304.636 165.704 305.104 165.552C305.579 165.394 306.112 165.314 306.704 165.314C307.53 165.314 308.239 165.446 308.831 165.71C309.429 165.974 309.886 166.337 310.202 166.8C310.524 167.257 310.686 167.778 310.686 168.364H308.154C308.154 168.118 308.102 167.898 307.996 167.705C307.896 167.506 307.738 167.351 307.521 167.239C307.311 167.122 307.035 167.063 306.695 167.063C306.414 167.063 306.171 167.113 305.966 167.213C305.761 167.307 305.603 167.436 305.491 167.6C305.386 167.758 305.333 167.934 305.333 168.127C305.333 168.273 305.362 168.405 305.421 168.522C305.485 168.634 305.588 168.736 305.729 168.83C305.869 168.924 306.051 169.012 306.273 169.094C306.502 169.17 306.783 169.24 307.117 169.305C307.803 169.445 308.415 169.63 308.954 169.858C309.493 170.081 309.921 170.386 310.237 170.772C310.554 171.153 310.712 171.654 310.712 172.275C310.712 172.697 310.618 173.084 310.431 173.436C310.243 173.787 309.974 174.095 309.622 174.358C309.271 174.616 308.849 174.818 308.356 174.965C307.87 175.105 307.322 175.176 306.713 175.176C305.828 175.176 305.078 175.018 304.463 174.701C303.854 174.385 303.391 173.983 303.074 173.497C302.764 173.005 302.608 172.501 302.608 171.985H305.008C305.02 172.331 305.107 172.609 305.271 172.82C305.441 173.031 305.655 173.184 305.913 173.277C306.177 173.371 306.461 173.418 306.766 173.418C307.094 173.418 307.366 173.374 307.583 173.286C307.8 173.192 307.964 173.069 308.075 172.917C308.192 172.759 308.251 172.577 308.251 172.372Z" fill="#211F54"/>
<defs>
<clipPath id="clip0_1_1364">
<rect width="26" height="26" fill="white" transform="translate(1)"/>
</clipPath>
<clipPath id="clip1_1_1364">
<rect width="26" height="26" fill="white" transform="translate(1 50)"/>
</clipPath>
<clipPath id="clip2_1_1364">
<rect width="26" height="26" fill="white" transform="translate(1 106)"/>
</clipPath>
<clipPath id="clip3_1_1364">
<rect width="26" height="26" fill="white" transform="translate(1 162)"/>
</clipPath>
<clipPath id="clip4_1_1364">
<rect width="26" height="26" fill="white" transform="translate(204 6)"/>
</clipPath>
<clipPath id="clip5_1_1364">
<rect width="26" height="26" fill="white" transform="translate(204 56)"/>
</clipPath>
<clipPath id="clip6_1_1364">
<rect width="26" height="26" fill="white" transform="translate(204 106)"/>
</clipPath>
<clipPath id="clip7_1_1364">
<rect width="26" height="26" fill="white" transform="translate(204 156)"/>
</clipPath>
</defs>
</svg>
